{
.appVersion = "3201";
.formatVersion = 3;
axes = (
{
name = Weight;
tag = wght;
},
{
name = Slant;
tag = slnt;
},
{
name = Grade;
tag = GRAD;
}
);
classes = (
{
automatic = 1;
code = "A Aacute Acircumflex Adieresis Agrave Aring Atilde AE B C Ccedilla D Eth E Eacute Ecircumflex Edieresis Egrave F G H I Iacute Icircumflex Idieresis Igrave J K L M N Ntilde O Oacute Ocircumflex Odieresis Ograve Oslash Otilde OE P Thorn Q R S Scaron T U Uacute Ucircumflex Udieresis Ugrave V W X Y Yacute Ydieresis Z Zcaron Delta Omega";
name = Uppercase;
}
);
customParameters = (
{
name = "Enforce Compatibility Check";
value = 1;
},
{
name = "Use Extension Kerning";
value = 1;
},
{
name = "Use Line Breaks";
value = 1;
},
{
name = "gasp Table";
value = {
"20" = 7;
"65535" = 15;
"8" = 10;
};
},
{
name = "Variable Font Origin";
value = "BF6BA5B2-0556-42F4-A103-614BEBF16A1A";
},
{
name = "Write DisplayStrings";
value = 0;
},
{
name = "Write lastChange";
value = 0;
},
{
name = fsType;
value = (
);
},
{
name = "Use Typo Metrics";
value = 1;
}
);
date = "2023-04-12 05:09:11 +0000";
familyName = Sutasoma;
featurePrefixes = (
{
automatic = 1;
code = "languagesystem DFLT dflt;

languagesystem latn dflt;
";
name = Languagesystems;
}
);
features = (
{
automatic = 1;
code = "feature subs;
feature sinf;
feature sups;
feature numr;
feature dnom;
feature frac;
feature ordn;
feature case;
feature ss01;
";
tag = aalt;
},
{
automatic = 1;
code = "lookup ccmp_Other_1 {
	@CombiningTopAccents = [acutecomb brevecomb breveinvertedcomb caroncomb circumflexcomb dblgravecomb dieresiscomb dotaccentcomb gravecomb hungarumlautcomb macroncomb ringcomb tildecomb];
	lookupflag UseMarkFilteringSet @CombiningTopAccents;
	sub i' @CombiningTopAccents by idotless;
	sub j' @CombiningTopAccents by jdotless;
} ccmp_Other_1;

lookup ccmp_Other_2 {
	@Markscomb = [strokeshortcomb];
	@MarkscombCase = [strokeshortcomb.case];
	sub @Markscomb @Markscomb' by @MarkscombCase;
	sub @Uppercase @Markscomb' by @MarkscombCase;

glyphs = (
{
glyphname = A;
layers = (
{
anchors = (
{
name = top;
pos = (273,700);
}
);
layerId = m01;
shapes = (
{
closed = 1;
nodes = (
(64,0,l),
(283,684,l),
(255,684,l),
(480,0,l),
(533,0,l),
(296,700,l),
(249,700,l),
(20,0,l)
);
},
{
closed = 1;
nodes = (
(422,201,l),
(411,233,l),
(130,233,l),
(120,201,l)
);
}
);
userData = {
com.hugojourdan.ColorFlow = {
"0" = 0;
"1" = 0;
"10" = 0;
"11" = 0;
"2" = 0;
"3" = 0;
"4" = 0;
"5" = 0;
"6" = 0;
"7" = 0;
"8" = 0;
"9" = 0;
};
};
width = 553;
},
{
anchors = (
{
name = top;
pos = (309,700);
}
);
layerId = "FF73925E-1E34-445B-881D-5A7CAAA8E8BE";
shapes = (
{
closed = 1;
nodes = (
(116,0,l),
(283,623,l),
(260,624,l),
(417,0,l),
(605,0,l),
(406,700,l),
(212,700,l),
(12,0,l)
);
},
{
closed = 1;
nodes = (
(415,168,l),
(392,258,l),
(145,258,l),
(121,168,l)
);
}
);
userData = {
com.hugojourdan.ColorFlow = {
"0" = 0;
"1" = 0;
"10" = 0;
"11" = 0;
"2" = 0;
"3" = 0;
"4" = 0;
"5" = 0;
"6" = 0;
"7" = 0;
"8" = 0;
"9" = 0;
};
};
width = 617;
},
{
anchors = (
{
name = top;
pos = (287,700);
}
);
layerId = "BF6BA5B2-0556-42F4-A103-614BEBF16A1A";
shapes = (
{
closed = 1;
nodes = (
(84,0,l),
(283,660,l),
(257,660,l),
(456,0,l),
(561,0,l),
(338,700,l),
(235,700,l),
(17,0,l)
);
},
{
closed = 1;
nodes = (
(410,192,l),
(396,239,l),
(144,239,l),
(130,192,l)
);
}
);
userData = {
com.hugojourdan.ColorFlow = {
"0" = 0;
"1" = 0;
"10" = 0;
"11" = 0;
"2" = 0;
"3" = 0;
"4" = 0;
"5" = 0;
"6" = 0;
"7" = 0;
"8" = 0;
"9" = 0;
};
};
width = 577;
},
{
anchors = (
{
name = top;
pos = (287,700);
}
);
layerId = m004;
shapes = (
{
closed = 1;
nodes = (
(73,0,l),
(298,684,l),
(270,684,l),
(494,0,l),
(547,0,l),
(310,700,l),
(257,700,l),
(20,0,l)
);
},
{
closed = 1;
nodes = (
(474,197,l),
(460,237,l),
(109,237,l),
(96,197,l)
);
}
);
userData = {
com.hugojourdan.ColorFlow = {
"0" = 0;
"1" = 0;
"10" = 0;
"11" = 0;
"2" = 0;
"3" = 0;
"4" = 0;
"5" = 0;
"6" = 0;
"7" = 0;
"8" = 0;
"9" = 0;
};
};
width = 567;
},
{
anchors = (
{
name = top;
pos = (298,700);
}
);
layerId = m005;
shapes = (
{
closed = 1;
nodes = (
(122,0,l),
(307,638,l),
(283,638,l),
(467,0,l),
(572,0,l),
(354,700,l),
(235,700,l),
(17,0,l)
);
},
{
closed = 1;
nodes = (
(483,177,l),
(460,254,l),
(140,254,l),
(118,177,l)
);
}
);
userData = {
com.hugojourdan.ColorFlow = {
"0" = 0;
"1" = 0;
"10" = 0;
"11" = 0;
"2" = 0;
"3" = 0;
"4" = 0;
"5" = 0;
"6" = 0;
"7" = 0;
"8" = 0;
"9" = 0;
};
};
width = 589;
},
{
anchors = (
{
name = top;
pos = (315,700);
}
);
layerId = m006;
shapes = (
{
closed = 1;
nodes = (
(200,0,l),
(321,565,l),
(303,565,l),
(423,0,l),
(611,0,l),
(423,700,l),
(200,700,l),
(12,0,l)
);
},
{
closed = 1;
nodes = (
(496,145,l),
(461,281,l),
(188,281,l),
(152,145,l)
);
}
);
userData = {
com.hugojourdan.ColorFlow = {
"0" = 0;
"1" = 0;
"10" = 0;
"11" = 0;
"2" = 0;
"3" = 0;
"4" = 0;
"5" = 0;
"6" = 0;
"7" = 0;
"8" = 0;
"9" = 0;
};
};
width = 623;
}
);
note = A;
unicode = 65;
},
{
glyphname = AE;
layers = (
{
layerId = m01;
shapes = (
{
closed = 1;
nodes = (
(64,0,l),
(434,684,l),
(400,700,l),
(20,0,l)
);
},
{
closed = 1;
nodes = (
(417,201,l),
(417,233,l),
(155,233,l),
(155,201,l)
);
},
{
closed = 1;
nodes = (
(781,0,l),
(781,32,l),
(424,32,l),
(448,8,l),
(448,692,l),
(424,668,l),
(768,668,l),
(768,700,l),
(400,700,l),
(400,0,l)
);
},
{
closed = 1;
nodes = (
(748,348,l),
(748,378,l),
(424,378,l),
(424,348,l)
);
}
);
userData = {
com.hugojourdan.ColorFlow = {
"0" = 0;
"1" = 0;
"10" = 0;
"11" = 0;
"2" = 0;
"3" = 0;
"4" = 0;
"5" = 0;
"6" = 0;
"7" = 0;
"8" = 0;
"9" = 0;
};
};
width = 827;
},
{
layerId = "BF6BA5B2-0556-42F4-A103-614BEBF16A1A";
shapes = (
{
closed = 1;
nodes = (
(86,0,l),
(441,660,l),
(393,700,l),
(17,0,l)
);
},
{
closed = 1;
nodes = (
(442,192,l),
(442,240,l),
(179,240,l),
(179,192,l)
);
},
{
closed = 1;
nodes = (
(806,0,l),
(806,52,l),
(451,52,l),
(490,13,l),
(490,687,l),
(451,648,l),
(794,648,l),
(794,700,l),
(393,700,l),
(393,0,l)
);
},
{
closed = 1;
nodes = (
(773,339,l),
(773,387,l),
(441,387,l),
(441,339,l)
);
}
);
userData = {
com.hugojourdan.ColorFlow = {
"0" = 0;
"1" = 0;
"10" = 0;
"11" = 0;
"2" = 0;
"3" = 0;
"4" = 0;
"5" = 0;
"6" = 0;
"7" = 0;
"8" = 0;
"9" = 0;
};
};
width = 846;
},
{
layerId = "FF73925E-1E34-445B-881D-5A7CAAA8E8BE";
shapes = (
{
closed = 1;
nodes = (
(116,0,l),
(451,643,l),
(382,700,l),
(12,0,l)
);
},
{
closed = 1;
nodes = (
(471,173,l),
(471,253,l),
(173,253,l),
(173,173,l)
);
},
{
closed = 1;
nodes = (
(833,0,l),
(833,90,l),
(515,90,l),
(560,45,l),
(560,655,l),
(515,610,l),
(823,610,l),
(823,700,l),
(382,700,l),
(382,0,l)
);
},
{
closed = 1;
nodes = (
(800,323,l),
(800,403,l),
(471,403,l),
(471,323,l)
);
}
);
userData = {
com.hugojourdan.ColorFlow = {
"0" = 0;
"1" = 0;
"10" = 0;
"11" = 0;
"2" = 0;
"3" = 0;
"4" = 0;
"5" = 0;
"6" = 0;
"7" = 0;
"8" = 0;
"9" = 0;
};
};
width = 856;
},
{
layerId = m004;
shapes = (
{
closed = 1;
nodes = (
(71,0,l),
(441,684,l),
(400,700,l),
(20,0,l)
);
},
{
closed = 1;
nodes = (
(418,196,l),
(418,238,l),
(156,238,l),
(156,196,l)
);
},
{
closed = 1;
nodes = (
(781,0,l),
(781,43,l),
(424,43,l),
(448,19,l),
(448,681,l),
(424,657,l),
(768,657,l),
(768,700,l),
(400,700,l),
(400,0,l)
);
},
{
closed = 1;
nodes = (
(748,342,l),
(748,384,l),
(424,384,l),
(424,342,l)
);
}
);
userData = {
com.hugojourdan.ColorFlow = {
"0" = 0;
"1" = 0;
"10" = 0;
"11" = 0;
"2" = 0;
"3" = 0;
"4" = 0;
"5" = 0;
"6" = 0;
"7" = 0;
"8" = 0;
"9" = 0;
};
};
width = 827;
},
{
layerId = m005;
shapes = (
{
closed = 1;
nodes = (
(121,0,l),
(476,660,l),
(393,700,l),
(17,0,l)
);
},
{
closed = 1;
nodes = (
(442,183,l),
(442,257,l),
(179,257,l),
(179,183,l)
);
},
{
closed = 1;
nodes = (
(806,0,l),
(806,77,l),
(451,77,l),
(491,38,l),
(491,662,l),
(451,623,l),
(794,623,l),
(794,700,l),
(393,700,l),
(393,0,l)
);
},
{
closed = 1;
nodes = (
(771,326,l),
(771,400,l),
(441,400,l),
(441,326,l)
);
}
);
userData = {
com.hugojourdan.ColorFlow = {
"0" = 0;
"1" = 0;
"10" = 0;
"11" = 0;
"2" = 0;
"3" = 0;
"4" = 0;
"5" = 0;
"6" = 0;
"7" = 0;
"8" = 0;
"9" = 0;
};
};
width = 846;
},
{
layerId = m006;
shapes = (
{
closed = 1;
nodes = (
(196,0,l),
(451,700,l),
(282,700,l),
(12,0,l)
);
},
{
closed = 1;
nodes = (
(471,147,l),
(471,277,l),
(173,277,l),
(173,147,l)
);
},
{
closed = 1;
nodes = (
(833,0,l),
(833,136,l),
(515,136,l),
(560,91,l),
(560,609,l),
(515,564,l),
(823,564,l),
(823,700,l),
(382,700,l),
(382,0,l)
);
},
{
closed = 1;
nodes = (
(800,298,l),
(800,428,l),
(471,428,l),
(471,298,l)
);
}
);
userData = {
com.hugojourdan.ColorFlow = {
"0" = 0;
"1" = 0;
"10" = 0;
"11" = 0;
"2" = 0;
"3" = 0;
"4" = 0;
"5" = 0;
"6" = 0;
"7" = 0;
"8" = 0;
"9" = 0;
};
};
width = 856;
}
);
metricLeft = "=A";
metricRight = "=E";
unicode = 198;
},
{
glyphname = B;
layers = (
{
layerId = m01;
shapes = (
{
closed = 1;
nodes = (
(306,0,ls),
(450,0,o),
(531,69,o),
(531,192,cs),
(531,306,o),
(461,372,o),
(335,376,c),
(341,367,l),
(438,377,o),
(493,436,o),
(493,532,cs),
(493,640,o),
(413,700,o),
(270,700,cs),
(102,700,l),
(102,0,l)
);
},
{
closed = 1;
nodes = (
(150,692,l),
(126,668,l),
(275,668,ls),
(383,668,o),
(444,617,o),
(444,526,cs),
(444,435,o),
(383,384,o),
(275,384,cs),
(126,384,l),
(126,352,l),
(292,352,ls),
(415,352,o),
(483,295,o),
(483,192,cs),
(483,89,o),
(415,32,o),
(292,32,cs),
(126,32,l),
(150,8,l)
);
}
);
userData = {
com.hugojourdan.ColorFlow = {
"0" = 0;
"1" = 0;
"10" = 0;
"11" = 0;
"2" = 0;
"3" = 0;
"4" = 0;
"5" = 0;
"6" = 0;
"7" = 0;
"8" = 0;
"9" = 0;
};
};
width = 601;
},
{
layerId = "FF73925E-1E34-445B-881D-5A7CAAA8E8BE";
shapes = (
{
closed = 1;
nodes = (
(308,0,ls),
(503,0,o),
(600,70,o),
(600,209,cs),
(600,322,o),
(535,377,o),
(400,377,c),
(406,362,l),
(513,362,o),
(574,419,o),
(574,522,cs),
(574,646,o),
(490,700,o),
(298,700,cs),
(51,700,l),
(51,0,l)
);
},
{
closed = 1;
nodes = (
(229,655,l),
(184,610,l),
(280,610,ls),
(354,610,o),
(391,579,o),
(391,516,cs),
(391,453,o),
(354,421,o),
(280,421,cs),
(139,421,l),
(139,331,l),
(283,331,ls),
(371,331,o),
(414,291,o),
(414,210,cs),
(414,129,o),
(371,90,o),
(283,90,cs),
(184,90,l),
(229,45,l)
);
}
);
userData = {
com.hugojourdan.ColorFlow = {
"0" = 0;
"1" = 0;
"10" = 0;
"11" = 0;
"2" = 0;
"3" = 0;
"4" = 0;
"5" = 0;
"6" = 0;
"7" = 0;
"8" = 0;
"9" = 0;
};
};
width = 640;
},
{
layerId = "BF6BA5B2-0556-42F4-A103-614BEBF16A1A";
shapes = (
{
closed = 1;
nodes = (
(318,0,ls),
(481,0,o),
(566,68,o),
(566,197,cs),
(566,308,o),
(503,367,o),
(377,376,c),
(377,365,l),
(478,379,o),
(533,440,o),
(533,539,cs),
(533,653,o),
(462,700,o),
(292,700,cs),
(88,700,l),
(88,0,l)
);
},
{
closed = 1;
nodes = (
(185,692,l),
(146,653,l),
(272,653,ls),
(388,653,o),
(432,619,o),
(432,530,cs),
(432,438,o),
(384,391,o),
(289,391,cs),
(137,391,l),
(137,345,l),
(290,345,ls),
(405,345,o),
(461,294,o),
(461,190,cs),
(461,91,o),
(410,47,o),
(296,47,cs),
(146,47,l),
(185,8,l)
);
}
);
userData = {
com.hugojourdan.ColorFlow = {
"0" = 0;
"1" = 0;
"10" = 0;
"11" = 0;
"2" = 0;
"3" = 0;
"4" = 0;
"5" = 0;
"6" = 0;
"7" = 0;
"8" = 0;
"9" = 0;
};
};
width = 619;
},
{
layerId = m004;
shapes = (
{
closed = 1;
nodes = (
(306,0,ls),
(450,0,o),
(531,69,o),
(531,192,cs),
(531,306,o),
(461,372,o),
(335,376,c),
(341,367,l),
(438,377,o),
(493,436,o),
(493,532,cs),
(493,640,o),
(413,700,o),
(270,700,cs),
(102,700,l),
(102,0,l)
);
},
{
closed = 1;
nodes = (
(150,682,l),
(126,658,l),
(275,658,ls),
(383,658,o),
(444,610,o),
(444,524,cs),
(444,438,o),
(383,390,o),
(275,390,cs),
(126,390,l),
(126,350,l),
(292,350,ls),
(415,350,o),
(483,295,o),
(483,195,cs),
(483,96,o),
(415,42,o),
(292,42,cs),
(126,42,l),
(150,18,l)
);
}
);
userData = {
com.hugojourdan.ColorFlow = {
"0" = 0;
"1" = 0;
"10" = 0;
"11" = 0;
"2" = 0;
"3" = 0;
"4" = 0;
"5" = 0;
"6" = 0;
"7" = 0;
"8" = 0;
"9" = 0;
};
};
width = 601;
},
{
layerId = m005;
shapes = (
{
closed = 1;
nodes = (
(321,0,ls),
(484,0,o),
(569,70,o),
(569,197,cs),
(569,314,o),
(498,374,o),
(365,376,c),
(381,365,l),
(478,370,o),
(536,429,o),
(536,527,cs),
(536,642,o),
(456,700,o),
(295,700,cs),
(88,700,l),
(88,0,l)
);
},
{
closed = 1;
nodes = (
(186,662,l),
(147,623,l),
(297,623,ls),
(384,623,o),
(433,583,o),
(433,512,cs),
(433,441,o),
(384,401,o),
(297,401,cs),
(138,401,l),
(138,328,l),
(315,328,ls),
(409,328,o),
(464,282,o),
(464,202,cs),
(464,122,o),
(410,77,o),
(315,77,cs),
(147,77,l),
(186,38,l)
);
}
);
userData = {
com.hugojourdan.ColorFlow = {
"0" = 0;
"1" = 0;
"10" = 0;
"11" = 0;
"2" = 0;
"3" = 0;
"4" = 0;
"5" = 0;
"6" = 0;
"7" = 0;
"8" = 0;
"9" = 0;
};
};
width = 622;
},
{
layerId = m006;
shapes = (
{
closed = 1;
nodes = (
(308,0,ls),
(504,0,o),
(600,71,o),
(600,209,cs),
(600,322,o),
(535,377,o),
(400,377,c),
(406,362,l),
(519,362,o),
(574,427,o),
(574,526,cs),
(574,647,o),
(493,700,o),
(298,700,cs),
(51,700,l),
(51,0,l)
);
},
{
closed = 1;
nodes = (
(229,609,l),
(184,564,l),
(312,564,ls),
(373,564,o),
(393,528,o),
(393,492,cs),
(393,457,o),
(373,421,o),
(312,421,cs),
(141,421,l),
(141,291,l),
(333,291,ls),
(376,291,o),
(416,266,o),
(416,212,cs),
(416,160,o),
(376,136,o),
(333,136,cs),
(184,136,l),
(229,91,l)
);
}
);
userData = {
com.hugojourdan.ColorFlow = {
"0" = 0;
"1" = 0;
"10" = 0;
"11" = 0;
"2" = 0;
"3" = 0;
"4" = 0;
"5" = 0;
"6" = 0;
"7" = 0;
"8" = 0;
"9" = 0;
};
};
width = 640;
}
);
metricLeft = "=H";
note = B;
unicode = 66;
},
{
glyphname = C;
layers = (
{
anchors = (
{
name = bottom;
pos = (341,0);
}
);
layerId = m01;
shapes = (
{
closed = 1;
nodes = (
(414,-10,o),
(487,16,o),
(534,69,c),
(495,98,l),
(468,52,o),
(405,22,o),
(340,22,cs),
(200,22,o),
(120,140,o),
(120,350,cs),
(120,560,o),
(200,678,o),
(340,678,cs),
(405,678,o),
(468,648,o),
(495,602,c),
(528,637,l),
(481,686,o),
(411,710,o),
(342,710,cs),
(166,710,o),
(67,581,o),
(67,350,cs),
(67,119,o),
(166,-10,o),
(342,-10,cs)
);
}
);
userData = {
com.hugojourdan.ColorFlow = {
"0" = 0;
"1" = 0;
"10" = 0;
"11" = 0;
"2" = 0;
"3" = 0;
"4" = 0;
"5" = 0;
"6" = 0;
"7" = 0;
"8" = 0;
"9" = 0;
};
};
width = 590;
},
{
anchors = (
{
name = bottom;
pos = (345,0);
}
);
layerId = "FF73925E-1E34-445B-881D-5A7CAAA8E8BE";
shapes = (
{
closed = 1;
nodes = (
(459,-10,o),
(558,40,o),
(608,121,c),
(479,211,l),
(455,155,o),
(413,80,o),
(354,80,cs),
(274,80,o),
(224,178,o),
(224,355,cs),
(224,523,o),
(270,616,o),
(342,616,cs),
(395,616,o),
(426,554,o),
(445,491,c),
(590,542,l),
(549,656,o),
(448,710,o),
(343,710,cs),
(150,710,o),
(36,581,o),
(36,350,cs),
(36,119,o),
(150,-10,o),
(342,-10,cs)
);
}
);
userData = {
com.hugojourdan.ColorFlow = {
"0" = 0;
"1" = 0;
"10" = 0;
"11" = 0;
"2" = 0;
"3" = 0;
"4" = 0;
"5" = 0;
"6" = 0;
"7" = 0;
"8" = 0;
"9" = 0;
};
};
width = 638;
},
{
anchors = (
{
name = bottom;
pos = (334,0);
}
);
layerId = "BF6BA5B2-0556-42F4-A103-614BEBF16A1A";
shapes = (
{
closed = 1;
nodes = (
(443,-10,o),
(539,43,o),
(570,114,c),
(488,145,l),
(467,86,o),
(406,42,o),
(336,42,cs),
(210,42,o),
(160,185,o),
(160,350,cs),
(160,515,o),
(210,658,o),
(335,658,cs),
(406,658,o),
(467,614,o),
(488,555,c),
(568,591,l),
(536,658,o),
(442,710,o),
(333,710,cs),
(134,710,o),
(55,530,o),
(55,350,cs),
(55,169,o),
(135,-10,o),
(333,-10,cs)
);
}
);
userData = {
com.hugojourdan.ColorFlow = {
"0" = 0;
"1" = 0;
"10" = 0;
"11" = 0;
"2" = 0;
"3" = 0;
"4" = 0;
"5" = 0;
"6" = 0;
"7" = 0;
"8" = 0;
"9" = 0;
};
};
width = 616;
},
{
anchors = (
{
name = bottom;
pos = (340,0);
}
);
background = {
shapes = (
{
pos = (-3,0);
ref = O;
}
);
};
layerId = m004;
shapes = (
{
closed = 1;
nodes = (
(413,-10,o),
(487,16,o),
(534,69,c),
(501,104,l),
(473,68,o),
(407,34,o),
(339,34,cs),
(200,34,o),
(120,148,o),
(120,350,cs),
(120,552,o),
(200,666,o),
(339,666,cs),
(404,666,o),
(468,635,o),
(495,602,c),
(528,637,l),
(481,686,o),
(410,710,o),
(341,710,cs),
(166,710,o),
(67,581,o),
(67,350,cs),
(67,119,o),
(166,-10,o),
(341,-10,cs)
);
}
);
userData = {
com.hugojourdan.ColorFlow = {
"0" = 0;
"1" = 0;
"10" = 0;
"11" = 0;
"2" = 0;
"3" = 0;
"4" = 0;
"5" = 0;
"6" = 0;
"7" = 0;
"8" = 0;
"9" = 0;
};
};
width = 590;
},
{
anchors = (
{
name = bottom;
pos = (352,0);
}
);
background = {
shapes = (
{
pos = (-6,0);
ref = O;
}
);
};
guides = (
{
angle = 90;
pos = (574,121);
},
{
angle = 90;
pos = (556,121);
}
);
layerId = m005;
shapes = (
{
closed = 1;
nodes = (
(440,-10,o),
(522,24,o),
(570,78,c),
(515,143,l),
(476,103,o),
(409,74,o),
(355,74,cs),
(231,74,o),
(161,175,o),
(161,350,cs),
(161,526,o),
(230,626,o),
(352,626,cs),
(408,626,o),
(476,597,o),
(516,557,c),
(567,626,l),
(517,678,o),
(435,710,o),
(350,710,cs),
(162,710,o),
(55,579,o),
(55,350,cs),
(55,120,o),
(163,-10,o),
(354,-10,cs)
);
}
);
userData = {
com.hugojourdan.ColorFlow = {
"0" = 0;
"1" = 0;
"10" = 0;
"11" = 0;
"2" = 0;
"3" = 0;
"4" = 0;
"5" = 0;
"6" = 0;
"7" = 0;
"8" = 0;
"9" = 0;
};
};
width = 616;
},
{
anchors = (
{
name = bottom;
pos = (362,0);
}
);
guides = (
{
angle = 122.969;
pos = (608,95);
},
{
angle = 90;
pos = (608,121);
},
{
angle = 90;
pos = (475,121);
},
{
pos = (439,43);
},
{
angle = 90;
pos = (590,121);
}
);
layerId = m006;
shapes = (
{
closed = 1;
nodes = (
(473,-10,o),
(562,39,o),
(608,92,c),
(528,215,l),
(489,178,o),
(428,138,o),
(373,138,cs),
(296,138,o),
(224,191,o),
(224,350,cs),
(224,509,o),
(292,562,o),
(364,562,cs),
(416,562,o),
(473,522,o),
(510,485,c),
(590,608,l),
(546,661,o),
(460,710,o),
(357,710,cs),
(156,710,o),
(36,581,o),
(36,350,cs),
(36,119,o),
(159,-10,o),
(366,-10,cs)
);
}
);
userData = {
com.hugojourdan.ColorFlow = {
"0" = 0;
"1" = 0;
"10" = 0;
"11" = 0;
"2" = 0;
"3" = 0;
"4" = 0;
"5" = 0;
"6" = 0;
"7" = 0;
"8" = 0;
"9" = 0;
};
};
width = 638;
}
);
metricLeft = "=O";
metricRight = "=|*0.83";
note = C;
unicode = 67;
},
{
glyphname = D;
layers = (
{
layerId = m01;
shapes = (
{
closed = 1;
nodes = (
(272,0,ls),
(475,0,o),
(580,119,o),
(580,350,cs),
(580,581,o),
(476,700,o),
(276,700,cs),
(102,700,l),
(102,0,l)
);
},
{
closed = 1;
nodes = (
(150,692,l),
(126,668,l),
(267,668,ls),
(440,668,o),
(527,562,o),
(527,350,cs),
(527,139,o),
(442,32,o),
(275,32,cs),
(126,32,l),
(150,8,l)
);
}
);
userData = {
com.hugojourdan.ColorFlow = {
"0" = 0;
"1" = 0;
"10" = 0;
"11" = 0;
"2" = 0;
"3" = 0;
"4" = 0;
"5" = 0;
"6" = 0;
"7" = 0;
"8" = 0;
"9" = 0;
};
};
width = 647;
},
{
layerId = "FF73925E-1E34-445B-881D-5A7CAAA8E8BE";
shapes = (
{
closed = 1;
nodes = (
(267,0,ls),
(503,0,o),
(620,116,o),
(620,350,cs),
(620,584,o),
(503,700,o),
(267,700,cs),
(51,700,l),
(51,0,l)
);
},
{
closed = 1;
nodes = (
(229,655,l),
(184,610,l),
(282,610,ls),
(382,610,o),
(432,524,o),
(432,350,cs),
(432,176,o),
(382,89,o),
(282,89,cs),
(184,89,l),
(229,44,l)
);
}
);
userData = {
com.hugojourdan.ColorFlow = {
"0" = 0;
"1" = 0;
"10" = 0;
"11" = 0;
"2" = 0;
"3" = 0;
"4" = 0;
"5" = 0;
"6" = 0;
"7" = 0;
"8" = 0;
"9" = 0;
};
};
width = 656;
},
{
layerId = "BF6BA5B2-0556-42F4-A103-614BEBF16A1A";
shapes = (
{
closed = 1;
nodes = (
(274,0,ls),
(469,0,o),
(603,142,o),
(603,350,cs),
(603,558,o),
(469,700,o),
(274,700,cs),
(88,700,l),
(88,0,l)
);
},
{
closed = 1;
nodes = (
(185,691,l),
(146,652,l),
(276,652,ls),
(409,652,o),
(498,531,o),
(498,350,cs),
(498,169,o),
(409,48,o),
(276,48,cs),
(146,48,l),
(185,9,l)
);
}
);
userData = {
com.hugojourdan.ColorFlow = {
"0" = 0;
"1" = 0;
"10" = 0;
"11" = 0;
"2" = 0;
"3" = 0;
"4" = 0;
"5" = 0;
"6" = 0;
"7" = 0;
"8" = 0;
"9" = 0;
};
};
width = 658;
},
{
layerId = m004;
shapes = (
{
closed = 1;
nodes = (
(305,0,ls),
(484,0,o),
(580,129,o),
(580,350,cs),
(580,571,o),
(484,700,o),
(309,700,cs),
(102,700,l),
(102,0,l)
);
},
{
closed = 1;
nodes = (
(150,682,l),
(126,658,l),
(300,658,ls),
(450,658,o),
(527,544,o),
(527,350,cs),
(527,156,o),
(450,42,o),
(308,42,cs),
(126,42,l),
(150,18,l)
);
}
);
userData = {
com.hugojourdan.ColorFlow = {
"0" = 0;
"1" = 0;
"10" = 0;
"11" = 0;
"2" = 0;
"3" = 0;
"4" = 0;
"5" = 0;
"6" = 0;
"7" = 0;
"8" = 0;
"9" = 0;
};
};
width = 647;
},
{
layerId = m005;
shapes = (
{
closed = 1;
nodes = (
(296,0,ls),
(499,0,o),
(603,124,o),
(603,350,cs),
(603,576,o),
(499,700,o),
(299,700,cs),
(88,700,l),
(88,0,l)
);
},
{
closed = 1;
nodes = (
(186,667,l),
(141,622,l),
(299,622,ls),
(431,622,o),
(498,524,o),
(498,350,cs),
(498,176,o),
(431,78,o),
(304,78,cs),
(141,78,l),
(186,33,l)
);
}
);
userData = {
com.hugojourdan.ColorFlow = {
"0" = 0;
"1" = 0;
"10" = 0;
"11" = 0;
"2" = 0;
"3" = 0;
"4" = 0;
"5" = 0;
"6" = 0;
"7" = 0;
"8" = 0;
"9" = 0;
};
};
width = 658;
},
{
layerId = m006;
shapes = (
{
closed = 1;
nodes = (
(267,0,ls),
(503,0,o),
(620,116,o),
(620,350,cs),
(620,584,o),
(503,700,o),
(267,700,cs),
(51,700,l),
(51,0,l)
);
},
{
closed = 1;
nodes = (
(229,609,l),
(184,564,l),
(282,564,ls),
(382,564,o),
(432,493,o),
(432,350,cs),
(432,207,o),
(382,136,o),
(282,136,cs),
(184,136,l),
(229,91,l)
);
}
);
userData = {
com.hugojourdan.ColorFlow = {
"0" = 0;
"1" = 0;
"10" = 0;
"11" = 0;
"2" = 0;
"3" = 0;
"4" = 0;
"5" = 0;
"6" = 0;
"7" = 0;
"8" = 0;
"9" = 0;
};
};
width = 656;
}
);
metricLeft = "=H";
metricRight = "=O";
note = D;
unicode = 68;
},
{
glyphname = E;
layers = (
{
anchors = (
{
name = top;
pos = (286,700);
}
);
layerId = m01;
shapes = (
{
closed = 1;
nodes = (
(483,0,l),
(483,32,l),
(126,32,l),
(150,8,l),
(150,692,l),
(126,668,l),
(470,668,l),
(470,700,l),
(102,700,l),
(102,0,l)
);
},
{
closed = 1;
nodes = (
(450,348,l),
(450,378,l),
(126,378,l),
(126,348,l)
);
}
);
userData = {
com.hugojourdan.ColorFlow = {
"0" = 0;
"1" = 0;
"10" = 0;
"11" = 0;
"2" = 0;
"3" = 0;
"4" = 0;
"5" = 0;
"6" = 0;
"7" = 0;
"8" = 0;
"9" = 0;
};
};
width = 529;
},
{
anchors = (
{
name = top;
pos = (267,700);
}
);
layerId = "FF73925E-1E34-445B-881D-5A7CAAA8E8BE";
shapes = (
{
closed = 1;
nodes = (
(492,0,l),
(492,90,l),
(184,90,l),
(229,45,l),
(229,655,l),
(184,610,l),
(482,610,l),
(482,700,l),
(51,700,l),
(51,0,l)
);
},
{
closed = 1;
nodes = (
(459,323,l),
(459,403,l),
(140,403,l),
(140,323,l)
);
}
);
userData = {
com.hugojourdan.ColorFlow = {
"0" = 0;
"1" = 0;
"10" = 0;
"11" = 0;
"2" = 0;
"3" = 0;
"4" = 0;
"5" = 0;
"6" = 0;
"7" = 0;
"8" = 0;
"9" = 0;
};
};
width = 515;
},
{
anchors = (
{
name = top;
pos = (284,700);
}
);
layerId = "BF6BA5B2-0556-42F4-A103-614BEBF16A1A";
shapes = (
{
closed = 1;
nodes = (
(491,0,l),
(491,52,l),
(146,52,l),
(185,13,l),
(185,687,l),
(146,648,l),
(479,648,l),
(479,700,l),
(88,700,l),
(88,0,l)
);
},
{
closed = 1;
nodes = (
(458,339,l),
(458,387,l),
(136,387,l),
(136,339,l)
);
}
);
userData = {
com.hugojourdan.ColorFlow = {
"0" = 0;
"1" = 0;
"10" = 0;
"11" = 0;
"2" = 0;
"3" = 0;
"4" = 0;
"5" = 0;
"6" = 0;
"7" = 0;
"8" = 0;
"9" = 0;
};
};
width = 531;
},
{
anchors = (
{
name = top;
pos = (286,700);
}
);
layerId = m004;
shapes = (
{
closed = 1;
nodes = (
(483,0,l),
(483,43,l),
(126,43,l),
(150,19,l),
(150,681,l),
(126,657,l),
(470,657,l),
(470,700,l),
(102,700,l),
(102,0,l)
);
},
{
closed = 1;
nodes = (
(450,342,l),
(450,384,l),
(126,384,l),
(126,342,l)
);
}
);
userData = {
com.hugojourdan.ColorFlow = {
"0" = 0;
"1" = 0;
"10" = 0;
"11" = 0;
"2" = 0;
"3" = 0;
"4" = 0;
"5" = 0;
"6" = 0;
"7" = 0;
"8" = 0;
"9" = 0;
};
};
width = 529;
},
{
anchors = (
{
name = top;
pos = (286,700);
}
);
layerId = m005;
shapes = (
{
closed = 1;
nodes = (
(496,0,l),
(496,77,l),
(146,77,l),
(186,38,l),
(186,662,l),
(146,623,l),
(484,623,l),
(484,700,l),
(88,700,l),
(88,0,l)
);
},
{
closed = 1;
nodes = (
(461,326,l),
(461,400,l),
(136,400,l),
(136,326,l)
);
}
);
userData = {
com.hugojourdan.ColorFlow = {
"0" = 0;
"1" = 0;
"10" = 0;
"11" = 0;
"2" = 0;
"3" = 0;
"4" = 0;
"5" = 0;
"6" = 0;
"7" = 0;
"8" = 0;
"9" = 0;
};
};
width = 536;
},
{
anchors = (
{
name = top;
pos = (267,700);
}
);
background = {
anchors = (
{
name = top;
pos = (267,700);
}
);
};
layerId = m006;
shapes = (
{
closed = 1;
nodes = (
(502,0,l),
(502,136,l),
(184,136,l),
(229,91,l),
(229,609,l),
(184,564,l),
(492,564,l),
(492,700,l),
(51,700,l),
(51,0,l)
);
},
{
closed = 1;
nodes = (
(469,298,l),
(469,428,l),
(140,428,l),
(140,298,l)
);
}
);
userData = {
com.hugojourdan.ColorFlow = {
"0" = 0;
"1" = 0;
"10" = 0;
"11" = 0;
"2" = 0;
"3" = 0;
"4" = 0;
"5" = 0;
"6" = 0;
"7" = 0;
"8" = 0;
"9" = 0;
};
};
width = 525;
}
);
metricLeft = "=H";
metricRight = "=H*0.45";
note = E;
unicode = 69;
},
{
glyphname = F;
layers = (
{
layerId = m01;
shapes = (
{
closed = 1;
nodes = (
(150,0,l),
(150,692,l),
(126,668,l),
(483,668,l),
(483,700,l),
(102,700,l),
(102,0,l)
);
},
{
closed = 1;
nodes = (
(446,343,l),
(446,373,l),
(126,373,l),
(126,343,l)
);
}
);
userData = {
com.hugojourdan.ColorFlow = {
"0" = 0;
"1" = 0;
"10" = 0;
"11" = 0;
"2" = 0;
"3" = 0;
"4" = 0;
"5" = 0;
"6" = 0;
"7" = 0;
"8" = 0;
"9" = 0;
};
};
width = 529;
},
{
layerId = "FF73925E-1E34-445B-881D-5A7CAAA8E8BE";
shapes = (
{
closed = 1;
nodes = (
(229,0,l),
(229,655,l),
(184,610,l),
(498,610,l),
(498,700,l),
(51,700,l),
(51,0,l)
);
},
{
closed = 1;
nodes = (
(454,325,l),
(454,405,l),
(140,405,l),
(140,325,l)
);
}
);
userData = {
com.hugojourdan.ColorFlow = {
"0" = 0;
"1" = 0;
"10" = 0;
"11" = 0;
"2" = 0;
"3" = 0;
"4" = 0;
"5" = 0;
"6" = 0;
"7" = 0;
"8" = 0;
"9" = 0;
};
};
width = 521;
},
{
layerId = "BF6BA5B2-0556-42F4-A103-614BEBF16A1A";
shapes = (
{
closed = 1;
nodes = (
(186,0,l),
(186,687,l),
(147,648,l),
(495,648,l),
(495,700,l),
(88,700,l),
(88,0,l)
);
},
{
closed = 1;
nodes = (
(456,337,l),
(456,385,l),
(136,385,l),
(136,337,l)
);
}
);
userData = {
com.hugojourdan.ColorFlow = {
"0" = 0;
"1" = 0;
"10" = 0;
"11" = 0;
"2" = 0;
"3" = 0;
"4" = 0;
"5" = 0;
"6" = 0;
"7" = 0;
"8" = 0;
"9" = 0;
};
};
width = 535;
},
{
layerId = m004;
shapes = (
{
closed = 1;
nodes = (
(150,0,l),
(150,681,l),
(126,657,l),
(483,657,l),
(483,700,l),
(102,700,l),
(102,0,l)
);
},
{
closed = 1;
nodes = (
(446,337,l),
(446,379,l),
(126,379,l),
(126,337,l)
);
}
);
userData = {
com.hugojourdan.ColorFlow = {
"0" = 0;
"1" = 0;
"10" = 0;
"11" = 0;
"2" = 0;
"3" = 0;
"4" = 0;
"5" = 0;
"6" = 0;
"7" = 0;
"8" = 0;
"9" = 0;
};
};
width = 529;
},
{
layerId = m005;
shapes = (
{
closed = 1;
nodes = (
(186,0,l),
(186,662,l),
(147,623,l),
(495,623,l),
(495,700,l),
(88,700,l),
(88,0,l)
);
},
{
closed = 1;
nodes = (
(455,322,l),
(455,399,l),
(136,399,l),
(136,322,l)
);
}
);
userData = {
com.hugojourdan.ColorFlow = {
"0" = 0;
"1" = 0;
"10" = 0;
"11" = 0;
"2" = 0;
"3" = 0;
"4" = 0;
"5" = 0;
"6" = 0;
"7" = 0;
"8" = 0;
"9" = 0;
};
};
width = 535;
},
{
layerId = m006;
shapes = (
{
closed = 1;
nodes = (
(229,0,l),
(229,609,l),
(184,564,l),
(498,564,l),
(498,700,l),
(51,700,l),
(51,0,l)
);
},
{
closed = 1;
nodes = (
(454,297,l),
(454,433,l),
(140,433,l),
(140,297,l)
);
}
);
userData = {
com.hugojourdan.ColorFlow = {
"0" = 0;
"1" = 0;
"10" = 0;
"11" = 0;
"2" = 0;
"3" = 0;
"4" = 0;
"5" = 0;
"6" = 0;
"7" = 0;
"8" = 0;
"9" = 0;
};
};
width = 521;
}
);
metricLeft = "=H";
metricRight = "=H*0.45";
note = F;
unicode = 70;
},
{
glyphname = G;
layers = (
{
layerId = m01;
shapes = (
{
closed = 1;
nodes = (
(448,-10,o),
(525,45,o),
(542,138,c),
(526,138,l),
(526,0,l),
(563,0,l),
(563,344,l),
(348,344,l),
(348,312,l),
(514,308,l),
(515,187,ls),
(516,84,o),
(452,22,o),
(345,22,cs),
(201,22,o),
(120,141,o),
(120,350,cs),
(120,558,o),
(201,678,o),
(341,678,cs),
(413,678,o),
(478,648,o),
(507,602,c),
(540,637,l),
(493,684,o),
(422,710,o),
(342,710,cs),
(167,710,o),
(67,579,o),
(67,350,cs),
(67,123,o),
(166,-10,o),
(335,-10,cs)
);
}
);
userData = {
com.hugojourdan.ColorFlow = {
"0" = 0;
"1" = 0;
"10" = 0;
"11" = 0;
"2" = 0;
"3" = 0;
"4" = 0;
"5" = 0;
"6" = 0;
"7" = 0;
"8" = 0;
"9" = 0;
};
};
width = 665;
},
{
background = {
shapes = (
{
pos = (1,0);
ref = O;
}
);
};
layerId = "FF73925E-1E34-445B-881D-5A7CAAA8E8BE";
shapes = (
{
closed = 1;
nodes = (
(445,-10,o),
(518,51,o),
(530,160,c),
(522,160,l),
(522,0,l),
(615,0,l),
(615,365,l),
(312,365,l),
(312,299,l),
(448,298,l),
(448,196,ls),
(448,118,o),
(416,80,o),
(360,80,cs),
(273,80,o),
(224,179,o),
(224,355,cs),
(224,522,o),
(269,616,o),
(350,616,cs),
(400,616,o),
(441,571,o),
(465,491,c),
(610,542,l),
(571,650,o),
(480,710,o),
(354,710,cs),
(150,710,o),
(36,580,o),
(36,348,cs),
(36,118,o),
(141,-10,o),
(328,-10,cs)
);
}
);
userData = {
com.hugojourdan.ColorFlow = {
"0" = 0;
"1" = 0;
"10" = 0;
"11" = 0;
"2" = 0;
"3" = 0;
"4" = 0;
"5" = 0;
"6" = 0;
"7" = 0;
"8" = 0;
"9" = 0;
};
};
width = 666;
},
{
layerId = "BF6BA5B2-0556-42F4-A103-614BEBF16A1A";
shapes = (
{
closed = 1;
nodes = (
(447,-10,o),
(517,39,o),
(540,131,c),
(536,131,l),
(536,0,l),
(595,0,l),
(595,352,l),
(330,352,l),
(330,307,l),
(502,302,l),
(502,208,ls),
(502,105,o),
(447,42,o),
(358,42,cs),
(229,42,o),
(160,149,o),
(160,347,cs),
(160,541,o),
(229,658,o),
(342,658,cs),
(411,658,o),
(473,616,o),
(495,555,c),
(575,591,l),
(542,661,o),
(446,710,o),
(341,710,cs),
(166,710,o),
(55,570,o),
(55,345,cs),
(55,128,o),
(169,-10,o),
(345,-10,cs)
);
}
);
userData = {
com.hugojourdan.ColorFlow = {
"0" = 0;
"1" = 0;
"10" = 0;
"11" = 0;
"2" = 0;
"3" = 0;
"4" = 0;
"5" = 0;
"6" = 0;
"7" = 0;
"8" = 0;
"9" = 0;
};
};
width = 683;
},
{
layerId = m004;
shapes = (
{
closed = 1;
nodes = (
(448,-10,o),
(525,45,o),
(542,138,c),
(526,138,l),
(526,0,l),
(563,0,l),
(563,346,l),
(348,346,l),
(348,306,l),
(514,306,l),
(515,192,ls),
(516,92,o),
(452,32,o),
(345,32,cs),
(201,32,o),
(120,147,o),
(120,350,cs),
(120,552,o),
(201,668,o),
(341,668,cs),
(413,668,o),
(478,639,o),
(507,602,c),
(540,637,l),
(493,684,o),
(422,710,o),
(342,710,cs),
(167,710,o),
(67,579,o),
(67,350,cs),
(67,123,o),
(166,-10,o),
(335,-10,cs)
);
}
);
userData = {
com.hugojourdan.ColorFlow = {
"0" = 0;
"1" = 0;
"10" = 0;
"11" = 0;
"2" = 0;
"3" = 0;
"4" = 0;
"5" = 0;
"6" = 0;
"7" = 0;
"8" = 0;
"9" = 0;
};
};
width = 665;
},
{
layerId = m005;
shapes = (
{
closed = 1;
nodes = (
(451,-10,o),
(534,57,o),
(549,166,c),
(526,166,l),
(526,0,l),
(595,0,l),
(595,370,l),
(342,370,l),
(342,299,l),
(500,299,l),
(501,228,ls),
(502,131,o),
(441,75,o),
(354,75,cs),
(239,75,o),
(161,171,o),
(161,350,cs),
(161,535,o),
(242,627,o),
(360,627,cs),
(428,627,o),
(493,594,o),
(527,557,c),
(578,626,l),
(531,675,o),
(451,710,o),
(358,710,cs),
(167,710,o),
(55,580,o),
(55,350,cs),
(55,125,o),
(160,-10,o),
(330,-10,cs)
);
}
);
userData = {
com.hugojourdan.ColorFlow = {
"0" = 0;
"1" = 0;
"10" = 0;
"11" = 0;
"2" = 0;
"3" = 0;
"4" = 0;
"5" = 0;
"6" = 0;
"7" = 0;
"8" = 0;
"9" = 0;
};
};
width = 683;
},
{
background = {
shapes = (
{
pos = (1,0);
ref = C;
}
);
};
guides = (
{
angle = 90;
pos = (631,549);
}
);
layerId = m006;
shapes = (
{
closed = 1;
nodes = (
(431,-10,o),
(518,75,o),
(530,210,c),
(496,210,l),
(496,0,l),
(615,0,l),
(615,409,l),
(327,409,l),
(327,289,l),
(448,289,l),
(448,284,ls),
(448,192,o),
(401,143,o),
(351,143,cs),
(290,143,o),
(224,208,o),
(224,350,cs),
(224,509,o),
(296,562,o),
(373,562,cs),
(428,562,o),
(489,522,o),
(528,485,c),
(608,608,l),
(562,661,o),
(473,710,o),
(366,710,cs),
(159,710,o),
(36,581,o),
(36,350,cs),
(36,129,o),
(139,-10,o),
(303,-10,cs)
);
}
);
userData = {
com.hugojourdan.ColorFlow = {
"0" = 0;
"1" = 0;
"10" = 0;
"11" = 0;
"2" = 0;
"3" = 0;
"4" = 0;
"5" = 0;
"6" = 0;
"7" = 0;
"8" = 0;
"9" = 0;
};
};
width = 666;
}
);
metricLeft = "=O";
metricRight = "=H";
note = G;
unicode = 71;
},
{
glyphname = H;
layers = (
{
layerId = m01;
metricLeft = "=n*1.34";
shapes = (
{
closed = 1;
nodes = (
(585,0,l),
(585,700,l),
(537,700,l),
(537,0,l)
);
},
{
closed = 1;
nodes = (
(150,0,l),
(150,700,l),
(102,700,l),
(102,0,l)
);
},
{
closed = 1;
nodes = (
(545,340,l),
(545,372,l),
(142,372,l),
(142,340,l)
);
}
);
userData = {
com.hugojourdan.ColorFlow = {
"0" = 0;
"1" = 0;
"10" = 0;
"11" = 0;
"2" = 0;
"3" = 0;
"4" = 0;
"5" = 0;
"6" = 0;
"7" = 0;
"8" = 0;
"9" = 0;
};
};
width = 687;
},
{
layerId = "FF73925E-1E34-445B-881D-5A7CAAA8E8BE";
metricLeft = "=n*1.34";
shapes = (
{
closed = 1;
nodes = (
(625,0,l),
(625,700,l),
(447,700,l),
(447,0,l)
);
},
{
closed = 1;
nodes = (
(229,0,l),
(229,700,l),
(51,700,l),
(51,0,l)
);
},
{
closed = 1;
nodes = (
(463,310,l),
(463,400,l),
(213,400,l),
(213,310,l)
);
}
);
userData = {
com.hugojourdan.ColorFlow = {
"0" = 0;
"1" = 0;
"10" = 0;
"11" = 0;
"2" = 0;
"3" = 0;
"4" = 0;
"5" = 0;
"6" = 0;
"7" = 0;
"8" = 0;
"9" = 0;
};
};
width = 676;
},
{
layerId = "BF6BA5B2-0556-42F4-A103-614BEBF16A1A";
metricLeft = "=n*1.34";
shapes = (
{
closed = 1;
nodes = (
(606,0,l),
(606,700,l),
(508,700,l),
(508,0,l)
);
},
{
closed = 1;
nodes = (
(186,0,l),
(186,700,l),
(88,700,l),
(88,0,l)
);
},
{
closed = 1;
nodes = (
(522,329,l),
(522,381,l),
(172,381,l),
(172,329,l)
);
}
);
userData = {
com.hugojourdan.ColorFlow = {
"0" = 0;
"1" = 0;
"10" = 0;
"11" = 0;
"2" = 0;
"3" = 0;
"4" = 0;
"5" = 0;
"6" = 0;
"7" = 0;
"8" = 0;
"9" = 0;
};
};
width = 694;
},
{
layerId = m004;
metricLeft = "=n*1.19";
shapes = (
{
closed = 1;
nodes = (
(585,0,l),
(585,700,l),
(537,700,l),
(537,0,l)
);
},
{
closed = 1;
nodes = (
(150,0,l),
(150,700,l),
(102,700,l),
(102,0,l)
);
},
{
closed = 1;
nodes = (
(565,334,l),
(565,377,l),
(122,377,l),
(122,334,l)
);
}
);
userData = {
com.hugojourdan.ColorFlow = {
"0" = 0;
"1" = 0;
"10" = 0;
"11" = 0;
"2" = 0;
"3" = 0;
"4" = 0;
"5" = 0;
"6" = 0;
"7" = 0;
"8" = 0;
"9" = 0;
};
};
width = 687;
},
{
layerId = m005;
metricLeft = "=n*1.16";
shapes = (
{
closed = 1;
nodes = (
(606,0,l),
(606,700,l),
(508,700,l),
(508,0,l)
);
},
{
closed = 1;
nodes = (
(186,0,l),
(186,700,l),
(88,700,l),
(88,0,l)
);
},
{
closed = 1;
nodes = (
(519,316,l),
(519,396,l),
(175,396,l),
(175,316,l)
);
}
);
userData = {
com.hugojourdan.ColorFlow = {
"0" = 0;
"1" = 0;
"10" = 0;
"11" = 0;
"2" = 0;
"3" = 0;
"4" = 0;
"5" = 0;
"6" = 0;
"7" = 0;
"8" = 0;
"9" = 0;
};
};
width = 694;
},
{
layerId = m006;
metricLeft = "=n*1.07";
shapes = (
{
closed = 1;
nodes = (
(625,0,l),
(625,700,l),
(447,700,l),
(447,0,l)
);
},
{
closed = 1;
nodes = (
(229,0,l),
(229,700,l),
(51,700,l),
(51,0,l)
);
},
{
closed = 1;
nodes = (
(463,285,l),
(463,425,l),
(213,425,l),
(213,285,l)
);
}
);
userData = {
com.hugojourdan.ColorFlow = {
"0" = 0;
"1" = 0;
"10" = 0;
"11" = 0;
"2" = 0;
"3" = 0;
"4" = 0;
"5" = 0;
"6" = 0;
"7" = 0;
"8" = 0;
"9" = 0;
};
};
width = 676;
}
);
metricLeft = "=n+10*1.24";
metricRight = "=|";
note = H;
unicode = 72;
},
{
glyphname = I;
layers = (
{
anchors = (
{
name = top;
pos = (126,700);
}
);
layerId = m01;
shapes = (
{
closed = 1;
nodes = (
(150,0,l),
(150,700,l),
(102,700,l),
(102,0,l)
);
}
);
userData = {
com.hugojourdan.ColorFlow = {
"0" = 0;
"1" = 0;
"10" = 0;
"11" = 0;
"2" = 0;
"3" = 0;
"4" = 0;
"5" = 0;
"6" = 0;
"7" = 0;
"8" = 0;
"9" = 0;
};
};
width = 252;
},
{
anchors = (
{
name = top;
pos = (140,700);
}
);
layerId = "FF73925E-1E34-445B-881D-5A7CAAA8E8BE";
shapes = (
{
closed = 1;
nodes = (
(229,0,l),
(229,700,l),
(51,700,l),
(51,0,l)
);
}
);
userData = {
com.hugojourdan.ColorFlow = {
"0" = 0;
"1" = 0;
"10" = 0;
"11" = 0;
"2" = 0;
"3" = 0;
"4" = 0;
"5" = 0;
"6" = 0;
"7" = 0;
"8" = 0;
"9" = 0;
};
};
width = 280;
},
{
anchors = (
{
name = top;
pos = (137,700);
}
);
layerId = "BF6BA5B2-0556-42F4-A103-614BEBF16A1A";
shapes = (
{
closed = 1;
nodes = (
(186,0,l),
(186,700,l),
(88,700,l),
(88,0,l)
);
}
);
userData = {
com.hugojourdan.ColorFlow = {
"0" = 0;
"1" = 0;
"10" = 0;
"11" = 0;
"2" = 0;
"3" = 0;
"4" = 0;
"5" = 0;
"6" = 0;
"7" = 0;
"8" = 0;
"9" = 0;
};
};
width = 274;
},
{
anchors = (
{
name = top;
pos = (126,700);
}
);
layerId = m004;
shapes = (
{
closed = 1;
nodes = (
(150,0,l),
(150,700,l),
(102,700,l),
(102,0,l)
);
}
);
userData = {
com.hugojourdan.ColorFlow = {
"0" = 0;
"1" = 0;
"10" = 0;
"11" = 0;
"2" = 0;
"3" = 0;
"4" = 0;
"5" = 0;
"6" = 0;
"7" = 0;
"8" = 0;
"9" = 0;
};
};
width = 252;
},
{
anchors = (
{
name = top;
pos = (137,700);
}
);
layerId = m005;
shapes = (
{
closed = 1;
nodes = (
(186,0,l),
(186,700,l),
(88,700,l),
(88,0,l)
);
}
);
userData = {
com.hugojourdan.ColorFlow = {
"0" = 0;
"1" = 0;
"10" = 0;
"11" = 0;
"2" = 0;
"3" = 0;
"4" = 0;
"5" = 0;
"6" = 0;
"7" = 0;
"8" = 0;
"9" = 0;
};
};
width = 274;
},
{
anchors = (
{
name = top;
pos = (140,700);
}
);
layerId = m006;
shapes = (
{
closed = 1;
nodes = (
(229,0,l),
(229,700,l),
(51,700,l),
(51,0,l)
);
}
);
userData = {
com.hugojourdan.ColorFlow = {
"0" = 0;
"1" = 0;
"10" = 0;
"11" = 0;
"2" = 0;
"3" = 0;
"4" = 0;
"5" = 0;
"6" = 0;
"7" = 0;
"8" = 0;
"9" = 0;
};
};
width = 280;
}
);
metricLeft = "=H";
metricRight = "=|";
note = I;
unicode = 73;
},
{
glyphname = J;
layers = (
{
layerId = m01;
shapes = (
{
closed = 1;
nodes = (
(368,-10,o),
(456,55,o),
(456,177,cs),
(456,700,l),
(408,700,l),
(408,170,ls),
(408,78,o),
(343,24,o),
(270,24,cs),
(217,24,o),
(158,53,o),
(119,118,c),
(90,81,l),
(139,20,o),
(207,-10,o),
(272,-10,cs)
);
}
);
userData = {
com.hugojourdan.ColorFlow = {
"0" = 0;
"1" = 0;
"10" = 0;
"11" = 0;
"2" = 0;
"3" = 0;
"4" = 0;
"5" = 0;
"6" = 0;
"7" = 0;
"8" = 0;
"9" = 0;
};
};
width = 546;
},
{
layerId = "FF73925E-1E34-445B-881D-5A7CAAA8E8BE";
shapes = (
{
closed = 1;
nodes = (
(471,-10,o),
(561,79,o),
(561,239,cs),
(561,700,l),
(386,700,l),
(386,235,ls),
(386,136,o),
(358,80,o),
(308,80,cs),
(260,80,o),
(212,134,o),
(174,211,c),
(45,121,l),
(98,37,o),
(192,-10,o),
(309,-10,cs)
);
}
);
userData = {
com.hugojourdan.ColorFlow = {
"0" = 0;
"1" = 0;
"10" = 0;
"11" = 0;
"2" = 0;
"3" = 0;
"4" = 0;
"5" = 0;
"6" = 0;
"7" = 0;
"8" = 0;
"9" = 0;
};
};
width = 606;
},
{
layerId = "BF6BA5B2-0556-42F4-A103-614BEBF16A1A";
shapes = (
{
closed = 1;
nodes = (
(396,-10,o),
(462,59,o),
(462,183,cs),
(462,700,l),
(365,700,l),
(365,177,ls),
(365,90,o),
(334,41,o),
(278,41,cs),
(220,41,o),
(177,78,o),
(159,145,c),
(77,114,l),
(106,34,o),
(178,-10,o),
(278,-10,cs)
);
}
);
userData = {
com.hugojourdan.ColorFlow = {
"0" = 0;
"1" = 0;
"10" = 0;
"11" = 0;
"2" = 0;
"3" = 0;
"4" = 0;
"5" = 0;
"6" = 0;
"7" = 0;
"8" = 0;
"9" = 0;
};
};
width = 539;
},
{
layerId = m004;
shapes = (
{
closed = 1;
nodes = (
(380,-10,o),
(456,67,o),
(456,177,cs),
(456,700,l),
(408,700,l),
(408,170,ls),
(408,91,o),
(352,34,o),
(274,34,cs),
(219,34,o),
(161,61,o),
(123,104,c),
(90,69,l),
(145,18,o),
(209,-10,o),
(273,-10,cs)
);
}
);
userData = {
com.hugojourdan.ColorFlow = {
"0" = 0;
"1" = 0;
"10" = 0;
"11" = 0;
"2" = 0;
"3" = 0;
"4" = 0;
"5" = 0;
"6" = 0;
"7" = 0;
"8" = 0;
"9" = 0;
};
};
width = 546;
},
{
layerId = m005;
shapes = (
{
closed = 1;
nodes = (
(420,-10,o),
(502,71,o),
(502,202,cs),
(502,700,l),
(404,700,l),
(404,195,ls),
(404,122,o),
(360,74,o),
(291,74,cs),
(239,74,o),
(174,102,o),
(132,143,c),
(77,78,l),
(131,23,o),
(211,-10,o),
(289,-10,cs)
);
}
);
userData = {
com.hugojourdan.ColorFlow = {
"0" = 0;
"1" = 0;
"10" = 0;
"11" = 0;
"2" = 0;
"3" = 0;
"4" = 0;
"5" = 0;
"6" = 0;
"7" = 0;
"8" = 0;
"9" = 0;
};
};
width = 579;
},
{
layerId = m006;
shapes = (
{
closed = 1;
nodes = (
(478,-10,o),
(561,71,o),
(561,234,cs),
(561,700,l),
(383,700,l),
(383,235,ls),
(383,169,o),
(357,138,o),
(300,138,cs),
(244,138,o),
(180,168,o),
(125,221,c),
(45,98,l),
(107,28,o),
(202,-10,o),
(313,-10,cs)
);
}
);
userData = {
com.hugojourdan.ColorFlow = {
"0" = 0;
"1" = 0;
"10" = 0;
"11" = 0;
"2" = 0;
"3" = 0;
"4" = 0;
"5" = 0;
"6" = 0;
"7" = 0;
"8" = 0;
"9" = 0;
};
};
width = 606;
}
);
metricLeft = "=|";
metricRight = "=U";
note = J;
unicode = 74;
},
{
glyphname = K;
layers = (
{
layerId = m01;
shapes = (
{
closed = 1;
nodes = (
(276,334,l),
(564,700,l),
(518,700,l),
(264,379,l),
(142,360,l),
(158,334,l)
);
},
{
closed = 1;
nodes = (
(162,0,l),
(162,700,l),
(114,700,l),
(114,0,l)
);
},
{
closed = 1;
nodes = (
(589,0,l),
(291,376,l),
(238,367,l),
(523,0,l)
);
}
);
userData = {
com.hugojourdan.ColorFlow = {
"0" = 0;
"1" = 0;
"10" = 0;
"11" = 0;
"2" = 0;
"3" = 0;
"4" = 0;
"5" = 0;
"6" = 0;
"7" = 0;
"8" = 0;
"9" = 0;
};
};
width = 597;
},
{
layerId = "FF73925E-1E34-445B-881D-5A7CAAA8E8BE";
shapes = (
{
closed = 1;
nodes = (
(389,322,l),
(658,700,l),
(548,700,l),
(346,417,l),
(245,404,l),
(245,322,l)
);
},
{
closed = 1;
nodes = (
(261,0,l),
(261,700,l),
(83,700,l),
(83,0,l)
);
},
{
closed = 1;
nodes = (
(678,0,l),
(439,418,l),
(291,365,l),
(481,0,l)
);
}
);
userData = {
com.hugojourdan.ColorFlow = {
"0" = 0;
"1" = 0;
"10" = 0;
"11" = 0;
"2" = 0;
"3" = 0;
"4" = 0;
"5" = 0;
"6" = 0;
"7" = 0;
"8" = 0;
"9" = 0;
};
};
width = 680;
},
{
layerId = "BF6BA5B2-0556-42F4-A103-614BEBF16A1A";
shapes = (
{
closed = 1;
nodes = (
(313,324,l),
(600,700,l),
(529,700,l),
(295,392,l),
(180,374,l),
(196,324,l)
);
},
{
closed = 1;
nodes = (
(200,0,l),
(200,700,l),
(103,700,l),
(103,0,l)
);
},
{
closed = 1;
nodes = (
(623,0,l),
(348,394,l),
(257,367,l),
(507,0,l)
);
}
);
userData = {
com.hugojourdan.ColorFlow = {
"0" = 0;
"1" = 0;
"10" = 0;
"11" = 0;
"2" = 0;
"3" = 0;
"4" = 0;
"5" = 0;
"6" = 0;
"7" = 0;
"8" = 0;
"9" = 0;
};
};
width = 629;
},
{
layerId = m004;
shapes = (
{
closed = 1;
nodes = (
(152,227,l),
(577,700,l),
(517,700,l),
(152,290,l),
(129,290,l),
(129,227,l)
);
},
{
closed = 1;
nodes = (
(162,0,l),
(162,700,l),
(114,700,l),
(114,0,l)
);
},
{
closed = 1;
nodes = (
(615,0,l),
(306,418,l),
(274,382,l),
(558,0,l)
);
}
);
userData = {
com.hugojourdan.ColorFlow = {
"0" = 0;
"1" = 0;
"10" = 0;
"11" = 0;
"2" = 0;
"3" = 0;
"4" = 0;
"5" = 0;
"6" = 0;
"7" = 0;
"8" = 0;
"9" = 0;
};
};
width = 597;
},
{
layerId = m005;
shapes = (
{
closed = 1;
nodes = (
(157,167,l),
(616,700,l),
(510,700,l),
(132,259,l),
(114,259,l),
(114,167,l)
);
},
{
closed = 1;
nodes = (
(200,0,l),
(200,700,l),
(102,700,l),
(102,0,l)
);
},
{
closed = 1;
nodes = (
(639,0,l),
(349,412,l),
(275,365,l),
(528,0,l)
);
}
);
userData = {
com.hugojourdan.ColorFlow = {
"0" = 0;
"1" = 0;
"10" = 0;
"11" = 0;
"2" = 0;
"3" = 0;
"4" = 0;
"5" = 0;
"6" = 0;
"7" = 0;
"8" = 0;
"9" = 0;
};
};
width = 629;
},
{
layerId = m006;
shapes = (
{
closed = 1;
nodes = (
(165,73,l),
(678,700,l),
(498,700,l),
(101,209,l),
(90,209,l),
(90,73,l)
);
},
{
closed = 1;
nodes = (
(261,0,l),
(261,700,l),
(83,700,l),
(83,0,l)
);
},
{
closed = 1;
nodes = (
(678,0,l),
(417,403,l),
(277,338,l),
(481,0,l)
);
}
);
userData = {
com.hugojourdan.ColorFlow = {
"0" = 0;
"1" = 0;
"10" = 0;
"11" = 0;
"2" = 0;
"3" = 0;
"4" = 0;
"5" = 0;
"6" = 0;
"7" = 0;
"8" = 0;
"9" = 0;
};
};
width = 680;
}
);
note = K;
unicode = 75;
},
{
glyphname = L;
layers = (
{
layerId = m01;
shapes = (
{
closed = 1;
nodes = (
(474,0,l),
(474,32,l),
(150,32,l),
(150,700,l),
(102,700,l),
(102,0,l)
);
}
);
userData = {
com.hugojourdan.ColorFlow = {
"0" = 0;
"1" = 0;
"10" = 0;
"11" = 0;
"2" = 0;
"3" = 0;
"4" = 0;
"5" = 0;
"6" = 0;
"7" = 0;
"8" = 0;
"9" = 0;
};
};
width = 543;
},
{
layerId = "FF73925E-1E34-445B-881D-5A7CAAA8E8BE";
shapes = (
{
closed = 1;
nodes = (
(487,0,l),
(487,90,l),
(229,90,l),
(229,700,l),
(51,700,l),
(51,0,l)
);
}
);
userData = {
com.hugojourdan.ColorFlow = {
"0" = 0;
"1" = 0;
"10" = 0;
"11" = 0;
"2" = 0;
"3" = 0;
"4" = 0;
"5" = 0;
"6" = 0;
"7" = 0;
"8" = 0;
"9" = 0;
};
};
width = 522;
},
{
layerId = "BF6BA5B2-0556-42F4-A103-614BEBF16A1A";
shapes = (
{
closed = 1;
nodes = (
(484,0,l),
(484,52,l),
(185,52,l),
(185,700,l),
(88,700,l),
(88,0,l)
);
}
);
userData = {
com.hugojourdan.ColorFlow = {
"0" = 0;
"1" = 0;
"10" = 0;
"11" = 0;
"2" = 0;
"3" = 0;
"4" = 0;
"5" = 0;
"6" = 0;
"7" = 0;
"8" = 0;
"9" = 0;
};
};
width = 544;
},
{
layerId = m004;
shapes = (
{
closed = 1;
nodes = (
(474,0,l),
(474,43,l),
(150,43,l),
(150,700,l),
(102,700,l),
(102,0,l)
);
}
);
userData = {
com.hugojourdan.ColorFlow = {
"0" = 0;
"1" = 0;
"10" = 0;
"11" = 0;
"2" = 0;
"3" = 0;
"4" = 0;
"5" = 0;
"6" = 0;
"7" = 0;
"8" = 0;
"9" = 0;
};
};
width = 543;
},
{
layerId = m005;
shapes = (
{
closed = 1;
nodes = (
(485,0,l),
(485,80,l),
(186,80,l),
(186,700,l),
(88,700,l),
(88,0,l)
);
}
);
userData = {
com.hugojourdan.ColorFlow = {
"0" = 0;
"1" = 0;
"10" = 0;
"11" = 0;
"2" = 0;
"3" = 0;
"4" = 0;
"5" = 0;
"6" = 0;
"7" = 0;
"8" = 0;
"9" = 0;
};
};
width = 545;
},
{
layerId = m006;
shapes = (
{
closed = 1;
nodes = (
(487,0,l),
(487,140,l),
(229,140,l),
(229,700,l),
(51,700,l),
(51,0,l)
);
}
);
userData = {
com.hugojourdan.ColorFlow = {
"0" = 0;
"1" = 0;
"10" = 0;
"11" = 0;
"2" = 0;
"3" = 0;
"4" = 0;
"5" = 0;
"6" = 0;
"7" = 0;
"8" = 0;
"9" = 0;
};
};
width = 522;
}
);
metricLeft = "=H";
metricRight = "=H*0.68";
note = L;
unicode = 76;
},
{
glyphname = M;
layers = (
{
layerId = m01;
shapes = (
{
closed = 1;
nodes = (
(139,0,l),
(139,673,l),
(121,669,l),
(409,0,l),
(439,0,l),
(723,671,l),
(705,675,l),
(705,0,l),
(754,0,l),
(754,700,l),
(696,700,l),
(414,36,l),
(450,36,l),
(163,700,l),
(102,700,l),
(102,0,l)
);
}
);
userData = {
com.hugojourdan.ColorFlow = {
"0" = 0;
"1" = 0;
"10" = 0;
"11" = 0;
"2" = 0;
"3" = 0;
"4" = 0;
"5" = 0;
"6" = 0;
"7" = 0;
"8" = 0;
"9" = 0;
};
};
width = 856;
},
{
layerId = "FF73925E-1E34-445B-881D-5A7CAAA8E8BE";
shapes = (
{
closed = 1;
nodes = (
(145,0,l),
(145,547,l),
(130,544,l),
(320,0,l),
(445,0,l),
(626,549,l),
(612,551,l),
(612,0,l),
(788,0,l),
(788,700,l),
(585,700,l),
(405,155,l),
(438,155,l),
(249,700,l),
(51,700,l),
(51,0,l)
);
}
);
userData = {
com.hugojourdan.ColorFlow = {
"0" = 0;
"1" = 0;
"10" = 0;
"11" = 0;
"2" = 0;
"3" = 0;
"4" = 0;
"5" = 0;
"6" = 0;
"7" = 0;
"8" = 0;
"9" = 0;
};
};
width = 839;
},
{
layerId = "BF6BA5B2-0556-42F4-A103-614BEBF16A1A";
shapes = (
{
closed = 1;
nodes = (
(148,0,l),
(148,624,l),
(131,621,l),
(381,0,l),
(447,0,l),
(691,628,l),
(675,631,l),
(675,0,l),
(773,0,l),
(773,700,l),
(655,700,l),
(418,78,l),
(451,78,l),
(203,700,l),
(88,700,l),
(88,0,l)
);
}
);
userData = {
com.hugojourdan.ColorFlow = {
"0" = 0;
"1" = 0;
"10" = 0;
"11" = 0;
"2" = 0;
"3" = 0;
"4" = 0;
"5" = 0;
"6" = 0;
"7" = 0;
"8" = 0;
"9" = 0;
};
};
width = 861;
},
{
guides = (
{
angle = -67.6543;
pos = (272,335);
},
{
angle = -67.654;
pos = (307,362);
}
);
layerId = m004;
shapes = (
{
closed = 1;
nodes = (
(150,0,l),
(150,673,l),
(134,669,l),
(409,0,l),
(447,0,l),
(722,669,l),
(706,673,l),
(706,0,l),
(754,0,l),
(754,700,l),
(688,700,l),
(410,24,l),
(446,24,l),
(168,700,l),
(102,700,l),
(102,0,l)
);
}
);
userData = {
com.hugojourdan.ColorFlow = {
"0" = 0;
"1" = 0;
"10" = 0;
"11" = 0;
"2" = 0;
"3" = 0;
"4" = 0;
"5" = 0;
"6" = 0;
"7" = 0;
"8" = 0;
"9" = 0;
};
};
width = 856;
},
{
guides = (
{
angle = 109.9686;
pos = (333,384);
},
{
angle = 109.969;
pos = (281,293);
}
);
layerId = m005;
shapes = (
{
closed = 1;
nodes = (
(186,0,l),
(186,606,l),
(170,590,l),
(384,0,l),
(477,0,l),
(691,590,l),
(675,606,l),
(675,0,l),
(773,0,l),
(773,700,l),
(638,700,l),
(409,67,l),
(453,67,l),
(223,700,l),
(88,700,l),
(88,0,l)
);
}
);
userData = {
com.hugojourdan.ColorFlow = {
"0" = 0;
"1" = 0;
"10" = 0;
"11" = 0;
"2" = 0;
"3" = 0;
"4" = 0;
"5" = 0;
"6" = 0;
"7" = 0;
"8" = 0;
"9" = 0;
};
};
width = 861;
},
{
guides = (
{
angle = -74.085;
pos = (283,249);
},
{
angle = -74.085;
pos = (341,435);
}
);
layerId = m006;
shapes = (
{
closed = 1;
nodes = (
(229,0,l),
(229,501,l),
(217,498,l),
(359,0,l),
(482,0,l),
(624,498,l),
(612,501,l),
(612,0,l),
(790,0,l),
(790,700,l),
(537,700,l),
(373,126,l),
(468,126,l),
(304,700,l),
(51,700,l),
(51,0,l)
);
}
);
userData = {
com.hugojourdan.ColorFlow = {
"0" = 0;
"1" = 0;
"10" = 0;
"11" = 0;
"2" = 0;
"3" = 0;
"4" = 0;
"5" = 0;
"6" = 0;
"7" = 0;
"8" = 0;
"9" = 0;
};
};
width = 841;
}
);
metricLeft = "=H";
metricRight = "=|";
note = M;
unicode = 77;
},
{
glyphname = N;
layers = (
{
anchors = (
{
name = top;
pos = (328,700);
}
);
layerId = m01;
shapes = (
{
closed = 1;
nodes = (
(139,0,l),
(139,650,l),
(115,643,l),
(527,0,l),
(557,0,l),
(557,700,l),
(520,700,l),
(520,55,l),
(544,62,l),
(134,700,l),
(102,700,l),
(102,0,l)
);
}
);
userData = {
com.hugojourdan.ColorFlow = {
"0" = 0;
"1" = 0;
"10" = 0;
"11" = 0;
"2" = 0;
"3" = 0;
"4" = 0;
"5" = 0;
"6" = 0;
"7" = 0;
"8" = 0;
"9" = 0;
};
};
width = 659;
},
{
anchors = (
{
name = top;
pos = (326,700);
}
);
layerId = "FF73925E-1E34-445B-881D-5A7CAAA8E8BE";
shapes = (
{
closed = 1;
nodes = (
(145,0,l),
(145,495,l),
(119,488,l),
(439,0,l),
(578,0,l),
(578,700,l),
(484,700,l),
(484,213,l),
(508,220,l),
(193,700,l),
(51,700,l),
(51,0,l)
);
}
);
userData = {
com.hugojourdan.ColorFlow = {
"0" = 0;
"1" = 0;
"10" = 0;
"11" = 0;
"2" = 0;
"3" = 0;
"4" = 0;
"5" = 0;
"6" = 0;
"7" = 0;
"8" = 0;
"9" = 0;
};
};
width = 629;
},
{
anchors = (
{
name = top;
pos = (333,700);
}
);
layerId = "BF6BA5B2-0556-42F4-A103-614BEBF16A1A";
shapes = (
{
closed = 1;
nodes = (
(147,0,l),
(147,590,l),
(123,583,l),
(499,0,l),
(571,0,l),
(571,700,l),
(512,700,l),
(512,115,l),
(536,122,l),
(162,700,l),
(88,700,l),
(88,0,l)
);
}
);
userData = {
com.hugojourdan.ColorFlow = {
"0" = 0;
"1" = 0;
"10" = 0;
"11" = 0;
"2" = 0;
"3" = 0;
"4" = 0;
"5" = 0;
"6" = 0;
"7" = 0;
"8" = 0;
"9" = 0;
};
};
width = 659;
},
{
anchors = (
{
name = top;
pos = (328,700);
}
);
layerId = m004;
shapes = (
{
closed = 1;
nodes = (
(150,0,l),
(150,650,l),
(124,643,l),
(518,0,l),
(557,0,l),
(557,700,l),
(509,700,l),
(509,55,l),
(534,57,l),
(140,700,l),
(102,700,l),
(102,0,l)
);
}
);
userData = {
com.hugojourdan.ColorFlow = {
"0" = 0;
"1" = 0;
"10" = 0;
"11" = 0;
"2" = 0;
"3" = 0;
"4" = 0;
"5" = 0;
"6" = 0;
"7" = 0;
"8" = 0;
"9" = 0;
};
};
width = 659;
},
{
anchors = (
{
name = top;
pos = (350,700);
}
);
guides = (
{
angle = -59.6032;
pos = (322,292);
},
{
angle = -59.603;
pos = (188,700);
}
);
layerId = m005;
shapes = (
{
closed = 1;
nodes = (
(186,0,l),
(186,590,l),
(153,583,l),
(495,0,l),
(595,0,l),
(595,700,l),
(497,700,l),
(497,116,l),
(524,124,l),
(186,700,l),
(88,700,l),
(88,0,l)
);
}
);
userData = {
com.hugojourdan.ColorFlow = {
"0" = 0;
"1" = 0;
"10" = 0;
"11" = 0;
"2" = 0;
"3" = 0;
"4" = 0;
"5" = 0;
"6" = 0;
"7" = 0;
"8" = 0;
"9" = 0;
};
};
width = 683;
},
{
anchors = (
{
name = top;
pos = (368,700);
}
);
layerId = m006;
shapes = (
{
closed = 1;
nodes = (
(228,0,l),
(228,530,l),
(191,522,l),
(431,0,l),
(640,0,l),
(640,700,l),
(463,700,l),
(463,178,l),
(500,186,l),
(265,700,l),
(51,700,l),
(51,0,l)
);
}
);
userData = {
com.hugojourdan.ColorFlow = {
"0" = 0;
"1" = 0;
"10" = 0;
"11" = 0;
"2" = 0;
"3" = 0;
"4" = 0;
"5" = 0;
"6" = 0;
"7" = 0;
"8" = 0;
"9" = 0;
};
};
width = 691;
}
);
metricLeft = "=H";
metricRight = "=|";
note = N;
unicode = 78;
},
{
glyphname = O;
layers = (
{
anchors = (
{
name = center;
pos = (334,350);
},
{
name = top;
pos = (334,700);
}
);
layerId = m01;
metricLeft = "=H*0.66";
shapes = (
{
closed = 1;
nodes = (
(505,-10,o),
(601,119,o),
(601,350,cs),
(601,581,o),
(505,710,o),
(334,710,cs),
(163,710,o),
(67,581,o),
(67,350,cs),
(67,119,o),
(163,-10,o),
(334,-10,cs)
);
},
{
closed = 1;
nodes = (
(197,22,o),
(120,140,o),
(120,350,cs),
(120,560,o),
(197,678,o),
(334,678,cs),
(471,678,o),
(548,560,o),
(548,350,cs),
(548,140,o),
(471,22,o),
(334,22,cs)
);
}
);
userData = {
com.hugojourdan.ColorFlow = {
"0" = 0;
"1" = 0;
"10" = 0;
"11" = 0;
"2" = 0;
"3" = 0;
"4" = 0;
"5" = 0;
"6" = 0;
"7" = 0;
"8" = 0;
"9" = 0;
};
};
width = 668;
},
{
anchors = (
{
name = center;
pos = (335,350);
},
{
name = top;
pos = (335,700);
}
);
layerId = "FF73925E-1E34-445B-881D-5A7CAAA8E8BE";
metricLeft = "=H*0.7";
shapes = (
{
closed = 1;
nodes = (
(536,-10,o),
(634,109,o),
(634,350,cs),
(634,591,o),
(536,710,o),
(336,710,cs),
(136,710,o),
(36,590,o),
(36,351,cs),
(36,111,o),
(137,-10,o),
(337,-10,cs)
);
},
{
closed = 1;
nodes = (
(261,80,o),
(224,169,o),
(224,350,cs),
(224,531,o),
(261,620,o),
(336,620,cs),
(410,620,o),
(446,532,o),
(446,350,cs),
(446,169,o),
(410,80,o),
(336,80,cs)
);
}
);
userData = {
com.hugojourdan.ColorFlow = {
"0" = 0;
"1" = 0;
"10" = 0;
"11" = 0;
"2" = 0;
"3" = 0;
"4" = 0;
"5" = 0;
"6" = 0;
"7" = 0;
"8" = 0;
"9" = 0;
};
};
width = 670;
},
{
anchors = (
{
name = center;
pos = (336,350);
},
{
name = top;
pos = (336,700);
}
);
layerId = "BF6BA5B2-0556-42F4-A103-614BEBF16A1A";
metricLeft = "=H*0.63";
shapes = (
{
closed = 1;
nodes = (
(517,-10,o),
(617,118,o),
(617,350,cs),
(617,586,o),
(520,710,o),
(336,710,cs),
(154,710,o),
(55,582,o),
(55,350,cs),
(55,113,o),
(150,-10,o),
(336,-10,cs)
);
},
{
closed = 1;
nodes = (
(217,38,o),
(160,139,o),
(160,351,cs),
(160,562,o),
(217,662,o),
(336,662,cs),
(454,662,o),
(512,560,o),
(512,351,cs),
(512,141,o),
(454,38,o),
(336,38,cs)
);
}
);
userData = {
com.hugojourdan.ColorFlow = {
"0" = 0;
"1" = 0;
"10" = 0;
"11" = 0;
"2" = 0;
"3" = 0;
"4" = 0;
"5" = 0;
"6" = 0;
"7" = 0;
"8" = 0;
"9" = 0;
};
};
width = 672;
},
{
anchors = (
{
name = center;
pos = (334,350);
},
{
name = top;
pos = (334,700);
}
);
layerId = m004;
metricLeft = "=H*0.66";
shapes = (
{
closed = 1;
nodes = (
(505,-10,o),
(601,119,o),
(601,350,cs),
(601,581,o),
(505,710,o),
(334,710,cs),
(163,710,o),
(67,581,o),
(67,350,cs),
(67,119,o),
(163,-10,o),
(334,-10,cs)
);
},
{
closed = 1;
nodes = (
(197,33,o),
(120,148,o),
(120,350,cs),
(120,552,o),
(197,667,o),
(334,667,cs),
(471,667,o),
(548,552,o),
(548,350,cs),
(548,148,o),
(471,33,o),
(334,33,cs)
);
}
);
userData = {
com.hugojourdan.ColorFlow = {
"0" = 0;
"1" = 0;
"10" = 0;
"11" = 0;
"2" = 0;
"3" = 0;
"4" = 0;
"5" = 0;
"6" = 0;
"7" = 0;
"8" = 0;
"9" = 0;
};
};
width = 668;
},
{
anchors = (
{
name = center;
pos = (335,350);
},
{
name = top;
pos = (335,700);
}
);
layerId = m005;
metricLeft = "=H*0.63";
shapes = (
{
closed = 1;
nodes = (
(517,-10,o),
(615,116,o),
(615,350,cs),
(615,585,o),
(517,710,o),
(335,710,cs),
(151,710,o),
(55,585,o),
(55,350,cs),
(55,115,o),
(152,-10,o),
(335,-10,cs)
);
},
{
closed = 1;
nodes = (
(221,75,o),
(160,171,o),
(160,350,cs),
(160,530,o),
(221,626,o),
(335,626,cs),
(448,626,o),
(510,530,o),
(510,350,cs),
(510,171,o),
(448,75,o),
(335,75,cs)
);
}
);
userData = {
com.hugojourdan.ColorFlow = {
"0" = 0;
"1" = 0;
"10" = 0;
"11" = 0;
"2" = 0;
"3" = 0;
"4" = 0;
"5" = 0;
"6" = 0;
"7" = 0;
"8" = 0;
"9" = 0;
};
};
width = 670;
},
{
anchors = (
{
name = center;
pos = (336,350);
},
{
name = top;
pos = (336,700);
}
);
layerId = m006;
metricLeft = "=H*0.7";
shapes = (
{
closed = 1;
nodes = (
(536,-10,o),
(634,110,o),
(634,351,cs),
(634,592,o),
(536,710,o),
(336,710,cs),
(136,710,o),
(36,591,o),
(36,351,cs),
(36,111,o),
(136,-10,o),
(336,-10,cs)
);
},
{
closed = 1;
nodes = (
(261,138,o),
(224,209,o),
(224,351,cs),
(224,493,o),
(261,562,o),
(336,562,cs),
(410,562,o),
(446,493,o),
(446,351,cs),
(446,207,o),
(410,138,o),
(336,138,cs)
);
}
);
userData = {
com.hugojourdan.ColorFlow = {
"0" = 0;
"1" = 0;
"10" = 0;
"11" = 0;
"2" = 0;
"3" = 0;
"4" = 0;
"5" = 0;
"6" = 0;
"7" = 0;
"8" = 0;
"9" = 0;
};
};
width = 670;
}
);
metricRight = "=|";
note = O;
unicode = 79;
},
{
glyphname = OE;
layers = (
{
layerId = m01;
shapes = (
{
closed = 1;
nodes = (
(500,-10,o),
(596,119,o),
(596,350,cs),
(596,581,o),
(502,710,o),
(334,710,cs),
(163,710,o),
(67,581,o),
(67,350,cs),
(67,119,o),
(162,-10,o),
(329,-10,cs)
);
},
{
closed = 1;
nodes = (
(197,22,o),
(120,140,o),
(120,350,cs),
(120,560,o),
(197,678,o),
(334,678,cs),
(471,678,o),
(548,560,o),
(548,350,cs),
(548,140,o),
(471,22,o),
(334,22,cs)
);
},
{
closed = 1;
nodes = (
(929,0,l),
(929,32,l),
(572,32,l),
(596,8,l),
(596,692,l),
(572,668,l),
(916,668,l),
(916,700,l),
(548,700,l),
(548,0,l)
);
},
{
closed = 1;
nodes = (
(896,348,l),
(896,378,l),
(572,378,l),
(572,348,l)
);
}
);
userData = {
com.hugojourdan.ColorFlow = {
"0" = 0;
"1" = 0;
"10" = 0;
"11" = 0;
"2" = 0;
"3" = 0;
"4" = 0;
"5" = 0;
"6" = 0;
"7" = 0;
"8" = 0;
"9" = 0;
};
};
width = 975;
},
{
layerId = "BF6BA5B2-0556-42F4-A103-614BEBF16A1A";
shapes = (
{
closed = 1;
nodes = (
(502,-10,o),
(595,116,o),
(595,350,cs),
(595,587,o),
(504,710,o),
(330,710,cs),
(154,710,o),
(55,581,o),
(55,350,cs),
(55,114,o),
(150,-10,o),
(330,-10,cs)
);
},
{
closed = 1;
nodes = (
(217,41,o),
(160,141,o),
(160,351,cs),
(160,560,o),
(217,659,o),
(336,659,cs),
(454,659,o),
(512,558,o),
(512,351,cs),
(512,143,o),
(454,41,o),
(336,41,cs)
);
},
{
closed = 1;
nodes = (
(915,0,l),
(915,52,l),
(570,52,l),
(609,13,l),
(609,687,l),
(570,648,l),
(903,648,l),
(903,700,l),
(512,700,l),
(512,0,l)
);
},
{
closed = 1;
nodes = (
(882,339,l),
(882,387,l),
(560,387,l),
(560,339,l)
);
}
);
userData = {
com.hugojourdan.ColorFlow = {
"0" = 0;
"1" = 0;
"10" = 0;
"11" = 0;
"2" = 0;
"3" = 0;
"4" = 0;
"5" = 0;
"6" = 0;
"7" = 0;
"8" = 0;
"9" = 0;
};
};
width = 955;
},
{
layerId = "FF73925E-1E34-445B-881D-5A7CAAA8E8BE";
shapes = (
{
closed = 1;
nodes = (
(455,-10,o),
(544,125,o),
(544,350,cs),
(544,576,o),
(455,710,o),
(306,710,cs),
(130,710,o),
(36,585,o),
(36,350,cs),
(36,116,o),
(131,-10,o),
(306,-10,cs)
);
},
{
closed = 1;
nodes = (
(261,84,o),
(224,172,o),
(224,350,cs),
(224,528,o),
(261,616,o),
(336,616,cs),
(410,616,o),
(446,529,o),
(446,350,cs),
(446,172,o),
(410,84,o),
(336,84,cs)
);
},
{
closed = 1;
nodes = (
(887,0,l),
(887,90,l),
(579,90,l),
(624,45,l),
(624,655,l),
(579,610,l),
(877,610,l),
(877,700,l),
(446,700,l),
(446,0,l)
);
},
{
closed = 1;
nodes = (
(854,323,l),
(854,403,l),
(535,403,l),
(535,323,l)
);
}
);
userData = {
com.hugojourdan.ColorFlow = {
"0" = 0;
"1" = 0;
"10" = 0;
"11" = 0;
"2" = 0;
"3" = 0;
"4" = 0;
"5" = 0;
"6" = 0;
"7" = 0;
"8" = 0;
"9" = 0;
};
};
width = 910;
},
{
layerId = m004;
shapes = (
{
closed = 1;
nodes = (
(502,-10,o),
(596,119,o),
(596,350,cs),
(596,581,o),
(502,710,o),
(334,710,cs),
(163,710,o),
(67,581,o),
(67,350,cs),
(67,119,o),
(163,-10,o),
(334,-10,cs)
);
},
{
closed = 1;
nodes = (
(197,34,o),
(120,148,o),
(120,350,cs),
(120,552,o),
(197,666,o),
(334,666,cs),
(471,666,o),
(548,552,o),
(548,350,cs),
(548,148,o),
(471,34,o),
(334,34,cs)
);
},
{
closed = 1;
nodes = (
(929,0,l),
(929,43,l),
(572,43,l),
(596,19,l),
(596,681,l),
(572,657,l),
(916,657,l),
(916,700,l),
(548,700,l),
(548,0,l)
);
},
{
closed = 1;
nodes = (
(896,342,l),
(896,384,l),
(572,384,l),
(572,342,l)
);
}
);
userData = {
com.hugojourdan.ColorFlow = {
"0" = 0;
"1" = 0;
"10" = 0;
"11" = 0;
"2" = 0;
"3" = 0;
"4" = 0;
"5" = 0;
"6" = 0;
"7" = 0;
"8" = 0;
"9" = 0;
};
};
width = 975;
},
{
layerId = m005;
shapes = (
{
closed = 1;
nodes = (
(502,-10,o),
(593,114,o),
(593,350,cs),
(593,586,o),
(502,710,o),
(329,710,cs),
(152,710,o),
(55,584,o),
(55,350,cs),
(55,117,o),
(152,-10,o),
(329,-10,cs)
);
},
{
closed = 1;
nodes = (
(222,75,o),
(160,172,o),
(160,350,cs),
(160,528,o),
(222,625,o),
(334,625,cs),
(446,625,o),
(507,529,o),
(507,350,cs),
(507,171,o),
(446,75,o),
(334,75,cs)
);
},
{
closed = 1;
nodes = (
(915,0,l),
(915,77,l),
(565,77,l),
(605,38,l),
(605,662,l),
(565,623,l),
(903,623,l),
(903,700,l),
(507,700,l),
(507,0,l)
);
},
{
closed = 1;
nodes = (
(880,326,l),
(880,400,l),
(555,400,l),
(555,326,l)
);
}
);
userData = {
com.hugojourdan.ColorFlow = {
"0" = 0;
"1" = 0;
"10" = 0;
"11" = 0;
"2" = 0;
"3" = 0;
"4" = 0;
"5" = 0;
"6" = 0;
"7" = 0;
"8" = 0;
"9" = 0;
};
};
width = 955;
},
{
layerId = m006;
shapes = (
{
closed = 1;
nodes = (
(471,-10,o),
(544,104,o),
(544,351,cs),
(544,597,o),
(471,710,o),
(312,710,cs),
(132,710,o),
(36,586,o),
(36,351,cs),
(36,115,o),
(132,-10,o),
(312,-10,cs)
);
},
{
closed = 1;
nodes = (
(261,143,o),
(224,212,o),
(224,351,cs),
(224,489,o),
(261,557,o),
(336,557,cs),
(410,557,o),
(446,490,o),
(446,351,cs),
(446,211,o),
(410,143,o),
(336,143,cs)
);
},
{
closed = 1;
nodes = (
(897,0,l),
(897,136,l),
(579,136,l),
(624,91,l),
(624,609,l),
(579,564,l),
(887,564,l),
(887,700,l),
(446,700,l),
(446,0,l)
);
},
{
closed = 1;
nodes = (
(864,298,l),
(864,428,l),
(535,428,l),
(535,298,l)
);
}
);
userData = {
com.hugojourdan.ColorFlow = {
"0" = 0;
"1" = 0;
"10" = 0;
"11" = 0;
"2" = 0;
"3" = 0;
"4" = 0;
"5" = 0;
"6" = 0;
"7" = 0;
"8" = 0;
"9" = 0;
};
};
width = 920;
}
);
metricLeft = "=O";
metricRight = "=E";
unicode = 338;
},
{
glyphname = P;
layers = (
{
layerId = m01;
shapes = (
{
closed = 1;
nodes = (
(150,0,l),
(150,692,l),
(126,668,l),
(254,668,ls),
(396,668,o),
(476,607,o),
(476,497,cs),
(476,387,o),
(396,325,o),
(254,325,cs),
(126,325,l),
(126,293,l),
(256,293,ls),
(430,293,o),
(528,366,o),
(528,497,cs),
(528,627,o),
(430,700,o),
(256,700,cs),
(102,700,l),
(102,0,l)
);
}
);
userData = {
com.hugojourdan.ColorFlow = {
"0" = 0;
"1" = 0;
"10" = 0;
"11" = 0;
"2" = 0;
"3" = 0;
"4" = 0;
"5" = 0;
"6" = 0;
"7" = 0;
"8" = 0;
"9" = 0;
};
};
width = 595;
},
{
layerId = "FF73925E-1E34-445B-881D-5A7CAAA8E8BE";
shapes = (
{
closed = 1;
nodes = (
(228,0,l),
(228,655,l),
(183,610,l),
(270,610,ls),
(359,610,o),
(408,564,o),
(408,481,cs),
(408,398,o),
(359,352,o),
(270,352,cs),
(140,352,l),
(140,263,l),
(280,263,ls),
(481,263,o),
(594,342,o),
(594,482,cs),
(594,622,o),
(481,700,o),
(280,700,cs),
(51,700,l),
(51,0,l)
);
}
);
userData = {
com.hugojourdan.ColorFlow = {
"0" = 0;
"1" = 0;
"10" = 0;
"11" = 0;
"2" = 0;
"3" = 0;
"4" = 0;
"5" = 0;
"6" = 0;
"7" = 0;
"8" = 0;
"9" = 0;
};
};
width = 630;
},
{
layerId = "BF6BA5B2-0556-42F4-A103-614BEBF16A1A";
shapes = (
{
closed = 1;
nodes = (
(186,0,l),
(186,688,l),
(150,652,l),
(276,652,ls),
(390,652,o),
(458,593,o),
(458,491,cs),
(458,388,o),
(391,329,o),
(276,329,cs),
(137,329,l),
(137,281,l),
(281,281,ls),
(461,281,o),
(563,357,o),
(563,491,cs),
(563,624,o),
(461,700,o),
(281,700,cs),
(88,700,l),
(88,0,l)
);
}
);
userData = {
com.hugojourdan.ColorFlow = {
"0" = 0;
"1" = 0;
"10" = 0;
"11" = 0;
"2" = 0;
"3" = 0;
"4" = 0;
"5" = 0;
"6" = 0;
"7" = 0;
"8" = 0;
"9" = 0;
};
};
width = 618;
},
{
layerId = m004;
shapes = (
{
closed = 1;
nodes = (
(150,0,l),
(150,682,l),
(126,658,l),
(254,658,ls),
(396,658,o),
(476,600,o),
(476,497,cs),
(476,393,o),
(396,335,o),
(254,335,cs),
(126,335,l),
(126,293,l),
(256,293,ls),
(430,293,o),
(528,366,o),
(528,497,cs),
(528,627,o),
(430,700,o),
(256,700,cs),
(102,700,l),
(102,0,l)
);
}
);
userData = {
com.hugojourdan.ColorFlow = {
"0" = 0;
"1" = 0;
"10" = 0;
"11" = 0;
"2" = 0;
"3" = 0;
"4" = 0;
"5" = 0;
"6" = 0;
"7" = 0;
"8" = 0;
"9" = 0;
};
};
width = 595;
},
{
layerId = m005;
shapes = (
{
closed = 1;
nodes = (
(186,0,l),
(186,658,l),
(150,622,l),
(282,622,ls),
(400,622,o),
(458,579,o),
(458,491,cs),
(458,402,o),
(401,359,o),
(282,359,cs),
(137,359,l),
(137,281,l),
(279,281,ls),
(463,281,o),
(563,355,o),
(563,491,cs),
(563,627,o),
(463,700,o),
(279,700,cs),
(88,700,l),
(88,0,l)
);
}
);
userData = {
com.hugojourdan.ColorFlow = {
"0" = 0;
"1" = 0;
"10" = 0;
"11" = 0;
"2" = 0;
"3" = 0;
"4" = 0;
"5" = 0;
"6" = 0;
"7" = 0;
"8" = 0;
"9" = 0;
};
};
width = 618;
},
{
layerId = m006;
shapes = (
{
closed = 1;
nodes = (
(228,0,l),
(228,609,l),
(183,564,l),
(310,564,ls),
(379,564,o),
(408,534,o),
(408,481,cs),
(408,428,o),
(379,398,o),
(310,398,cs),
(212,398,l),
(212,263,l),
(300,263,ls),
(502,263,o),
(594,342,o),
(594,482,cs),
(594,622,o),
(502,700,o),
(300,700,cs),
(51,700,l),
(51,0,l)
);
}
);
userData = {
com.hugojourdan.ColorFlow = {
"0" = 0;
"1" = 0;
"10" = 0;
"11" = 0;
"2" = 0;
"3" = 0;
"4" = 0;
"5" = 0;
"6" = 0;
"7" = 0;
"8" = 0;
"9" = 0;
};
};
width = 630;
}
);
metricLeft = "=H";
metricRight = "=O";
note = P;
unicode = 80;
},
{
glyphname = Thorn;
layers = (
{
layerId = m01;
shapes = (
{
closed = 1;
nodes = (
(256,147,ls),
(430,147,o),
(528,220,o),
(528,351,cs),
(528,481,o),
(430,554,o),
(256,554,cs),
(126,554,l),
(126,522,l),
(254,522,ls),
(396,522,o),
(476,461,o),
(476,351,cs),
(476,241,o),
(396,179,o),
(254,179,cs),
(126,179,l),
(126,147,l)
);
},
{
closed = 1;
nodes = (
(150,0,l),
(150,700,l),
(102,700,l),
(102,0,l)
);
}
);
userData = {
com.hugojourdan.ColorFlow = {
"0" = 0;
"1" = 0;
"10" = 0;
"11" = 0;
"2" = 0;
"3" = 0;
"4" = 0;
"5" = 0;
"6" = 0;
"7" = 0;
"8" = 0;
"9" = 0;
};
};
width = 595;
},
{
layerId = "BF6BA5B2-0556-42F4-A103-614BEBF16A1A";
shapes = (
{
closed = 1;
nodes = (
(281,141,ls),
(461,141,o),
(563,217,o),
(563,351,cs),
(563,484,o),
(461,560,o),
(281,560,cs),
(140,560,l),
(140,512,l),
(276,512,ls),
(390,512,o),
(458,453,o),
(458,351,cs),
(458,248,o),
(391,189,o),
(276,189,cs),
(140,189,l),
(140,141,l)
);
},
{
closed = 1;
nodes = (
(186,0,l),
(186,700,l),
(88,700,l),
(88,0,l)
);
}
);
userData = {
com.hugojourdan.ColorFlow = {
"0" = 0;
"1" = 0;
"10" = 0;
"11" = 0;
"2" = 0;
"3" = 0;
"4" = 0;
"5" = 0;
"6" = 0;
"7" = 0;
"8" = 0;
"9" = 0;
};
};
width = 618;
},
{
layerId = "FF73925E-1E34-445B-881D-5A7CAAA8E8BE";
shapes = (
{
closed = 1;
nodes = (
(280,132,ls),
(481,132,o),
(594,211,o),
(594,351,cs),
(594,491,o),
(481,569,o),
(280,569,cs),
(140,569,l),
(140,479,l),
(270,479,ls),
(359,479,o),
(408,433,o),
(408,350,cs),
(408,267,o),
(359,221,o),
(270,221,cs),
(140,221,l),
(140,132,l)
);
},
{
closed = 1;
nodes = (
(228,0,l),
(228,700,l),
(51,700,l),
(51,0,l)
);
}
);
userData = {
com.hugojourdan.ColorFlow = {
"0" = 0;
"1" = 0;
"10" = 0;
"11" = 0;
"2" = 0;
"3" = 0;
"4" = 0;
"5" = 0;
"6" = 0;
"7" = 0;
"8" = 0;
"9" = 0;
};
};
width = 630;
},
{
layerId = m004;
shapes = (
{
closed = 1;
nodes = (
(256,147,ls),
(430,147,o),
(528,220,o),
(528,351,cs),
(528,481,o),
(430,554,o),
(256,554,cs),
(126,554,l),
(126,512,l),
(254,512,ls),
(397,512,o),
(476,454,o),
(476,351,cs),
(476,247,o),
(396,189,o),
(254,189,cs),
(126,189,l),
(126,147,l)
);
},
{
closed = 1;
nodes = (
(150,0,l),
(150,700,l),
(102,700,l),
(102,0,l)
);
}
);
userData = {
com.hugojourdan.ColorFlow = {
"0" = 0;
"1" = 0;
"10" = 0;
"11" = 0;
"2" = 0;
"3" = 0;
"4" = 0;
"5" = 0;
"6" = 0;
"7" = 0;
"8" = 0;
"9" = 0;
};
};
width = 595;
},
{
layerId = m005;
shapes = (
{
closed = 1;
nodes = (
(281,141,ls),
(461,141,o),
(563,217,o),
(563,351,cs),
(563,484,o),
(461,560,o),
(281,560,cs),
(140,560,l),
(140,482,l),
(276,482,ls),
(390,482,o),
(458,434,o),
(458,351,cs),
(458,267,o),
(391,219,o),
(276,219,cs),
(140,219,l),
(140,141,l)
);
},
{
closed = 1;
nodes = (
(186,0,l),
(186,700,l),
(88,700,l),
(88,0,l)
);
}
);
userData = {
com.hugojourdan.ColorFlow = {
"0" = 0;
"1" = 0;
"10" = 0;
"11" = 0;
"2" = 0;
"3" = 0;
"4" = 0;
"5" = 0;
"6" = 0;
"7" = 0;
"8" = 0;
"9" = 0;
};
};
width = 618;
},
{
layerId = m006;
shapes = (
{
closed = 1;
nodes = (
(280,132,ls),
(481,132,o),
(594,211,o),
(594,351,cs),
(594,491,o),
(481,569,o),
(280,569,cs),
(140,569,l),
(140,433,l),
(270,433,ls),
(359,433,o),
(408,403,o),
(408,350,cs),
(408,297,o),
(359,267,o),
(270,267,cs),
(140,267,l),
(140,132,l)
);
},
{
closed = 1;
nodes = (
(228,0,l),
(228,700,l),
(51,700,l),
(51,0,l)
);
}
);
userData = {
com.hugojourdan.ColorFlow = {
"0" = 0;
"1" = 0;
"10" = 0;
"11" = 0;
"2" = 0;
"3" = 0;
"4" = 0;
"5" = 0;
"6" = 0;
"7" = 0;
"8" = 0;
"9" = 0;
};
};
width = 630;
}
);
metricLeft = "=H";
metricRight = "=O";
unicode = 222;
},
{
glyphname = Q;
layers = (
{
layerId = m01;
shapes = (
{
closed = 1;
nodes = (
(594,-120,l),
(325,197,l),
(302,174,l),
(552,-148,l)
);
},
{
ref = O;
}
);
userData = {
com.hugojourdan.ColorFlow = {
"0" = 0;
"1" = 0;
"10" = 0;
"11" = 0;
"2" = 0;
"3" = 0;
"4" = 0;
"5" = 0;
"6" = 0;
"7" = 0;
"8" = 0;
"9" = 0;
};
};
width = 684;
},
{
layerId = "FF73925E-1E34-445B-881D-5A7CAAA8E8BE";
shapes = (
{
closed = 1;
nodes = (
(672,-114,l),
(351,208,l),
(313,177,l),
(585,-188,l)
);
},
{
ref = O;
}
);
userData = {
com.hugojourdan.ColorFlow = {
"0" = 0;
"1" = 0;
"10" = 0;
"11" = 0;
"2" = 0;
"3" = 0;
"4" = 0;
"5" = 0;
"6" = 0;
"7" = 0;
"8" = 0;
"9" = 0;
};
};
width = 714;
},
{
layerId = "BF6BA5B2-0556-42F4-A103-614BEBF16A1A";
shapes = (
{
closed = 1;
nodes = (
(611,-103,l),
(337,202,l),
(301,178,l),
(547,-145,l)
);
},
{
ref = O;
}
);
userData = {
com.hugojourdan.ColorFlow = {
"0" = 0;
"1" = 0;
"10" = 0;
"11" = 0;
"2" = 0;
"3" = 0;
"4" = 0;
"5" = 0;
"6" = 0;
"7" = 0;
"8" = 0;
"9" = 0;
};
};
width = 696;
},
{
layerId = m004;
shapes = (
{
closed = 1;
nodes = (
(594,-120,l),
(325,197,l),
(302,174,l),
(552,-148,l)
);
},
{
ref = O;
}
);
userData = {
com.hugojourdan.ColorFlow = {
"0" = 0;
"1" = 0;
"10" = 0;
"11" = 0;
"2" = 0;
"3" = 0;
"4" = 0;
"5" = 0;
"6" = 0;
"7" = 0;
"8" = 0;
"9" = 0;
};
};
width = 684;
},
{
layerId = m005;
shapes = (
{
closed = 1;
nodes = (
(623,-98,l),
(352,228,l),
(305,188,l),
(551,-149,l)
);
},
{
alignment = -1;
ref = O;
}
);
userData = {
com.hugojourdan.ColorFlow = {
"0" = 0;
"1" = 0;
"10" = 0;
"11" = 0;
"2" = 0;
"3" = 0;
"4" = 0;
"5" = 0;
"6" = 0;
"7" = 0;
"8" = 0;
"9" = 0;
};
};
width = 696;
},
{
layerId = m006;
shapes = (
{
closed = 1;
nodes = (
(668,-62,l),
(396,277,l),
(309,211,l),
(549,-150,l)
);
},
{
ref = O;
}
);
userData = {
com.hugojourdan.ColorFlow = {
"0" = 0;
"1" = 0;
"10" = 0;
"11" = 0;
"2" = 0;
"3" = 0;
"4" = 0;
"5" = 0;
"6" = 0;
"7" = 0;
"8" = 0;
"9" = 0;
};
};
width = 714;
}
);
note = Q;
unicode = 81;
},
{
glyphname = R;
layers = (
{
layerId = m01;
shapes = (
{
closed = 1;
nodes = (
(150,0,l),
(150,668,l),
(254,668,ls),
(396,668,o),
(476,612,o),
(476,512,cs),
(476,415,o),
(396,360,o),
(254,360,cs),
(142,360,l),
(142,328,l),
(256,328,ls),
(430,328,o),
(528,394,o),
(528,512,cs),
(528,633,o),
(431,700,o),
(256,700,cs),
(102,700,l),
(102,0,l)
);
},
{
closed = 1;
nodes = (
(561,0,l),
(294,347,l),
(238,347,l),
(501,0,l)
);
}
);
userData = {
com.hugojourdan.ColorFlow = {
"0" = 0;
"1" = 0;
"10" = 0;
"11" = 0;
"2" = 0;
"3" = 0;
"4" = 0;
"5" = 0;
"6" = 0;
"7" = 0;
"8" = 0;
"9" = 0;
};
};
width = 585;
},
{
layerId = "FF73925E-1E34-445B-881D-5A7CAAA8E8BE";
shapes = (
{
closed = 1;
nodes = (
(228,0,l),
(228,610,l),
(270,610,ls),
(359,610,o),
(408,569,o),
(408,496,cs),
(408,424,o),
(358,383,o),
(270,383,cs),
(212,383,l),
(212,293,l),
(280,293,ls),
(481,293,o),
(594,366,o),
(594,497,cs),
(594,627,o),
(481,700,o),
(280,700,cs),
(51,700,l),
(51,0,l)
);
},
{
closed = 1;
nodes = (
(630,0,l),
(423,342,l),
(257,345,l),
(436,0,l)
);
}
);
userData = {
com.hugojourdan.ColorFlow = {
"0" = 0;
"1" = 0;
"10" = 0;
"11" = 0;
"2" = 0;
"3" = 0;
"4" = 0;
"5" = 0;
"6" = 0;
"7" = 0;
"8" = 0;
"9" = 0;
};
};
width = 636;
},
{
layerId = "BF6BA5B2-0556-42F4-A103-614BEBF16A1A";
shapes = (
{
closed = 1;
nodes = (
(186,0,l),
(186,652,l),
(286,652,ls),
(394,652,o),
(452,604,o),
(452,508,cs),
(452,411,o),
(394,363,o),
(286,363,cs),
(174,363,l),
(174,315,l),
(291,315,ls),
(465,315,o),
(556,379,o),
(556,508,cs),
(556,636,o),
(465,700,o),
(291,700,cs),
(88,700,l),
(88,0,l)
);
},
{
closed = 1;
nodes = (
(593,0,l),
(360,332,l),
(260,332,l),
(483,0,l)
);
}
);
userData = {
com.hugojourdan.ColorFlow = {
"0" = 0;
"1" = 0;
"10" = 0;
"11" = 0;
"2" = 0;
"3" = 0;
"4" = 0;
"5" = 0;
"6" = 0;
"7" = 0;
"8" = 0;
"9" = 0;
};
};
width = 611;
},
{
layerId = m004;
shapes = (
{
closed = 1;
nodes = (
(150,0,l),
(150,668,l),
(254,668,ls),
(396,668,o),
(476,612,o),
(476,512,cs),
(476,415,o),
(396,360,o),
(254,360,cs),
(142,360,l),
(142,328,l),
(256,328,ls),
(430,328,o),
(528,394,o),
(528,512,cs),
(528,633,o),
(430,700,o),
(256,700,cs),
(102,700,l),
(102,0,l)
);
},
{
closed = 1;
nodes = (
(561,0,l),
(294,347,l),
(231,347,l),
(500,0,l)
);
}
);
userData = {
com.hugojourdan.ColorFlow = {
"0" = 0;
"1" = 0;
"10" = 0;
"11" = 0;
"2" = 0;
"3" = 0;
"4" = 0;
"5" = 0;
"6" = 0;
"7" = 0;
"8" = 0;
"9" = 0;
};
};
width = 585;
},
{
layerId = m005;
shapes = (
{
closed = 1;
nodes = (
(186,0,l),
(186,628,l),
(276,628,ls),
(395,628,o),
(453,581,o),
(453,497,cs),
(453,414,o),
(395,368,o),
(276,368,cs),
(175,368,l),
(175,296,l),
(277,296,ls),
(461,296,o),
(558,368,o),
(558,497,cs),
(558,627,o),
(461,700,o),
(277,700,cs),
(88,700,l),
(88,0,l)
);
},
{
closed = 1;
nodes = (
(594,0,l),
(353,345,l),
(249,346,l),
(483,0,l)
);
}
);
userData = {
com.hugojourdan.ColorFlow = {
"0" = 0;
"1" = 0;
"10" = 0;
"11" = 0;
"2" = 0;
"3" = 0;
"4" = 0;
"5" = 0;
"6" = 0;
"7" = 0;
"8" = 0;
"9" = 0;
};
};
width = 611;
},
{
layerId = m006;
shapes = (
{
closed = 1;
nodes = (
(229,0,l),
(229,564,l),
(295,564,ls),
(384,564,o),
(409,531,o),
(409,472,cs),
(409,413,o),
(384,380,o),
(295,380,cs),
(213,380,l),
(213,245,l),
(296,245,ls),
(498,245,o),
(595,327,o),
(595,473,cs),
(595,618,o),
(498,700,o),
(296,700,cs),
(51,700,l),
(51,0,l)
);
},
{
closed = 1;
nodes = (
(631,0,l),
(432,342,l),
(262,345,l),
(441,0,l)
);
}
);
userData = {
com.hugojourdan.ColorFlow = {
"0" = 0;
"1" = 0;
"10" = 0;
"11" = 0;
"2" = 0;
"3" = 0;
"4" = 0;
"5" = 0;
"6" = 0;
"7" = 0;
"8" = 0;
"9" = 0;
};
};
width = 637;
}
);
metricLeft = "=H";
note = R;
unicode = 82;
},
{
glyphname = S;
layers = (
{
anchors = (
{
name = top;
pos = (262,700);
}
);
guides = (
{
angle = 236.31;
pos = (67,103);
}
);
layerId = m01;
shapes = (
{
closed = 1;
nodes = (
(381,-10,o),
(466,65,o),
(466,176,cs),
(466,303,o),
(363,334,o),
(256,388,cs),
(146,443,o),
(110,481,o),
(110,543,cs),
(110,623,o),
(171,678,o),
(259,678,cs),
(324,678,o),
(384,648,o),
(410,602,c),
(443,637,l),
(401,683,o),
(335,710,o),
(264,710,cs),
(146,710,o),
(61,638,o),
(61,537,cs),
(61,460,o),
(106,409,o),
(228,349,cs),
(315,306,o),
(418,272,o),
(418,169,cs),
(418,86,o),
(348,24,o),
(253,24,cs),
(183,24,o),
(122,65,o),
(87,133,c),
(52,81,l),
(97,24,o),
(174,-10,o),
(257,-10,cs)
);
}
);
userData = {
com.hugojourdan.ColorFlow = {
"0" = 0;
"1" = 0;
"10" = 0;
"11" = 0;
"2" = 0;
"3" = 0;
"4" = 0;
"5" = 0;
"6" = 0;
"7" = 0;
"8" = 0;
"9" = 0;
};
};
width = 533;
},
{
anchors = (
{
name = top;
pos = (272,700);
}
);
guides = (
{
angle = 233.3544;
pos = (52,121);
},
{
angle = 90;
pos = (44,95);
},
{
angle = 90;
pos = (487,601);
},
{
angle = 44.158;
pos = (449,573);
}
);
layerId = "BF6BA5B2-0556-42F4-A103-614BEBF16A1A";
shapes = (
{
closed = 1;
nodes = (
(415,-10,o),
(507,63,o),
(507,172,cs),
(507,299,o),
(380,355,o),
(289,407,cs),
(189,463,o),
(153,503,o),
(153,558,cs),
(153,618,o),
(199,659,o),
(270,659,cs),
(335,659,o),
(384,625,o),
(426,549,c),
(483,604,l),
(433,675,o),
(364,710,o),
(273,710,cs),
(148,710,o),
(60,634,o),
(60,528,cs),
(60,404,o),
(180,355,o),
(274,304,cs),
(376,248,o),
(414,209,o),
(414,153,cs),
(414,87,o),
(362,44,o),
(282,44,cs),
(193,44,o),
(128,95,o),
(100,187,c),
(43,110,l),
(91,36,o),
(181,-10,o),
(279,-10,cs)
);
}
);
userData = {
com.hugojourdan.ColorFlow = {
"0" = 0;
"1" = 0;
"10" = 0;
"11" = 0;
"2" = 0;
"3" = 0;
"4" = 0;
"5" = 0;
"6" = 0;
"7" = 0;
"8" = 0;
"9" = 0;
};
};
width = 562;
},
{
associatedMasterId = "FF73925E-1E34-445B-881D-5A7CAAA8E8BE";
layerId = "01D1DCD4-D6A4-4EDB-B9BC-2A98E82E96A8";
name = "10 Jun 23 12.27 PM";
shapes = (
{
closed = 1;
nodes = (
(416,-10,o),
(510,70,o),
(510,191,cs),
(510,272,o),
(466,326,o),
(339,399,cs),
(241,456,o),
(209,491,o),
(209,542,cs),
(209,587,o),
(232,616,o),
(266,616,cs),
(306,616,o),
(340,574,o),
(367,491,c),
(512,542,l),
(473,647,o),
(383,710,o),
(270,710,cs),
(137,710,o),
(50,626,o),
(50,498,cs),
(50,411,o),
(90,359,o),
(201,303,cs),
(302,252,o),
(334,218,o),
(334,162,cs),
(334,113,o),
(308,80,o),
(269,80,cs),
(224,80,o),
(179,128,o),
(145,211,c),
(16,121,l),
(68,39,o),
(164,-10,o),
(274,-10,cs)
);
}
);
userData = {
com.hugojourdan.ColorFlow = {
"0" = 0;
"1" = 0;
"10" = 0;
"11" = 0;
"2" = 0;
"3" = 0;
"4" = 0;
"5" = 0;
"6" = 0;
"7" = 0;
"8" = 0;
"9" = 0;
};
};
width = 546;
},
{
anchors = (
{
name = top;
pos = (294,700);
}
);
guides = (
{
angle = 90;
pos = (537,599);
},
{
angle = 44.158;
pos = (489,553);
}
);
layerId = "FF73925E-1E34-445B-881D-5A7CAAA8E8BE";
name = Bold;
shapes = (
{
closed = 1;
nodes = (
(451,-10,o),
(550,70,o),
(550,191,cs),
(550,286,o),
(497,350,o),
(370,419,cs),
(262,479,o),
(229,505,o),
(229,548,cs),
(228,595,o),
(256,622,o),
(307,622,cs),
(358,622,o),
(408,580,o),
(449,506,c),
(545,599,l),
(481,675,o),
(404,710,o),
(301,710,cs),
(151,710,o),
(56,629,o),
(56,503,cs),
(56,408,o),
(109,344,o),
(233,275,cs),
(340,215,o),
(373,189,o),
(374,146,cs),
(374,104,o),
(347,80,o),
(299,80,cs),
(240,80,o),
(175,135,o),
(116,234,c),
(28,115,l),
(85,38,o),
(189,-10,o),
(300,-10,cs)
);
}
);
userData = {
com.hugojourdan.ColorFlow = {
"0" = 0;
"1" = 0;
"10" = 0;
"11" = 0;
"2" = 0;
"3" = 0;
"4" = 0;
"5" = 0;
"6" = 0;
"7" = 0;
"8" = 0;
"9" = 0;
};
};
width = 586;
},
{
anchors = (
{
name = top;
pos = (268,700);
}
);
associatedMasterId = "FF73925E-1E34-445B-881D-5A7CAAA8E8BE";
guides = (
{
angle = 151.2602;
pos = (207,285);
}
);
layerId = "D8E4FFE5-BED4-4E71-8FF9-723148DABEAF";
name = "10 Jun 23 10.21 PM";
shapes = (
{
closed = 1;
nodes = (
(416,-10,o),
(510,70,o),
(510,191,cs),
(510,282,o),
(462,344,o),
(344,409,cs),
(223,475,o),
(175,493,o),
(174,562,cs),
(174,614,o),
(211,660,o),
(256,660,cs),
(306,660,o),
(340,603,o),
(367,491,c),
(512,542,l),
(473,647,o),
(383,710,o),
(270,710,cs),
(133,710,o),
(44,628,o),
(44,503,cs),
(44,412,o),
(91,349,o),
(207,285,cs),
(326,220,o),
(373,201,o),
(374,132,cs),
(374,88,o),
(349,40,o),
(279,40,cs),
(224,40,o),
(179,103,o),
(145,211,c),
(16,121,l),
(68,39,o),
(164,-10,o),
(274,-10,cs)
);
}
);
userData = {
com.hugojourdan.ColorFlow = {
"0" = 0;
"1" = 0;
"10" = 0;
"11" = 0;
"2" = 0;
"3" = 0;
"4" = 0;
"5" = 0;
"6" = 0;
"7" = 0;
"8" = 0;
"9" = 0;
};
};
width = 546;
},
{
anchors = (
{
name = top;
pos = (262,700);
}
);
layerId = m004;
shapes = (
{
closed = 1;
nodes = (
(364,-10,o),
(466,50,o),
(466,176,cs),
(466,292,o),
(364,340,o),
(270,384,cs),
(187,423,o),
(110,459,o),
(110,536,cs),
(110,613,o),
(170,668,o),
(259,668,cs),
(324,668,o),
(384,639,o),
(410,602,c),
(443,637,l),
(398,686,o),
(330,710,o),
(264,710,cs),
(161,710,o),
(61,651,o),
(61,537,cs),
(61,430,o),
(157,385,o),
(249,341,cs),
(335,300,o),
(418,261,o),
(418,175,cs),
(418,92,o),
(347,32,o),
(253,32,cs),
(183,32,o),
(118,66,o),
(81,118,c),
(52,81,l),
(100,21,o),
(180,-10,o),
(257,-10,cs)
);
}
);
userData = {
com.hugojourdan.ColorFlow = {
"0" = 0;
"1" = 0;
"10" = 0;
"11" = 0;
"2" = 0;
"3" = 0;
"4" = 0;
"5" = 0;
"6" = 0;
"7" = 0;
"8" = 0;
"9" = 0;
};
};
width = 533;
},
{
anchors = (
{
name = top;
pos = (279,700);
}
);
layerId = m005;
shapes = (
{
closed = 1;
nodes = (
(397,-10,o),
(507,56,o),
(507,190,cs),
(507,319,o),
(397,363,o),
(301,403,cs),
(224,434,o),
(155,462,o),
(155,526,cs),
(155,583,o),
(197,628,o),
(277,628,cs),
(343,628,o),
(401,598,o),
(430,559,c),
(493,622,l),
(442,681,o),
(362,710,o),
(283,710,cs),
(154,710,o),
(58,633,o),
(58,517,cs),
(58,395,o),
(164,352,o),
(259,313,cs),
(339,280,o),
(411,250,o),
(411,181,cs),
(411,117,o),
(354,72,o),
(275,72,cs),
(200,72,o),
(135,111,o),
(104,156,c),
(43,86,l),
(90,28,o),
(175,-10,o),
(276,-10,cs)
);
}
);
userData = {
com.hugojourdan.ColorFlow = {
"0" = 0;
"1" = 0;
"10" = 0;
"11" = 0;
"2" = 0;
"3" = 0;
"4" = 0;
"5" = 0;
"6" = 0;
"7" = 0;
"8" = 0;
"9" = 0;
};
};
width = 562;
},
{
anchors = (
{
name = top;
pos = (284,700);
}
);
layerId = m006;
name = Bold;
shapes = (
{
closed = 1;
nodes = (
(427,-10,o),
(551,66,o),
(551,212,cs),
(551,367,o),
(417,409,o),
(316,441,cs),
(254,460,o),
(204,476,o),
(204,511,cs),
(204,547,o),
(234,565,o),
(274,565,cs),
(320,565,o),
(380,540,o),
(420,490,c),
(531,599,l),
(470,674,o),
(372,710,o),
(292,710,cs),
(120,710,o),
(31,604,o),
(31,486,cs),
(31,331,o),
(165,290,o),
(267,260,cs),
(329,241,o),
(379,226,o),
(379,191,cs),
(379,154,o),
(343,136,o),
(298,136,cs),
(243,136,o),
(174,163,o),
(139,215,c),
(28,95,l),
(72,39,o),
(165,-10,o),
(284,-10,cs)
);
}
);
userData = {
com.hugojourdan.ColorFlow = {
"0" = 0;
"1" = 0;
"10" = 0;
"11" = 0;
"2" = 0;
"3" = 0;
"4" = 0;
"5" = 0;
"6" = 0;
"7" = 0;
"8" = 0;
"9" = 0;
};
};
width = 587;
}
);
metricLeft = "=O*0.78";
metricRight = "=O";
note = S;
unicode = 83;
},
{
glyphname = T;
layers = (
{
layerId = m01;
shapes = (
{
closed = 1;
nodes = (
(302,0,l),
(302,668,l),
(522,668,l),
(522,700,l),
(34,700,l),
(34,668,l),
(254,668,l),
(254,0,l)
);
}
);
userData = {
com.hugojourdan.ColorFlow = {
"0" = 0;
"1" = 0;
"10" = 0;
"11" = 0;
"2" = 0;
"3" = 0;
"4" = 0;
"5" = 0;
"6" = 0;
"7" = 0;
"8" = 0;
"9" = 0;
};
};
width = 556;
},
{
layerId = "FF73925E-1E34-445B-881D-5A7CAAA8E8BE";
shapes = (
{
closed = 1;
nodes = (
(377,0,l),
(377,610,l),
(562,610,l),
(562,700,l),
(17,700,l),
(17,610,l),
(202,610,l),
(202,0,l)
);
}
);
userData = {
com.hugojourdan.ColorFlow = {
"0" = 0;
"1" = 0;
"10" = 0;
"11" = 0;
"2" = 0;
"3" = 0;
"4" = 0;
"5" = 0;
"6" = 0;
"7" = 0;
"8" = 0;
"9" = 0;
};
};
width = 579;
},
{
layerId = "BF6BA5B2-0556-42F4-A103-614BEBF16A1A";
shapes = (
{
closed = 1;
nodes = (
(332,0,l),
(332,648,l),
(539,648,l),
(539,700,l),
(29,700,l),
(29,648,l),
(236,648,l),
(236,0,l)
);
}
);
userData = {
com.hugojourdan.ColorFlow = {
"0" = 0;
"1" = 0;
"10" = 0;
"11" = 0;
"2" = 0;
"3" = 0;
"4" = 0;
"5" = 0;
"6" = 0;
"7" = 0;
"8" = 0;
"9" = 0;
};
};
width = 568;
},
{
layerId = m004;
shapes = (
{
closed = 1;
nodes = (
(302,0,l),
(302,657,l),
(522,657,l),
(522,700,l),
(34,700,l),
(34,657,l),
(254,657,l),
(254,0,l)
);
}
);
userData = {
com.hugojourdan.ColorFlow = {
"0" = 0;
"1" = 0;
"10" = 0;
"11" = 0;
"2" = 0;
"3" = 0;
"4" = 0;
"5" = 0;
"6" = 0;
"7" = 0;
"8" = 0;
"9" = 0;
};
};
width = 556;
},
{
layerId = m005;
shapes = (
{
closed = 1;
nodes = (
(333,0,l),
(333,623,l),
(539,623,l),
(539,700,l),
(29,700,l),
(29,623,l),
(236,623,l),
(236,0,l)
);
}
);
userData = {
com.hugojourdan.ColorFlow = {
"0" = 0;
"1" = 0;
"10" = 0;
"11" = 0;
"2" = 0;
"3" = 0;
"4" = 0;
"5" = 0;
"6" = 0;
"7" = 0;
"8" = 0;
"9" = 0;
};
};
width = 568;
},
{
layerId = m006;
shapes = (
{
closed = 1;
nodes = (
(377,0,l),
(377,564,l),
(562,564,l),
(562,700,l),
(17,700,l),
(17,564,l),
(202,564,l),
(202,0,l)
);
}
);
userData = {
com.hugojourdan.ColorFlow = {
"0" = 0;
"1" = 0;
"10" = 0;
"11" = 0;
"2" = 0;
"3" = 0;
"4" = 0;
"5" = 0;
"6" = 0;
"7" = 0;
"8" = 0;
"9" = 0;
};
};
width = 579;
}
);
metricLeft = "=H*0.333";
metricRight = "=|";
note = T;
unicode = 84;
},
{
glyphname = U;
layers = (
{
anchors = (
{
name = top;
pos = (322,700);
}
);
layerId = m01;
shapes = (
{
closed = 1;
nodes = (
(468,-10,o),
(541,81,o),
(541,280,cs),
(541,700,l),
(503,700,l),
(503,261,ls),
(503,97,o),
(444,22,o),
(315,22,cs),
(194,22,o),
(138,86,o),
(138,226,cs),
(138,700,l),
(90,700,l),
(90,250,ls),
(90,71,o),
(160,-10,o),
(309,-10,cs)
);
}
);
userData = {
com.hugojourdan.ColorFlow = {
"0" = 0;
"1" = 0;
"10" = 0;
"11" = 0;
"2" = 0;
"3" = 0;
"4" = 0;
"5" = 0;
"6" = 0;
"7" = 0;
"8" = 0;
"9" = 0;
};
};
width = 631;
},
{
anchors = (
{
name = top;
pos = (348,700);
}
);
layerId = "FF73925E-1E34-445B-881D-5A7CAAA8E8BE";
shapes = (
{
closed = 1;
nodes = (
(503,-10,o),
(593,86,o),
(593,288,cs),
(593,700,l),
(472,700,l),
(472,244,ls),
(472,131,o),
(433,80,o),
(348,80,cs),
(265,80,o),
(223,129,o),
(223,224,cs),
(223,700,l),
(45,700,l),
(45,242,ls),
(45,74,o),
(135,-10,o),
(313,-10,cs)
);
}
);
userData = {
com.hugojourdan.ColorFlow = {
"0" = 0;
"1" = 0;
"10" = 0;
"11" = 0;
"2" = 0;
"3" = 0;
"4" = 0;
"5" = 0;
"6" = 0;
"7" = 0;
"8" = 0;
"9" = 0;
};
};
width = 638;
},
{
anchors = (
{
name = top;
pos = (347,700);
}
);
layerId = "BF6BA5B2-0556-42F4-A103-614BEBF16A1A";
shapes = (
{
closed = 1;
nodes = (
(499,-10,o),
(581,84,o),
(581,283,cs),
(581,700,l),
(511,700,l),
(511,249,ls),
(511,104,o),
(458,38,o),
(341,38,cs),
(235,38,o),
(183,95,o),
(183,213,cs),
(183,700,l),
(77,700,l),
(77,241,ls),
(77,72,o),
(159,-10,o),
(325,-10,cs)
);
}
);
userData = {
com.hugojourdan.ColorFlow = {
"0" = 0;
"1" = 0;
"10" = 0;
"11" = 0;
"2" = 0;
"3" = 0;
"4" = 0;
"5" = 0;
"6" = 0;
"7" = 0;
"8" = 0;
"9" = 0;
};
};
width = 658;
},
{
anchors = (
{
name = top;
pos = (322,700);
}
);
layerId = m004;
shapes = (
{
closed = 1;
nodes = (
(468,-10,o),
(541,81,o),
(541,280,cs),
(541,700,l),
(493,700,l),
(493,271,ls),
(493,107,o),
(444,32,o),
(315,32,cs),
(196,32,o),
(138,96,o),
(138,236,cs),
(138,700,l),
(90,700,l),
(90,250,ls),
(90,71,o),
(160,-10,o),
(309,-10,cs)
);
}
);
userData = {
com.hugojourdan.ColorFlow = {
"0" = 0;
"1" = 0;
"10" = 0;
"11" = 0;
"2" = 0;
"3" = 0;
"4" = 0;
"5" = 0;
"6" = 0;
"7" = 0;
"8" = 0;
"9" = 0;
};
};
width = 631;
},
{
anchors = (
{
name = top;
pos = (334,700);
}
);
layerId = m005;
shapes = (
{
closed = 1;
nodes = (
(497,-10,o),
(581,85,o),
(581,282,cs),
(581,700,l),
(475,700,l),
(475,269,ls),
(475,134,o),
(430,75,o),
(328,75,cs),
(230,75,o),
(183,131,o),
(183,248,cs),
(183,700,l),
(77,700,l),
(77,264,ls),
(77,81,o),
(159,-10,o),
(325,-10,cs)
);
}
);
userData = {
com.hugojourdan.ColorFlow = {
"0" = 0;
"1" = 0;
"10" = 0;
"11" = 0;
"2" = 0;
"3" = 0;
"4" = 0;
"5" = 0;
"6" = 0;
"7" = 0;
"8" = 0;
"9" = 0;
};
};
width = 658;
},
{
anchors = (
{
name = top;
pos = (323,700);
}
);
layerId = m006;
shapes = (
{
closed = 1;
nodes = (
(498,-10,o),
(593,91,o),
(593,279,cs),
(593,700,l),
(415,700,l),
(415,267,ls),
(415,182,o),
(383,138,o),
(319,138,cs),
(255,138,o),
(223,182,o),
(223,267,cs),
(223,700,l),
(45,700,l),
(45,279,ls),
(45,91,o),
(140,-10,o),
(319,-10,cs)
);
}
);
userData = {
com.hugojourdan.ColorFlow = {
"0" = 0;
"1" = 0;
"10" = 0;
"11" = 0;
"2" = 0;
"3" = 0;
"4" = 0;
"5" = 0;
"6" = 0;
"7" = 0;
"8" = 0;
"9" = 0;
};
};
width = 638;
}
);
metricLeft = "=H*0.88";
metricRight = "=|";
note = U;
unicode = 85;
},
{
glyphname = V;
layers = (
{
layerId = m01;
shapes = (
{
closed = 1;
nodes = (
(295,0,l),
(532,700,l),
(494,700,l),
(271,39,l),
(299,39,l),
(85,700,l),
(31,700,l),
(267,0,l)
);
}
);
userData = {
com.hugojourdan.ColorFlow = {
"0" = 0;
"1" = 0;
"10" = 0;
"11" = 0;
"2" = 0;
"3" = 0;
"4" = 0;
"5" = 0;
"6" = 0;
"7" = 0;
"8" = 0;
"9" = 0;
};
};
width = 563;
},
{
layerId = "FF73925E-1E34-445B-881D-5A7CAAA8E8BE";
shapes = (
{
closed = 1;
nodes = (
(405,0,l),
(601,700,l),
(501,700,l),
(345,135,l),
(358,135,l),
(212,700,l),
(17,700,l),
(214,0,l)
);
}
);
userData = {
com.hugojourdan.ColorFlow = {
"0" = 0;
"1" = 0;
"10" = 0;
"11" = 0;
"2" = 0;
"3" = 0;
"4" = 0;
"5" = 0;
"6" = 0;
"7" = 0;
"8" = 0;
"9" = 0;
};
};
width = 618;
},
{
layerId = "BF6BA5B2-0556-42F4-A103-614BEBF16A1A";
shapes = (
{
closed = 1;
nodes = (
(336,0,l),
(558,700,l),
(490,700,l),
(295,73,l),
(321,73,l),
(133,700,l),
(25,700,l),
(246,0,l)
);
}
);
userData = {
com.hugojourdan.ColorFlow = {
"0" = 0;
"1" = 0;
"10" = 0;
"11" = 0;
"2" = 0;
"3" = 0;
"4" = 0;
"5" = 0;
"6" = 0;
"7" = 0;
"8" = 0;
"9" = 0;
};
};
width = 583;
},
{
layerId = m004;
shapes = (
{
closed = 1;
nodes = (
(306,0,l),
(542,700,l),
(488,700,l),
(273,35,l),
(301,35,l),
(85,700,l),
(31,700,l),
(267,0,l)
);
}
);
userData = {
com.hugojourdan.ColorFlow = {
"0" = 0;
"1" = 0;
"10" = 0;
"11" = 0;
"2" = 0;
"3" = 0;
"4" = 0;
"5" = 0;
"6" = 0;
"7" = 0;
"8" = 0;
"9" = 0;
};
};
width = 573;
},
{
layerId = m005;
shapes = (
{
closed = 1;
nodes = (
(358,0,l),
(590,700,l),
(481,700,l),
(295,80,l),
(321,80,l),
(133,700,l),
(25,700,l),
(257,0,l)
);
}
);
userData = {
com.hugojourdan.ColorFlow = {
"0" = 0;
"1" = 0;
"10" = 0;
"11" = 0;
"2" = 0;
"3" = 0;
"4" = 0;
"5" = 0;
"6" = 0;
"7" = 0;
"8" = 0;
"9" = 0;
};
};
width = 615;
},
{
layerId = m006;
shapes = (
{
closed = 1;
nodes = (
(441,0,l),
(668,700,l),
(473,700,l),
(332,151,l),
(354,151,l),
(212,700,l),
(17,700,l),
(244,0,l)
);
}
);
userData = {
com.hugojourdan.ColorFlow = {
"0" = 0;
"1" = 0;
"10" = 0;
"11" = 0;
"2" = 0;
"3" = 0;
"4" = 0;
"5" = 0;
"6" = 0;
"7" = 0;
"8" = 0;
"9" = 0;
};
};
width = 685;
}
);
metricLeft = "=W*0.88";
metricRight = "=|";
note = V;
unicode = 86;
},
{
glyphname = W;
layers = (
{
layerId = m01;
shapes = (
{
closed = 1;
nodes = (
(652,0,l),
(835,700,l),
(797,700,l),
(630,51,l),
(637,52,l),
(440,700,l),
(391,700,l),
(607,0,l)
);
},
{
closed = 1;
nodes = (
(247,0,l),
(458,636,l),
(422,636,l),
(229,52,l),
(236,51,l),
(87,700,l),
(35,700,l),
(202,0,l)
);
}
);
userData = {
com.hugojourdan.ColorFlow = {
"0" = 0;
"1" = 0;
"10" = 0;
"11" = 0;
"2" = 0;
"3" = 0;
"4" = 0;
"5" = 0;
"6" = 0;
"7" = 0;
"8" = 0;
"9" = 0;
};
};
width = 870;
},
{
guides = (
{
angle = -75.4826;
pos = (484,351);
},
{
angle = -75.483;
pos = (651,423);
},
{
angle = 72.9283;
pos = (434,325);
},
{
angle = 72.928;
pos = (360,398);
}
);
layerId = "FF73925E-1E34-445B-881D-5A7CAAA8E8BE";
shapes = (
{
closed = 1;
nodes = (
(763,1,l),
(899,700,l),
(801,700,l),
(694,145,l),
(720,145,l),
(582,700,l),
(396,700,l),
(577,1,l)
);
},
{
closed = 1;
nodes = (
(334,1,l),
(535,655,l),
(437,655,l),
(280,144,l),
(296,144,l),
(205,700,l),
(19,700,l),
(148,1,l)
);
}
);
userData = {
com.hugojourdan.ColorFlow = {
"0" = 0;
"1" = 0;
"10" = 0;
"11" = 0;
"2" = 0;
"3" = 0;
"4" = 0;
"5" = 0;
"6" = 0;
"7" = 0;
"8" = 0;
"9" = 0;
};
};
width = 918;
},
{
layerId = "BF6BA5B2-0556-42F4-A103-614BEBF16A1A";
shapes = (
{
closed = 1;
nodes = (
(708,0,l),
(856,700,l),
(795,700,l),
(665,85,l),
(682,86,l),
(488,700,l),
(386,700,l),
(609,0,l)
);
},
{
closed = 1;
nodes = (
(286,0,l),
(496,613,l),
(433,613,l),
(252,85,l),
(265,83,l),
(131,700,l),
(28,700,l),
(187,0,l)
);
}
);
userData = {
com.hugojourdan.ColorFlow = {
"0" = 0;
"1" = 0;
"10" = 0;
"11" = 0;
"2" = 0;
"3" = 0;
"4" = 0;
"5" = 0;
"6" = 0;
"7" = 0;
"8" = 0;
"9" = 0;
};
};
width = 884;
},
{
layerId = m004;
shapes = (
{
closed = 1;
nodes = (
(719,0,l),
(903,700,l),
(851,700,l),
(684,51,l),
(709,52,l),
(494,700,l),
(445,700,l),
(678,0,l)
);
},
{
closed = 1;
nodes = (
(260,0,l),
(493,700,l),
(444,700,l),
(229,52,l),
(254,51,l),
(87,700,l),
(35,700,l),
(219,0,l)
);
}
);
userData = {
com.hugojourdan.ColorFlow = {
"0" = 0;
"1" = 0;
"10" = 0;
"11" = 0;
"2" = 0;
"3" = 0;
"4" = 0;
"5" = 0;
"6" = 0;
"7" = 0;
"8" = 0;
"9" = 0;
};
};
width = 938;
},
{
layerId = m005;
shapes = (
{
closed = 1;
nodes = (
(743,0,l),
(934,700,l),
(829,700,l),
(683,111,l),
(707,112,l),
(527,700,l),
(436,700,l),
(646,0,l)
);
},
{
closed = 1;
nodes = (
(316,0,l),
(526,700,l),
(435,700,l),
(256,112,l),
(280,111,l),
(134,700,l),
(28,700,l),
(219,0,l)
);
}
);
userData = {
com.hugojourdan.ColorFlow = {
"0" = 0;
"1" = 0;
"10" = 0;
"11" = 0;
"2" = 0;
"3" = 0;
"4" = 0;
"5" = 0;
"6" = 0;
"7" = 0;
"8" = 0;
"9" = 0;
};
};
width = 962;
},
{
guides = (
{
angle = 76.4269;
pos = (487,350);
},
{
angle = 76.427;
pos = (360,443);
}
);
layerId = m006;
shapes = (
{
closed = 1;
nodes = (
(800,0,l),
(975,700,l),
(785,700,l),
(670,186,l),
(709,186,l),
(578,700,l),
(420,700,l),
(595,0,l)
);
},
{
closed = 1;
nodes = (
(398,0,l),
(574,700,l),
(416,700,l),
(285,186,l),
(323,186,l),
(209,700,l),
(19,700,l),
(193,0,l)
);
}
);
userData = {
com.hugojourdan.ColorFlow = {
"0" = 0;
"1" = 0;
"10" = 0;
"11" = 0;
"2" = 0;
"3" = 0;
"4" = 0;
"5" = 0;
"6" = 0;
"7" = 0;
"8" = 0;
"9" = 0;
};
};
width = 994;
},
{
associatedMasterId = "FF73925E-1E34-445B-881D-5A7CAAA8E8BE";
guides = (
{
angle = -75.4826;
pos = (483,351);
},
{
angle = -75.483;
pos = (650,423);
},
{
angle = 72.9283;
pos = (433,325);
},
{
angle = 72.928;
pos = (359,398);
}
);
layerId = "0D3E5DCB-CBFC-488A-BF71-9738605AEC1C";
name = "19 Jun 23 4.03 PM";
shapes = (
{
closed = 1;
nodes = (
(791,0,l),
(974,700,l),
(874,700,l),
(717,69,l),
(742,69,l),
(578,700,l),
(422,700,l),
(605,0,l)
);
},
{
closed = 1;
nodes = (
(387,0,l),
(558,656,l),
(466,656,l),
(313,69,l),
(338,69,l),
(174,700,l),
(18,700,l),
(201,0,l)
);
}
);
userData = {
com.hugojourdan.ColorFlow = {
"0" = 0;
"1" = 0;
"10" = 0;
"11" = 0;
"2" = 0;
"3" = 0;
"4" = 0;
"5" = 0;
"6" = 0;
"7" = 0;
"8" = 0;
"9" = 0;
};
};
width = 992;
}
);
metricLeft = "=O*0.517";
metricRight = "=|";
note = W;
unicode = 87;
},
{
glyphname = X;
layers = (
{
layerId = m01;
shapes = (
{
closed = 1;
nodes = (
(557,0,l),
(335,351,l),
(548,700,l),
(507,700,l),
(289,341,l),
(501,0,l)
);
},
{
closed = 1;
nodes = (
(90,0,l),
(326,361,l),
(114,700,l),
(58,700,l),
(279,351,l),
(49,0,l)
);
}
);
userData = {
com.hugojourdan.ColorFlow = {
"0" = 0;
"1" = 0;
"10" = 0;
"11" = 0;
"2" = 0;
"3" = 0;
"4" = 0;
"5" = 0;
"6" = 0;
"7" = 0;
"8" = 0;
"9" = 0;
};
};
width = 606;
},
{
layerId = "FF73925E-1E34-445B-881D-5A7CAAA8E8BE";
shapes = (
{
closed = 1;
nodes = (
(602,0,l),
(405,381,l),
(607,700,l),
(500,700,l),
(256,314,l),
(402,0,l)
);
},
{
closed = 1;
nodes = (
(134,0,l),
(379,388,l),
(232,700,l),
(32,700,l),
(230,321,l),
(27,0,l)
);
}
);
userData = {
com.hugojourdan.ColorFlow = {
"0" = 0;
"1" = 0;
"10" = 0;
"11" = 0;
"2" = 0;
"3" = 0;
"4" = 0;
"5" = 0;
"6" = 0;
"7" = 0;
"8" = 0;
"9" = 0;
};
};
width = 634;
},
{
layerId = "BF6BA5B2-0556-42F4-A103-614BEBF16A1A";
shapes = (
{
closed = 1;
nodes = (
(560,0,l),
(354,364,l),
(568,700,l),
(501,700,l),
(266,332,l),
(449,0,l)
);
},
{
closed = 1;
nodes = (
(106,0,l),
(341,368,l),
(158,700,l),
(47,700,l),
(253,336,l),
(39,0,l)
);
}
);
userData = {
com.hugojourdan.ColorFlow = {
"0" = 0;
"1" = 0;
"10" = 0;
"11" = 0;
"2" = 0;
"3" = 0;
"4" = 0;
"5" = 0;
"6" = 0;
"7" = 0;
"8" = 0;
"9" = 0;
};
};
width = 607;
},
{
layerId = m004;
shapes = (
{
closed = 1;
nodes = (
(557,0,l),
(337,351,l),
(548,700,l),
(492,700,l),
(283,351,l),
(503,0,l)
);
},
{
closed = 1;
nodes = (
(103,0,l),
(323,351,l),
(114,700,l),
(58,700,l),
(269,351,l),
(49,0,l)
);
}
);
userData = {
com.hugojourdan.ColorFlow = {
"0" = 0;
"1" = 0;
"10" = 0;
"11" = 0;
"2" = 0;
"3" = 0;
"4" = 0;
"5" = 0;
"6" = 0;
"7" = 0;
"8" = 0;
"9" = 0;
};
};
width = 606;
},
{
layerId = m005;
shapes = (
{
closed = 1;
nodes = (
(621,0,l),
(392,357,l),
(605,700,l),
(492,700,l),
(286,357,l),
(504,0,l)
);
},
{
closed = 1;
nodes = (
(155,0,l),
(373,357,l),
(167,700,l),
(54,700,l),
(267,357,l),
(39,0,l)
);
}
);
userData = {
com.hugojourdan.ColorFlow = {
"0" = 0;
"1" = 0;
"10" = 0;
"11" = 0;
"2" = 0;
"3" = 0;
"4" = 0;
"5" = 0;
"6" = 0;
"7" = 0;
"8" = 0;
"9" = 0;
};
};
width = 660;
},
{
guides = (
{
pos = (340,358);
}
);
layerId = m006;
shapes = (
{
closed = 1;
nodes = (
(673,0,l),
(457,358,l),
(661,700,l),
(466,700,l),
(264,354,l),
(465,0,l)
);
},
{
closed = 1;
nodes = (
(222,0,l),
(432,362,l),
(246,700,l),
(39,700,l),
(241,358,l),
(27,0,l)
);
}
);
userData = {
com.hugojourdan.ColorFlow = {
"0" = 0;
"1" = 0;
"10" = 0;
"11" = 0;
"2" = 0;
"3" = 0;
"4" = 0;
"5" = 0;
"6" = 0;
"7" = 0;
"8" = 0;
"9" = 0;
};
};
width = 700;
}
);
metricLeft = "=W*1.4";
metricRight = "=|";
note = X;
unicode = 88;
},
{
glyphname = Y;
layers = (
{
anchors = (
{
name = top;
pos = (282,700);
}
);
layerId = m01;
shapes = (
{
closed = 1;
nodes = (
(292,0,l),
(292,294,l),
(517,701,l),
(478,701,l),
(253,296,l),
(296,295,l),
(86,701,l),
(31,701,l),
(244,295,l),
(244,0,l)
);
}
);
userData = {
com.hugojourdan.ColorFlow = {
"0" = 0;
"1" = 0;
"10" = 0;
"11" = 0;
"2" = 0;
"3" = 0;
"4" = 0;
"5" = 0;
"6" = 0;
"7" = 0;
"8" = 0;
"9" = 0;
};
};
width = 537;
},
{
anchors = (
{
name = top;
pos = (347,700);
}
);
layerId = "FF73925E-1E34-445B-881D-5A7CAAA8E8BE";
shapes = (
{
closed = 1;
nodes = (
(383,0,l),
(383,268,l),
(585,700,l),
(478,700,l),
(326,347,l),
(352,346,l),
(215,700,l),
(15,700,l),
(205,269,l),
(205,0,l)
);
}
);
userData = {
com.hugojourdan.ColorFlow = {
"0" = 0;
"1" = 0;
"10" = 0;
"11" = 0;
"2" = 0;
"3" = 0;
"4" = 0;
"5" = 0;
"6" = 0;
"7" = 0;
"8" = 0;
"9" = 0;
};
};
width = 595;
},
{
anchors = (
{
name = top;
pos = (305,700);
}
);
layerId = "BF6BA5B2-0556-42F4-A103-614BEBF16A1A";
shapes = (
{
closed = 1;
nodes = (
(327,0,l),
(327,285,l),
(543,701,l),
(475,701,l),
(278,312,l),
(317,311,l),
(135,701,l),
(25,701,l),
(229,285,l),
(229,0,l)
);
}
);
userData = {
com.hugojourdan.ColorFlow = {
"0" = 0;
"1" = 0;
"10" = 0;
"11" = 0;
"2" = 0;
"3" = 0;
"4" = 0;
"5" = 0;
"6" = 0;
"7" = 0;
"8" = 0;
"9" = 0;
};
};
width = 559;
},
{
anchors = (
{
name = top;
pos = (268,700);
}
);
layerId = m004;
shapes = (
{
closed = 1;
nodes = (
(292,0,l),
(292,295,l),
(505,700,l),
(454,700,l),
(251,308,l),
(285,308,l),
(82,700,l),
(31,700,l),
(244,295,l),
(244,0,l)
);
}
);
userData = {
com.hugojourdan.ColorFlow = {
"0" = 0;
"1" = 0;
"10" = 0;
"11" = 0;
"2" = 0;
"3" = 0;
"4" = 0;
"5" = 0;
"6" = 0;
"7" = 0;
"8" = 0;
"9" = 0;
};
};
width = 537;
},
{
anchors = (
{
name = top;
pos = (286,700);
}
);
layerId = m005;
shapes = (
{
closed = 1;
nodes = (
(335,0,l),
(335,273,l),
(547,700,l),
(436,700,l),
(268,324,l),
(304,324,l),
(136,700,l),
(25,700,l),
(237,273,l),
(237,0,l)
);
}
);
userData = {
com.hugojourdan.ColorFlow = {
"0" = 0;
"1" = 0;
"10" = 0;
"11" = 0;
"2" = 0;
"3" = 0;
"4" = 0;
"5" = 0;
"6" = 0;
"7" = 0;
"8" = 0;
"9" = 0;
};
};
width = 572;
},
{
anchors = (
{
name = top;
pos = (314,700);
}
);
layerId = m006;
shapes = (
{
closed = 1;
nodes = (
(403,0,l),
(403,239,l),
(613,700,l),
(413,700,l),
(300,350,l),
(328,350,l),
(215,700,l),
(15,700,l),
(225,239,l),
(225,0,l)
);
}
);
userData = {
com.hugojourdan.ColorFlow = {
"0" = 0;
"1" = 0;
"10" = 0;
"11" = 0;
"2" = 0;
"3" = 0;
"4" = 0;
"5" = 0;
"6" = 0;
"7" = 0;
"8" = 0;
"9" = 0;
};
};
width = 628;
}
);
note = Y;
unicode = 89;
},
{
glyphname = Z;
layers = (
{
anchors = (
{
name = top;
pos = (281,700);
}
);
layerId = m01;
shapes = (
{
closed = 1;
nodes = (
(489,0,l),
(489,32,l),
(108,32,l),
(108,24,l),
(486,673,l),
(486,700,l),
(75,700,l),
(75,668,l),
(431,668,l),
(431,676,l),
(52,25,l),
(52,0,l)
);
}
);
userData = {
com.hugojourdan.ColorFlow = {
"0" = 0;
"1" = 0;
"10" = 0;
"11" = 0;
"2" = 0;
"3" = 0;
"4" = 0;
"5" = 0;
"6" = 0;
"7" = 0;
"8" = 0;
"9" = 0;
};
};
width = 544;
},
{
anchors = (
{
name = top;
pos = (293,700);
}
);
layerId = "FF73925E-1E34-445B-881D-5A7CAAA8E8BE";
shapes = (
{
closed = 1;
nodes = (
(527,0,l),
(527,88,l),
(194,88,l),
(218,44,l),
(529,627,l),
(529,700,l),
(56,700,l),
(56,612,l),
(370,612,l),
(346,656,l),
(30,70,l),
(30,0,l)
);
}
);
userData = {
com.hugojourdan.ColorFlow = {
"0" = 0;
"1" = 0;
"10" = 0;
"11" = 0;
"2" = 0;
"3" = 0;
"4" = 0;
"5" = 0;
"6" = 0;
"7" = 0;
"8" = 0;
"9" = 0;
};
};
width = 563;
},
{
anchors = (
{
name = top;
pos = (283,700);
}
);
layerId = "BF6BA5B2-0556-42F4-A103-614BEBF16A1A";
shapes = (
{
closed = 1;
nodes = (
(503,0,l),
(503,52,l),
(116,52,l),
(139,13,l),
(502,655,l),
(498,700,l),
(68,700,l),
(68,648,l),
(432,648,l),
(409,687,l),
(44,42,l),
(48,0,l)
);
}
);
userData = {
com.hugojourdan.ColorFlow = {
"0" = 0;
"1" = 0;
"10" = 0;
"11" = 0;
"2" = 0;
"3" = 0;
"4" = 0;
"5" = 0;
"6" = 0;
"7" = 0;
"8" = 0;
"9" = 0;
};
};
width = 551;
},
{
anchors = (
{
name = top;
pos = (281,700);
}
);
layerId = m004;
shapes = (
{
closed = 1;
nodes = (
(489,0,l),
(489,42,l),
(101,42,l),
(101,24,l),
(486,673,l),
(486,700,l),
(75,700,l),
(75,658,l),
(438,658,l),
(438,676,l),
(52,25,l),
(52,0,l)
);
}
);
userData = {
com.hugojourdan.ColorFlow = {
"0" = 0;
"1" = 0;
"10" = 0;
"11" = 0;
"2" = 0;
"3" = 0;
"4" = 0;
"5" = 0;
"6" = 0;
"7" = 0;
"8" = 0;
"9" = 0;
};
};
width = 544;
},
{
anchors = (
{
name = top;
pos = (286,700);
}
);
layerId = m005;
shapes = (
{
closed = 1;
nodes = (
(504,0,l),
(504,77,l),
(141,77,l),
(151,32,l),
(503,655,l),
(503,700,l),
(68,700,l),
(68,623,l),
(407,623,l),
(398,668,l),
(43,42,l),
(43,0,l)
);
}
);
userData = {
com.hugojourdan.ColorFlow = {
"0" = 0;
"1" = 0;
"10" = 0;
"11" = 0;
"2" = 0;
"3" = 0;
"4" = 0;
"5" = 0;
"6" = 0;
"7" = 0;
"8" = 0;
"9" = 0;
};
};
width = 551;
},
{
anchors = (
{
name = top;
pos = (293,700);
}
);
layerId = m006;
shapes = (
{
closed = 1;
nodes = (
(527,0,l),
(527,136,l),
(194,136,l),
(218,44,l),
(529,627,l),
(529,700,l),
(56,700,l),
(56,564,l),
(370,564,l),
(346,656,l),
(30,70,l),
(30,0,l)
);
}
);
userData = {
com.hugojourdan.ColorFlow = {
"0" = 0;
"1" = 0;
"10" = 0;
"11" = 0;
"2" = 0;
"3" = 0;
"4" = 0;
"5" = 0;
"6" = 0;
"7" = 0;
"8" = 0;
"9" = 0;
};
};
width = 563;
}
);
note = Z;
unicode = 90;
},
{
glyphname = a;
layers = (
{
anchors = (
{
name = top;
pos = (235,480);
}
);
background = {
shapes = (
{
pos = (-35,0);
ref = n;
}
);
};
layerId = m01;
shapes = (
{
closed = 1;
nodes = (
(279,-10,o),
(340,36,o),
(364,119,c),
(352,117,l),
(351,78,o),
(354,39,o),
(361,0,c),
(399,0,l),
(392,36,o),
(389,73,o),
(389,111,cs),
(389,316,ls),
(389,433,o),
(339,490,o),
(235,490,cs),
(169,490,o),
(115,465,o),
(71,414,c),
(110,377,l),
(137,433,o),
(178,462,o),
(234,462,cs),
(303,462,o),
(344,410,o),
(344,322,cs),
(344,147,ls),
(344,81,o),
(278,18,o),
(204,18,cs),
(144,18,o),
(103,59,o),
(103,125,cs),
(103,197,o),
(153,230,o),
(357,260,c),
(357,287,l),
(142,270,o),
(57,222,o),
(57,118,cs),
(57,37,o),
(108,-10,o),
(194,-10,cs)
);
}
);
userData = {
com.hugojourdan.ColorFlow = {
"0" = 0;
"1" = 0;
"10" = 0;
"11" = 0;
"2" = 0;
"3" = 0;
"4" = 0;
"5" = 0;
"6" = 0;
"7" = 0;
"8" = 0;
"9" = 0;
};
};
width = 470;
},
{
anchors = (
{
name = top;
pos = (257,500);
}
);
background = {
shapes = (
{
pos = (-30,0);
ref = n;
}
);
};
layerId = "FF73925E-1E34-445B-881D-5A7CAAA8E8BE";
shapes = (
{
closed = 1;
nodes = (
(266,-10,o),
(322,30,o),
(350,112,c),
(327,112,l),
(327,57,o),
(330,23,o),
(337,0,c),
(486,0,l),
(479,23,o),
(476,57,o),
(476,112,cs),
(476,288,ls),
(476,439,o),
(410,510,o),
(267,510,cs),
(169,510,o),
(99,482,o),
(40,420,c),
(113,351,l),
(140,406,o),
(185,436,o),
(238,436,cs),
(280,436,o),
(307,406,o),
(307,359,cs),
(307,155,ls),
(307,103,o),
(285,75,o),
(244,75,cs),
(207,75,o),
(184,97,o),
(184,136,cs),
(184,181,o),
(216,207,o),
(321,247,c),
(321,301,l),
(116,274,o),
(27,220,o),
(27,122,cs),
(27,41,o),
(87,-10,o),
(182,-10,cs)
);
}
);
userData = {
com.hugojourdan.ColorFlow = {
"0" = 0;
"1" = 0;
"10" = 0;
"11" = 0;
"2" = 0;
"3" = 0;
"4" = 0;
"5" = 0;
"6" = 0;
"7" = 0;
"8" = 0;
"9" = 0;
};
};
width = 519;
},
{
anchors = (
{
name = top;
pos = (240,490);
}
);
background = {
shapes = (
{
pos = (-42,0);
ref = n;
}
);
};
layerId = "BF6BA5B2-0556-42F4-A103-614BEBF16A1A";
shapes = (
{
closed = 1;
nodes = (
(270,-10,o),
(343,44,o),
(356,123,c),
(348,123,l),
(348,52,o),
(350,27,o),
(358,0,c),
(436,0,l),
(428,29,o),
(426,57,o),
(426,127,cs),
(426,301,ls),
(426,434,o),
(368,500,o),
(252,500,cs),
(169,500,o),
(110,472,o),
(60,410,c),
(117,360,l),
(136,422,o),
(178,456,o),
(235,456,cs),
(295,456,o),
(333,408,o),
(333,331,cs),
(333,169,ls),
(333,102,o),
(270,35,o),
(207,35,cs),
(164,35,o),
(139,66,o),
(139,117,cs),
(139,189,o),
(186,221,o),
(349,259,c),
(349,296,l),
(135,265,o),
(48,210,o),
(48,106,cs),
(48,41,o),
(105,-10,o),
(177,-10,cs)
);
}
);
userData = {
com.hugojourdan.ColorFlow = {
"0" = 0;
"1" = 0;
"10" = 0;
"11" = 0;
"2" = 0;
"3" = 0;
"4" = 0;
"5" = 0;
"6" = 0;
"7" = 0;
"8" = 0;
"9" = 0;
};
};
width = 497;
},
{
anchors = (
{
name = top;
pos = (235,480);
}
);
layerId = m004;
shapes = (
{
closed = 1;
nodes = (
(277,-10,o),
(342,41,o),
(364,119,c),
(348,117,l),
(348,78,o),
(348,39,o),
(348,0,c),
(389,0,l),
(389,40,o),
(389,77,o),
(389,111,cs),
(389,316,ls),
(389,428,o),
(334,490,o),
(234,490,cs),
(170,490,o),
(115,465,o),
(71,414,c),
(104,383,l),
(142,427,o),
(185,448,o),
(233,448,cs),
(303,448,o),
(344,402,o),
(344,322,cs),
(344,187,ls),
(344,96,o),
(284,32,o),
(206,32,cs),
(146,32,o),
(105,69,o),
(105,125,cs),
(105,197,o),
(174,236,o),
(358,262,c),
(356,303,l),
(146,278,o),
(57,225,o),
(57,124,cs),
(57,43,o),
(115,-10,o),
(197,-10,cs)
);
}
);
userData = {
com.hugojourdan.ColorFlow = {
"0" = 0;
"1" = 0;
"10" = 0;
"11" = 0;
"2" = 0;
"3" = 0;
"4" = 0;
"5" = 0;
"6" = 0;
"7" = 0;
"8" = 0;
"9" = 0;
};
};
width = 460;
},
{
anchors = (
{
name = top;
pos = (246,488);
}
);
layerId = m005;
shapes = (
{
closed = 1;
nodes = (
(267,-10,o),
(335,31,o),
(361,116,c),
(342,115,l),
(342,74,o),
(342,36,o),
(342,0,c),
(426,0,l),
(426,37,o),
(426,73,o),
(426,111,cs),
(426,305,ls),
(426,437,o),
(367,500,o),
(248,500,cs),
(169,500,o),
(110,474,o),
(62,418,c),
(116,367,l),
(149,403,o),
(187,423,o),
(236,423,cs),
(294,423,o),
(333,387,o),
(333,324,cs),
(333,190,ls),
(333,99,o),
(272,59,o),
(218,59,cs),
(176,59,o),
(138,83,o),
(138,129,cs),
(138,182,o),
(179,222,o),
(346,247,c),
(345,308,l),
(134,281,o),
(48,227,o),
(48,124,cs),
(48,37,o),
(112,-10,o),
(192,-10,cs)
);
}
);
userData = {
com.hugojourdan.ColorFlow = {
"0" = 0;
"1" = 0;
"10" = 0;
"11" = 0;
"2" = 0;
"3" = 0;
"4" = 0;
"5" = 0;
"6" = 0;
"7" = 0;
"8" = 0;
"9" = 0;
};
};
width = 487;
},
{
anchors = (
{
name = top;
pos = (257,500);
}
);
layerId = m006;
shapes = (
{
closed = 1;
nodes = (
(266,-10,o),
(322,30,o),
(350,112,c),
(327,112,l),
(327,75,o),
(327,37,o),
(327,0,c),
(476,0,l),
(476,37,o),
(476,75,o),
(476,112,cs),
(476,288,ls),
(476,433,o),
(402,510,o),
(261,510,cs),
(163,510,o),
(97,482,o),
(40,416,c),
(128,333,l),
(160,367,o),
(195,384,o),
(233,384,cs),
(278,384,o),
(307,358,o),
(307,318,cs),
(307,195,ls),
(307,137,o),
(275,97,o),
(230,97,cs),
(202,97,o),
(184,113,o),
(184,138,cs),
(184,181,o),
(232,212,o),
(321,226,c),
(321,316,l),
(116,288,o),
(27,231,o),
(27,129,cs),
(27,44,o),
(87,-10,o),
(182,-10,cs)
);
}
);
userData = {
com.hugojourdan.ColorFlow = {
"0" = 0;
"1" = 0;
"10" = 0;
"11" = 0;
"2" = 0;
"3" = 0;
"4" = 0;
"5" = 0;
"6" = 0;
"7" = 0;
"8" = 0;
"9" = 0;
};
};
width = 509;
}
);
metricLeft = "=o";
metricRight = "=n-10";
note = a;
unicode = 97;
},
{
glyphname = ae;
layers = (
{
background = {
shapes = (
{
closed = 1;
nodes = (
(263,-10,o),
(324,36,o),
(348,119,c),
(336,117,l),
(335,78,o),
(338,39,o),
(345,0,c),
(383,0,l),
(376,36,o),
(373,73,o),
(373,111,cs),
(373,316,ls),
(373,433,o),
(323,490,o),
(219,490,c),
(218,462,l),
(287,462,o),
(328,410,o),
(328,322,cs),
(328,147,ls),
(328,81,o),
(261,18,o),
(190,18,cs),
(128,18,o),
(87,59,o),
(87,123,cs),
(87,203,o),
(137,230,o),
(341,260,c),
(341,287,l),
(126,270,o),
(41,222,o),
(41,118,cs),
(41,37,o),
(92,-10,o),
(178,-10,cs)
);
},
{
closed = 1;
nodes = (
(121,433,o),
(162,462,o),
(218,462,c),
(219,490,l),
(153,490,o),
(99,465,o),
(55,414,c),
(94,377,l)
);
}
);
};
layerId = m01;
shapes = (
{
closed = 1;
nodes = (
(592,-10,o),
(648,18,o),
(693,75,c),
(649,108,l),
(621,48,o),
(580,18,o),
(527,18,cs),
(441,18,o),
(387,105,o),
(389,243,cs),
(389,249,ls),
(389,383,o),
(444,462,o),
(535,462,cs),
(612,462,o),
(660,409,o),
(660,326,cs),
(660,306,o),
(657,285,o),
(649,256,c),
(692,291,l),
(367,270,l),
(367,245,l),
(696,252,l),
(702,284,o),
(704,303,o),
(704,321,cs),
(704,425,o),
(641,490,o),
(534,490,cs),
(412,490,o),
(344,400,o),
(344,241,cs),
(344,84,o),
(411,-10,o),
(527,-10,cs)
);
},
{
closed = 1;
nodes = (
(286,-10,o),
(350,39,o),
(374,131,c),
(381,131,l),
(381,316,ls),
(381,433,o),
(334,490,o),
(235,490,cs),
(169,490,o),
(115,465,o),
(71,414,c),
(110,377,l),
(137,433,o),
(178,462,o),
(234,462,cs),
(303,462,o),
(344,410,o),
(344,322,cs),
(344,147,ls),
(344,81,o),
(278,18,o),
(204,18,cs),
(145,18,o),
(103,59,o),
(103,116,cs),
(103,187,o),
(169,219,o),
(357,244,c),
(357,271,l),
(146,254,o),
(57,206,o),
(57,109,cs),
(57,36,o),
(108,-10,o),
(196,-10,cs)
);
}
);
userData = {
com.hugojourdan.ColorFlow = {
"0" = 0;
"1" = 0;
"10" = 0;
"11" = 0;
"2" = 0;
"3" = 0;
"4" = 0;
"5" = 0;
"6" = 0;
"7" = 0;
"8" = 0;
"9" = 0;
};
};
width = 761;
},
{
layerId = "BF6BA5B2-0556-42F4-A103-614BEBF16A1A";
shapes = (
{
closed = 1;
nodes = (
(640,-10,o),
(699,22,o),
(732,88,c),
(671,130,l),
(653,69,o),
(611,34,o),
(558,34,cs),
(479,34,o),
(426,121,o),
(426,247,cs),
(426,252,ls),
(426,381,o),
(476,458,o),
(558,458,cs),
(625,458,o),
(663,408,o),
(663,319,cs),
(663,292,o),
(661,280,o),
(654,253,c),
(703,297,l),
(380,275,l),
(380,243,l),
(733,250,l),
(740,267,o),
(742,283,o),
(742,310,cs),
(742,431,o),
(674,500,o),
(556,500,cs),
(424,500,o),
(343,400,o),
(343,240,cs),
(343,78,o),
(417,-10,o),
(552,-10,cs)
);
},
{
closed = 1;
nodes = (
(279,-10,o),
(353,52,o),
(367,146,c),
(416,147,l),
(416,301,ls),
(416,434,o),
(361,500,o),
(252,500,cs),
(169,500,o),
(110,472,o),
(60,410,c),
(117,360,l),
(136,422,o),
(178,456,o),
(235,456,cs),
(295,456,o),
(333,408,o),
(333,331,cs),
(333,169,ls),
(333,102,o),
(270,35,o),
(207,35,cs),
(165,35,o),
(139,64,o),
(139,111,cs),
(139,180,o),
(185,209,o),
(345,243,c),
(345,275,l),
(132,247,o),
(48,198,o),
(48,100,cs),
(48,40,o),
(106,-10,o),
(177,-10,cs)
);
}
);
userData = {
com.hugojourdan.ColorFlow = {
"0" = 0;
"1" = 0;
"10" = 0;
"11" = 0;
"2" = 0;
"3" = 0;
"4" = 0;
"5" = 0;
"6" = 0;
"7" = 0;
"8" = 0;
"9" = 0;
};
};
width = 790;
},
{
layerId = "FF73925E-1E34-445B-881D-5A7CAAA8E8BE";
shapes = (
{
closed = 1;
nodes = (
(637,-10,o),
(701,22,o),
(755,93,c),
(665,152,l),
(646,97,o),
(609,64,o),
(567,64,cs),
(507,64,o),
(476,123,o),
(476,238,cs),
(476,246,ls),
(476,359,o),
(506,436,o),
(550,436,cs),
(584,436,o),
(597,406,o),
(597,331,cs),
(597,302,o),
(594,279,o),
(586,248,c),
(633,297,l),
(424,269,l),
(424,228,l),
(744,235,l),
(751,269,o),
(755,295,o),
(755,316,cs),
(755,437,o),
(682,510,o),
(561,510,cs),
(426,510,o),
(347,414,o),
(347,250,cs),
(347,87,o),
(423,-10,o),
(550,-10,cs)
);
},
{
closed = 1;
nodes = (
(293,-10,o),
(360,45,o),
(372,142,c),
(436,142,l),
(436,288,ls),
(436,441,o),
(382,510,o),
(262,510,cs),
(169,510,o),
(99,482,o),
(40,420,c),
(113,351,l),
(140,406,o),
(185,436,o),
(238,436,cs),
(280,436,o),
(307,406,o),
(307,359,cs),
(307,154,ls),
(307,105,o),
(281,75,o),
(240,75,cs),
(206,75,o),
(184,98,o),
(184,136,cs),
(184,187,o),
(222,219,o),
(315,246,c),
(315,291,l),
(115,266,o),
(27,214,o),
(27,122,cs),
(27,41,o),
(87,-10,o),
(182,-10,cs)
);
}
);
userData = {
com.hugojourdan.ColorFlow = {
"0" = 0;
"1" = 0;
"10" = 0;
"11" = 0;
"2" = 0;
"3" = 0;
"4" = 0;
"5" = 0;
"6" = 0;
"7" = 0;
"8" = 0;
"9" = 0;
};
};
width = 782;
},
{
guides = (
{
angle = 186.6632;
pos = (342,239);
}
);
layerId = m004;
shapes = (
{
closed = 1;
nodes = (
(596,-10,o),
(646,17,o),
(689,75,c),
(651,104,l),
(619,59,o),
(576,34,o),
(530,34,cs),
(446,34,o),
(389,110,o),
(389,223,cs),
(389,249,ls),
(389,378,o),
(437,446,o),
(527,446,cs),
(608,446,o),
(656,390,o),
(656,296,cs),
(656,284,o),
(656,258,o),
(656,247,c),
(681,281,l),
(377,281,l),
(377,238,l),
(704,238,l),
(704,249,o),
(704,261,o),
(704,283,cs),
(704,415,o),
(642,490,o),
(531,490,cs),
(411,490,o),
(344,401,o),
(344,240,cs),
(344,80,o),
(410,-10,o),
(527,-10,cs)
);
},
{
closed = 1;
nodes = (
(274,-10,o),
(342,42,o),
(364,119,c),
(386,126,l),
(386,306,ls),
(386,426,o),
(333,490,o),
(235,490,cs),
(169,490,o),
(115,465,o),
(71,414,c),
(105,382,l),
(143,425,o),
(184,445,o),
(234,445,cs),
(303,445,o),
(344,400,o),
(344,322,cs),
(344,187,ls),
(344,99,o),
(286,35,o),
(206,35,cs),
(147,35,o),
(105,66,o),
(105,110,cs),
(105,183,o),
(173,218,o),
(358,239,c),
(356,282,l),
(142,257,o),
(57,208,o),
(57,108,cs),
(57,38,o),
(112,-10,o),
(194,-10,cs)
);
}
);
userData = {
com.hugojourdan.ColorFlow = {
"0" = 0;
"1" = 0;
"10" = 0;
"11" = 0;
"2" = 0;
"3" = 0;
"4" = 0;
"5" = 0;
"6" = 0;
"7" = 0;
"8" = 0;
"9" = 0;
};
};
width = 761;
},
{
layerId = m005;
shapes = (
{
closed = 1;
nodes = (
(625,-10,o),
(682,19,o),
(729,82,c),
(666,128,l),
(640,90,o),
(593,65,o),
(548,65,cs),
(472,65,o),
(426,126,o),
(426,229,cs),
(426,248,ls),
(426,363,o),
(467,425,o),
(543,425,cs),
(610,425,o),
(652,376,o),
(652,298,cs),
(652,284,o),
(652,266,o),
(652,256,c),
(685,281,l),
(395,281,l),
(395,217,l),
(740,217,l),
(741,234,o),
(742,250,o),
(742,269,cs),
(742,416,o),
(671,498,o),
(546,498,cs),
(417,498,o),
(343,405,o),
(343,242,cs),
(343,83,o),
(418,-10,o),
(547,-10,cs)
);
},
{
closed = 1;
nodes = (
(279,-10,o),
(346,37,o),
(371,116,c),
(416,117,l),
(416,305,ls),
(416,436,o),
(361,500,o),
(248,500,cs),
(169,500,o),
(110,474,o),
(62,418,c),
(116,367,l),
(150,404,o),
(190,423,o),
(234,423,cs),
(296,423,o),
(333,386,o),
(333,324,cs),
(333,190,ls),
(333,114,o),
(285,59,o),
(218,59,cs),
(170,59,o),
(138,88,o),
(138,130,cs),
(138,190,o),
(200,225,o),
(346,247,c),
(345,308,l),
(135,281,o),
(48,227,o),
(48,124,cs),
(48,43,o),
(105,-10,o),
(192,-10,cs)
);
}
);
userData = {
com.hugojourdan.ColorFlow = {
"0" = 0;
"1" = 0;
"10" = 0;
"11" = 0;
"2" = 0;
"3" = 0;
"4" = 0;
"5" = 0;
"6" = 0;
"7" = 0;
"8" = 0;
"9" = 0;
};
};
width = 790;
},
{
layerId = m006;
shapes = (
{
closed = 1;
nodes = (
(632,-10,o),
(693,22,o),
(745,93,c),
(642,166,l),
(622,136,o),
(584,113,o),
(554,113,cs),
(500,113,o),
(472,156,o),
(472,238,cs),
(472,247,ls),
(472,339,o),
(499,392,o),
(546,392,cs),
(577,392,o),
(598,357,o),
(598,305,cs),
(598,283,o),
(598,271,o),
(598,259,c),
(643,289,l),
(403,289,l),
(403,196,l),
(749,196,l),
(753,208,o),
(755,229,o),
(755,258,cs),
(755,415,o),
(681,510,o),
(559,510,cs),
(422,510,o),
(347,416,o),
(347,244,cs),
(347,86,o),
(422,-10,o),
(547,-10,cs)
);
},
{
closed = 1;
nodes = (
(275,-10,o),
(351,36,o),
(380,112,c),
(436,112,l),
(436,308,ls),
(436,444,o),
(379,510,o),
(261,510,cs),
(164,510,o),
(97,483,o),
(40,420,c),
(126,339,l),
(158,369,o),
(194,384,o),
(233,384,cs),
(275,384,o),
(307,360,o),
(307,328,cs),
(307,195,ls),
(307,137,o),
(275,97,o),
(230,97,cs),
(202,97,o),
(184,113,o),
(184,138,cs),
(184,181,o),
(232,212,o),
(321,226,c),
(321,316,l),
(116,288,o),
(27,231,o),
(27,129,cs),
(27,44,o),
(87,-10,o),
(182,-10,cs)
);
}
);
userData = {
com.hugojourdan.ColorFlow = {
"0" = 0;
"1" = 0;
"10" = 0;
"11" = 0;
"2" = 0;
"3" = 0;
"4" = 0;
"5" = 0;
"6" = 0;
"7" = 0;
"8" = 0;
"9" = 0;
};
};
width = 782;
}
);
metricLeft = "=a";
metricRight = "=e";
unicode = 230;
},
{
glyphname = b;
layers = (
{
layerId = m01;
shapes = (
{
closed = 1;
nodes = (
(412,-10,o),
(485,83,o),
(485,240,cs),
(485,397,o),
(412,490,o),
(288,490,cs),
(206,490,o),
(148,447,o),
(124,369,c),
(133,367,l),
(133,700,l),
(88,700,l),
(88,120,ls),
(88,51,o),
(87,35,o),
(78,0,c),
(116,0,l),
(125,35,o),
(126,51,o),
(126,120,c),
(119,119,l),
(144,36,o),
(203,-10,o),
(288,-10,cs)
);
},
{
closed = 1;
nodes = (
(195,18,o),
(133,90,o),
(133,197,cs),
(133,283,ls),
(133,390,o),
(195,462,o),
(285,462,cs),
(381,462,o),
(437,381,o),
(437,240,cs),
(437,99,o),
(381,18,o),
(285,18,cs)
);
}
);
userData = {
com.hugojourdan.ColorFlow = {
"0" = 0;
"1" = 0;
"10" = 0;
"11" = 0;
"2" = 0;
"3" = 0;
"4" = 0;
"5" = 0;
"6" = 0;
"7" = 0;
"8" = 0;
"9" = 0;
};
};
width = 542;
},
{
background = {
shapes = (
{
pos = (4,0);
ref = o;
}
);
};
layerId = "FF73925E-1E34-445B-881D-5A7CAAA8E8BE";
shapes = (
{
closed = 1;
nodes = (
(459,-10,o),
(536,88,o),
(536,252,cs),
(536,414,o),
(460,510,o),
(333,510,cs),
(271,510,o),
(226,489,o),
(199,447,c),
(218,425,l),
(218,700,l),
(49,700,l),
(49,112,ls),
(49,67,o),
(46,31,o),
(39,0,c),
(188,0,l),
(195,31,o),
(198,67,o),
(198,112,c),
(180,85,l),
(203,22,o),
(254,-10,o),
(331,-10,cs)
);
},
{
closed = 1;
nodes = (
(246,64,o),
(218,103,o),
(218,158,cs),
(218,342,ls),
(218,398,o),
(245,436,o),
(286,436,cs),
(336,436,o),
(362,374,o),
(362,251,cs),
(362,128,o),
(336,64,o),
(287,64,cs)
);
}
);
userData = {
com.hugojourdan.ColorFlow = {
"0" = 0;
"1" = 0;
"10" = 0;
"11" = 0;
"2" = 0;
"3" = 0;
"4" = 0;
"5" = 0;
"6" = 0;
"7" = 0;
"8" = 0;
"9" = 0;
};
};
width = 563;
},
{
background = {
shapes = (
{
pos = (20,0);
ref = o;
}
);
};
layerId = "BF6BA5B2-0556-42F4-A103-614BEBF16A1A";
shapes = (
{
closed = 1;
nodes = (
(442,-10,o),
(518,85,o),
(518,246,cs),
(518,405,o),
(442,500,o),
(313,500,cs),
(237,500,o),
(182,465,o),
(157,400,c),
(170,390,l),
(170,700,l),
(77,700,l),
(77,125,ls),
(77,80,o),
(75,43,o),
(67,0,c),
(145,0,l),
(153,43,o),
(155,80,o),
(155,125,c),
(146,107,l),
(171,31,o),
(229,-10,o),
(313,-10,cs)
);
},
{
closed = 1;
nodes = (
(220,34,o),
(170,95,o),
(170,185,cs),
(170,305,ls),
(170,395,o),
(220,456,o),
(293,456,cs),
(376,456,o),
(422,381,o),
(422,245,cs),
(422,109,o),
(377,34,o),
(294,34,cs)
);
}
);
userData = {
com.hugojourdan.ColorFlow = {
"0" = 0;
"1" = 0;
"10" = 0;
"11" = 0;
"2" = 0;
"3" = 0;
"4" = 0;
"5" = 0;
"6" = 0;
"7" = 0;
"8" = 0;
"9" = 0;
};
};
width = 566;
},
{
associatedMasterId = "BF6BA5B2-0556-42F4-A103-614BEBF16A1A";
layerId = "1541BBAC-7119-4381-9C00-EC84D554BAFD";
name = "13 Jun 23 10.49 AM";
shapes = (
{
closed = 1;
nodes = (
(430,-10,o),
(495,80,o),
(495,246,cs),
(495,410,o),
(430,500,o),
(312,500,cs),
(235,500,o),
(189,461,o),
(167,415,c),
(180,392,l),
(180,740,l),
(87,740,l),
(87,127,ls),
(87,85,o),
(87,42,o),
(77,0,c),
(155,0,l),
(162,36,o),
(166,71,o),
(164,107,c),
(159,107,l),
(159,47,o),
(227,-10,o),
(312,-10,cs)
);
},
{
closed = 1;
nodes = (
(228,34,o),
(180,86,o),
(180,140,cs),
(180,350,ls),
(180,404,o),
(228,456,o),
(281,456,cs),
(360,456,o),
(400,388,o),
(400,246,cs),
(400,102,o),
(360,34,o),
(281,34,cs)
);
}
);
userData = {
com.hugojourdan.ColorFlow = {
"0" = 0;
"1" = 0;
"10" = 0;
"11" = 0;
"2" = 0;
"3" = 0;
"4" = 0;
"5" = 0;
"6" = 0;
"7" = 0;
"8" = 0;
"9" = 0;
};
};
width = 545;
},
{
associatedMasterId = "FF73925E-1E34-445B-881D-5A7CAAA8E8BE";
background = {
shapes = (
{
pos = (54,0);
ref = o;
}
);
};
layerId = "5F2194A1-B64B-4A0A-BF1B-5989FBE92720";
name = "13 Jun 23 10.54 AM";
shapes = (
{
closed = 1;
nodes = (
(472,-10,o),
(540,83,o),
(540,250,cs),
(540,417,o),
(472,510,o),
(351,510,cs),
(306,510,o),
(268,496,o),
(240,468,c),
(240,740,l),
(71,740,l),
(71,112,ls),
(71,76,o),
(68,39,o),
(61,0,c),
(210,0,l),
(216,30,o),
(218,60,o),
(221,87,c),
(204,87,l),
(228,24,o),
(282,-10,o),
(351,-10,cs)
);
},
{
closed = 1;
nodes = (
(264,64,o),
(240,92,o),
(240,144,cs),
(240,356,ls),
(240,408,o),
(264,436,o),
(296,436,cs),
(346,436,o),
(369,369,o),
(369,250,cs),
(369,131,o),
(346,64,o),
(296,64,cs)
);
}
);
userData = {
com.hugojourdan.ColorFlow = {
"0" = 0;
"1" = 0;
"10" = 0;
"11" = 0;
"2" = 0;
"3" = 0;
"4" = 0;
"5" = 0;
"6" = 0;
"7" = 0;
"8" = 0;
"9" = 0;
};
};
width = 574;
},
{
background = {
shapes = (
{
closed = 1;
nodes = (
(413,-10,o),
(485,80,o),
(485,240,cs),
(485,400,o),
(413,490,o),
(284,490,cs),
(155,490,o),
(83,400,o),
(83,240,cs),
(83,80,o),
(155,-10,o),
(284,-10,cs)
);
},
{
closed = 1;
nodes = (
(186,32,o),
(131,107,o),
(131,240,cs),
(131,373,o),
(186,448,o),
(284,448,cs),
(382,448,o),
(437,373,o),
(437,240,cs),
(437,107,o),
(382,32,o),
(284,32,cs)
);
}
);
};
layerId = m004;
shapes = (
{
closed = 1;
nodes = (
(411,-10,o),
(485,81,o),
(485,240,cs),
(485,399,o),
(411,490,o),
(287,490,cs),
(207,490,o),
(151,452,o),
(119,374,c),
(133,360,l),
(133,700,l),
(88,700,l),
(88,120,ls),
(88,75,o),
(88,45,o),
(88,0,c),
(129,0,l),
(129,75,o),
(129,45,o),
(129,120,c),
(119,106,l),
(151,28,o),
(207,-10,o),
(287,-10,cs)
);
},
{
closed = 1;
nodes = (
(185,32,o),
(133,105,o),
(133,240,cs),
(133,240,ls),
(133,375,o),
(185,448,o),
(282,448,cs),
(382,448,o),
(437,375,o),
(437,240,cs),
(437,105,o),
(382,32,o),
(282,32,cs)
);
}
);
userData = {
com.hugojourdan.ColorFlow = {
"0" = 0;
"1" = 0;
"10" = 0;
"11" = 0;
"2" = 0;
"3" = 0;
"4" = 0;
"5" = 0;
"6" = 0;
"7" = 0;
"8" = 0;
"9" = 0;
};
};
width = 542;
},
{
background = {
shapes = (
{
pos = (20,0);
ref = o;
}
);
};
layerId = m005;
shapes = (
{
closed = 1;
nodes = (
(441,-10,o),
(518,88,o),
(518,245,cs),
(518,401,o),
(441,500,o),
(318,500,cs),
(233,500,o),
(170,456,o),
(147,379,c),
(171,385,l),
(171,700,l),
(78,700,l),
(78,105,ls),
(78,68,o),
(78,37,o),
(78,0,c),
(161,0,l),
(161,37,o),
(161,68,o),
(161,105,c),
(143,111,l),
(167,35,o),
(232,-10,o),
(318,-10,cs)
);
},
{
closed = 1;
nodes = (
(215,67,o),
(170,130,o),
(170,245,cs),
(170,245,ls),
(170,358,o),
(216,423,o),
(296,423,cs),
(375,423,o),
(422,357,o),
(422,245,cs),
(422,133,o),
(375,67,o),
(296,67,cs)
);
}
);
userData = {
com.hugojourdan.ColorFlow = {
"0" = 0;
"1" = 0;
"10" = 0;
"11" = 0;
"2" = 0;
"3" = 0;
"4" = 0;
"5" = 0;
"6" = 0;
"7" = 0;
"8" = 0;
"9" = 0;
};
};
width = 566;
},
{
layerId = m006;
shapes = (
{
closed = 1;
nodes = (
(466,-10,o),
(536,81,o),
(536,250,cs),
(536,419,o),
(466,510,o),
(337,510,cs),
(257,510,o),
(205,474,o),
(182,403,c),
(218,388,l),
(218,700,l),
(49,700,l),
(49,112,ls),
(49,76,o),
(49,36,o),
(49,0,c),
(199,0,l),
(199,36,o),
(199,75,o),
(199,112,c),
(182,97,l),
(205,26,o),
(257,-10,o),
(337,-10,cs)
);
},
{
closed = 1;
nodes = (
(240,117,o),
(218,158,o),
(218,248,cs),
(218,248,ls),
(218,338,o),
(240,378,o),
(290,378,cs),
(340,378,o),
(362,338,o),
(362,248,cs),
(362,157,o),
(340,117,o),
(290,117,cs)
);
}
);
userData = {
com.hugojourdan.ColorFlow = {
"0" = 0;
"1" = 0;
"10" = 0;
"11" = 0;
"2" = 0;
"3" = 0;
"4" = 0;
"5" = 0;
"6" = 0;
"7" = 0;
"8" = 0;
"9" = 0;
};
};
width = 563;
}
);
metricLeft = "=n*1.02";
metricRight = "=o";
note = b;
unicode = 98;
},
{
glyphname = c;
layers = (
{
anchors = (
{
name = bottom;
pos = (254,0);
}
);
background = {
shapes = (
{
pos = (-2,0);
ref = o;
}
);
};
layerId = m01;
shapes = (
{
closed = 1;
nodes = (
(317,-10,o),
(374,19,o),
(419,75,c),
(375,108,l),
(347,49,o),
(305,18,o),
(254,18,cs),
(160,18,o),
(105,100,o),
(105,240,cs),
(105,380,o),
(160,462,o),
(254,462,cs),
(304,462,o),
(345,433,o),
(373,377,c),
(412,414,l),
(368,464,o),
(314,490,o),
(253,490,cs),
(129,490,o),
(57,398,o),
(57,240,cs),
(57,82,o),
(129,-10,o),
(253,-10,cs)
);
}
);
userData = {
com.hugojourdan.ColorFlow = {
"0" = 0;
"1" = 0;
"10" = 0;
"11" = 0;
"2" = 0;
"3" = 0;
"4" = 0;
"5" = 0;
"6" = 0;
"7" = 0;
"8" = 0;
"9" = 0;
};
};
width = 466;
},
{
anchors = (
{
name = bottom;
pos = (278,0);
}
);
layerId = "FF73925E-1E34-445B-881D-5A7CAAA8E8BE";
shapes = (
{
closed = 1;
nodes = (
(361,-10,o),
(419,18,o),
(480,93,c),
(388,154,l),
(366,96,o),
(334,64,o),
(298,64,cs),
(237,64,o),
(201,135,o),
(201,254,cs),
(201,366,o),
(237,436,o),
(294,436,cs),
(330,436,o),
(360,408,o),
(381,354,c),
(469,420,l),
(415,481,o),
(348,510,o),
(260,510,cs),
(117,510,o),
(27,410,o),
(27,250,cs),
(27,92,o),
(120,-10,o),
(266,-10,cs)
);
}
);
userData = {
com.hugojourdan.ColorFlow = {
"0" = 0;
"1" = 0;
"10" = 0;
"11" = 0;
"2" = 0;
"3" = 0;
"4" = 0;
"5" = 0;
"6" = 0;
"7" = 0;
"8" = 0;
"9" = 0;
};
};
width = 502;
},
{
anchors = (
{
name = bottom;
pos = (271,0);
}
);
background = {
shapes = (
{
pos = (-2,0);
ref = o;
}
);
};
layerId = "BF6BA5B2-0556-42F4-A103-614BEBF16A1A";
shapes = (
{
closed = 1;
nodes = (
(346,-10,o),
(416,28,o),
(447,88,c),
(386,130,l),
(368,71,o),
(326,34,o),
(276,34,cs),
(195,34,o),
(144,116,o),
(144,246,cs),
(144,375,o),
(195,456,o),
(276,456,cs),
(326,456,o),
(368,419,o),
(386,360,c),
(443,410,l),
(411,465,o),
(342,500,o),
(266,500,cs),
(132,500,o),
(48,402,o),
(48,246,cs),
(48,89,o),
(132,-10,o),
(266,-10,cs)
);
}
);
userData = {
com.hugojourdan.ColorFlow = {
"0" = 0;
"1" = 0;
"10" = 0;
"11" = 0;
"2" = 0;
"3" = 0;
"4" = 0;
"5" = 0;
"6" = 0;
"7" = 0;
"8" = 0;
"9" = 0;
};
};
width = 487;
},
{
anchors = (
{
name = bottom;
pos = (285,0);
}
);
associatedMasterId = "FF73925E-1E34-445B-881D-5A7CAAA8E8BE";
background = {
shapes = (
{
ref = e;
}
);
};
guides = (
{
angle = 146.8024;
pos = (447,120);
}
);
layerId = "C737E8C0-69C2-47E5-B794-154320ECB742";
name = "12 Jun 23 1.22 PM";
shapes = (
{
closed = 1;
nodes = (
(369,-10,o),
(428,19,o),
(487,94,c),
(401,150,l),
(374,94,o),
(345,64,o),
(307,64,cs),
(245,64,o),
(208,135,o),
(208,254,cs),
(208,366,o),
(244,436,o),
(301,436,cs),
(349,436,o),
(390,404,o),
(406,354,c),
(476,420,l),
(426,475,o),
(345,510,o),
(267,510,cs),
(124,510,o),
(34,410,o),
(34,250,cs),
(34,88,o),
(126,-10,o),
(276,-10,cs)
);
}
);
userData = {
com.hugojourdan.ColorFlow = {
"0" = 0;
"1" = 0;
"10" = 0;
"11" = 0;
"2" = 0;
"3" = 0;
"4" = 0;
"5" = 0;
"6" = 0;
"7" = 0;
"8" = 0;
"9" = 0;
};
};
width = 506;
},
{
anchors = (
{
name = bottom;
pos = (252,0);
}
);
associatedMasterId = m01;
layerId = "707BF090-8F86-4750-80EF-9DF17BCC4308";
name = "14 Jun 23 1.50 PM";
shapes = (
{
closed = 1;
nodes = (
(313,-10,o),
(369,19,o),
(413,75,c),
(369,108,l),
(342,49,o),
(301,18,o),
(252,18,cs),
(161,18,o),
(107,100,o),
(107,240,cs),
(107,380,o),
(161,462,o),
(252,462,cs),
(300,462,o),
(340,432,o),
(367,377,c),
(406,414,l),
(363,464,o),
(310,490,o),
(251,490,cs),
(130,490,o),
(59,398,o),
(59,240,cs),
(59,82,o),
(130,-10,o),
(251,-10,cs)
);
}
);
userData = {
com.hugojourdan.ColorFlow = {
"0" = 0;
"1" = 0;
"10" = 0;
"11" = 0;
"2" = 0;
"3" = 0;
"4" = 0;
"5" = 0;
"6" = 0;
"7" = 0;
"8" = 0;
"9" = 0;
};
};
width = 441;
},
{
anchors = (
{
name = bottom;
pos = (265,0);
}
);
associatedMasterId = "BF6BA5B2-0556-42F4-A103-614BEBF16A1A";
layerId = "CB13906D-9790-4CB6-860E-371883AE97F9";
name = "14 Jun 23 1.50 PM";
shapes = (
{
closed = 1;
nodes = (
(337,-10,o),
(403,28,o),
(433,88,c),
(372,130,l),
(355,71,o),
(316,34,o),
(270,34,cs),
(194,34,o),
(146,116,o),
(146,246,cs),
(146,375,o),
(194,456,o),
(270,456,cs),
(316,456,o),
(355,419,o),
(372,360,c),
(429,410,l),
(398,465,o),
(332,500,o),
(260,500,cs),
(131,500,o),
(50,402,o),
(50,246,cs),
(50,89,o),
(131,-10,o),
(260,-10,cs)
);
}
);
userData = {
com.hugojourdan.ColorFlow = {
"0" = 0;
"1" = 0;
"10" = 0;
"11" = 0;
"2" = 0;
"3" = 0;
"4" = 0;
"5" = 0;
"6" = 0;
"7" = 0;
"8" = 0;
"9" = 0;
};
};
width = 448;
},
{
anchors = (
{
name = bottom;
pos = (285,0);
}
);
associatedMasterId = "FF73925E-1E34-445B-881D-5A7CAAA8E8BE";
layerId = "15E4DCAD-7ECB-4811-9CB4-597CA402E569";
name = "14 Jun 23 1.50 PM";
shapes = (
{
closed = 1;
nodes = (
(351,-10,o),
(436,30,o),
(487,93,c),
(396,153,l),
(385,97,o),
(352,64,o),
(306,64,cs),
(245,64,o),
(208,135,o),
(208,254,cs),
(208,366,o),
(244,436,o),
(301,436,cs),
(349,436,o),
(390,404,o),
(406,354,c),
(476,420,l),
(426,475,o),
(345,510,o),
(267,510,cs),
(124,510,o),
(34,410,o),
(34,250,cs),
(34,90,o),
(124,-10,o),
(268,-10,cs)
);
}
);
userData = {
com.hugojourdan.ColorFlow = {
"0" = 0;
"1" = 0;
"10" = 0;
"11" = 0;
"2" = 0;
"3" = 0;
"4" = 0;
"5" = 0;
"6" = 0;
"7" = 0;
"8" = 0;
"9" = 0;
};
};
width = 506;
},
{
anchors = (
{
name = bottom;
pos = (254,0);
}
);
background = {
shapes = (
{
ref = o;
}
);
};
layerId = m004;
shapes = (
{
closed = 1;
nodes = (
(319,-10,o),
(372,18,o),
(419,79,c),
(381,108,l),
(347,58,o),
(303,32,o),
(251,32,cs),
(160,32,o),
(105,111,o),
(105,240,cs),
(105,369,o),
(160,448,o),
(252,448,cs),
(299,448,o),
(339,427,o),
(377,381,c),
(412,414,l),
(363,467,o),
(314,490,o),
(252,490,cs),
(129,490,o),
(57,398,o),
(57,240,cs),
(57,81,o),
(130,-10,o),
(252,-10,cs)
);
}
);
userData = {
com.hugojourdan.ColorFlow = {
"0" = 0;
"1" = 0;
"10" = 0;
"11" = 0;
"2" = 0;
"3" = 0;
"4" = 0;
"5" = 0;
"6" = 0;
"7" = 0;
"8" = 0;
"9" = 0;
};
};
width = 466;
},
{
anchors = (
{
name = bottom;
pos = (272,0);
}
);
background = {
shapes = (
{
pos = (-2,0);
ref = o;
}
);
};
guides = (
{
angle = 90.6437;
pos = (445,249);
},
{
angle = 90.6437;
pos = (445,249);
}
);
layerId = m005;
shapes = (
{
closed = 1;
nodes = (
(334,-10,o),
(398,18,o),
(447,71,c),
(396,131,l),
(362,89,o),
(323,70,o),
(274,70,cs),
(188,70,o),
(144,129,o),
(144,243,cs),
(144,359,o),
(189,420,o),
(275,420,cs),
(321,420,o),
(360,402,o),
(395,364,c),
(443,427,l),
(396,474,o),
(332,500,o),
(263,500,cs),
(130,500,o),
(48,403,o),
(48,245,cs),
(48,87,o),
(130,-10,o),
(263,-10,cs)
);
}
);
userData = {
com.hugojourdan.ColorFlow = {
"0" = 0;
"1" = 0;
"10" = 0;
"11" = 0;
"2" = 0;
"3" = 0;
"4" = 0;
"5" = 0;
"6" = 0;
"7" = 0;
"8" = 0;
"9" = 0;
};
};
width = 487;
},
{
anchors = (
{
name = bottom;
pos = (288,0);
}
);
background = {
shapes = (
{
ref = o;
}
);
};
guides = (
{
angle = 122.9694;
pos = (444,115);
},
{
pos = (380,25);
}
);
layerId = m006;
shapes = (
{
closed = 1;
nodes = (
(357,-10,o),
(429,15,o),
(480,59,c),
(408,170,l),
(377,145,o),
(342,133,o),
(302,133,cs),
(232,133,o),
(201,169,o),
(201,251,cs),
(201,332,o),
(232,370,o),
(296,370,cs),
(334,370,o),
(368,357,o),
(397,331,c),
(469,441,l),
(419,486,o),
(353,510,o),
(278,510,cs),
(124,510,o),
(27,409,o),
(27,250,cs),
(27,91,o),
(125,-10,o),
(279,-10,cs)
);
}
);
userData = {
com.hugojourdan.ColorFlow = {
"0" = 0;
"1" = 0;
"10" = 0;
"11" = 0;
"2" = 0;
"3" = 0;
"4" = 0;
"5" = 0;
"6" = 0;
"7" = 0;
"8" = 0;
"9" = 0;
};
};
width = 502;
}
);
metricLeft = "=o";
metricRight = "=|*0.83";
note = c;
unicode = 99;
},
{
glyphname = d;
layers = (
{
layerId = m01;
shapes = (
{
closed = 1;
nodes = (
(339,-10,o),
(398,36,o),
(423,119,c),
(416,120,l),
(416,51,o),
(417,35,o),
(426,0,c),
(464,0,l),
(455,35,o),
(454,51,o),
(454,120,cs),
(454,700,l),
(409,700,l),
(409,367,l),
(418,369,l),
(394,447,o),
(336,490,o),
(254,490,cs),
(130,490,o),
(57,397,o),
(57,240,cs),
(57,83,o),
(130,-10,o),
(254,-10,cs)
);
},
{
closed = 1;
nodes = (
(161,18,o),
(105,99,o),
(105,240,cs),
(105,381,o),
(161,462,o),
(257,462,cs),
(347,462,o),
(409,390,o),
(409,283,cs),
(409,197,ls),
(409,90,o),
(347,18,o),
(257,18,cs)
);
}
);
userData = {
com.hugojourdan.ColorFlow = {
"0" = 0;
"1" = 0;
"10" = 0;
"11" = 0;
"2" = 0;
"3" = 0;
"4" = 0;
"5" = 0;
"6" = 0;
"7" = 0;
"8" = 0;
"9" = 0;
};
};
width = 542;
},
{
layerId = "FF73925E-1E34-445B-881D-5A7CAAA8E8BE";
shapes = (
{
closed = 1;
nodes = (
(309,-10,o),
(360,22,o),
(383,85,c),
(365,112,l),
(365,67,o),
(368,31,o),
(375,0,c),
(524,0,l),
(517,31,o),
(514,67,o),
(514,112,cs),
(514,700,l),
(345,700,l),
(345,425,l),
(364,447,l),
(337,489,o),
(292,510,o),
(230,510,cs),
(103,510,o),
(27,414,o),
(27,252,cs),
(27,88,o),
(104,-10,o),
(232,-10,cs)
);
},
{
closed = 1;
nodes = (
(227,64,o),
(201,128,o),
(201,251,cs),
(201,374,o),
(227,436,o),
(277,436,cs),
(318,436,o),
(345,398,o),
(345,342,cs),
(345,158,ls),
(345,103,o),
(317,64,o),
(276,64,cs)
);
}
);
userData = {
com.hugojourdan.ColorFlow = {
"0" = 0;
"1" = 0;
"10" = 0;
"11" = 0;
"2" = 0;
"3" = 0;
"4" = 0;
"5" = 0;
"6" = 0;
"7" = 0;
"8" = 0;
"9" = 0;
};
};
width = 563;
},
{
layerId = "BF6BA5B2-0556-42F4-A103-614BEBF16A1A";
shapes = (
{
closed = 1;
nodes = (
(337,-10,o),
(395,31,o),
(420,107,c),
(411,125,l),
(411,80,o),
(413,43,o),
(421,0,c),
(499,0,l),
(491,43,o),
(489,80,o),
(489,125,cs),
(489,700,l),
(396,700,l),
(396,390,l),
(409,400,l),
(384,465,o),
(329,500,o),
(253,500,cs),
(124,500,o),
(48,405,o),
(48,246,cs),
(48,85,o),
(124,-10,o),
(253,-10,cs)
);
},
{
closed = 1;
nodes = (
(189,34,o),
(144,109,o),
(144,245,cs),
(144,381,o),
(190,456,o),
(273,456,cs),
(346,456,o),
(396,395,o),
(396,305,cs),
(396,185,ls),
(396,95,o),
(346,34,o),
(272,34,cs)
);
}
);
userData = {
com.hugojourdan.ColorFlow = {
"0" = 0;
"1" = 0;
"10" = 0;
"11" = 0;
"2" = 0;
"3" = 0;
"4" = 0;
"5" = 0;
"6" = 0;
"7" = 0;
"8" = 0;
"9" = 0;
};
};
width = 566;
},
{
associatedMasterId = "FF73925E-1E34-445B-881D-5A7CAAA8E8BE";
layerId = "37B75A61-6AC9-4492-B793-26D46BEBBD36";
name = "13 Jun 23 12.08 PM";
shapes = (
{
closed = 1;
nodes = (
(292,-10,o),
(346,24,o),
(370,87,c),
(353,87,l),
(356,60,o),
(358,30,o),
(364,0,c),
(513,0,l),
(506,39,o),
(503,76,o),
(503,112,cs),
(503,740,l),
(334,740,l),
(334,468,l),
(306,496,o),
(268,510,o),
(223,510,cs),
(102,510,o),
(34,417,o),
(34,250,cs),
(34,83,o),
(102,-10,o),
(223,-10,cs)
);
},
{
closed = 1;
nodes = (
(228,64,o),
(205,131,o),
(205,250,cs),
(205,369,o),
(228,436,o),
(278,436,cs),
(310,436,o),
(334,408,o),
(334,356,cs),
(334,144,ls),
(334,92,o),
(310,64,o),
(278,64,cs)
);
}
);
userData = {
com.hugojourdan.ColorFlow = {
"0" = 0;
"1" = 0;
"10" = 0;
"11" = 0;
"2" = 0;
"3" = 0;
"4" = 0;
"5" = 0;
"6" = 0;
"7" = 0;
"8" = 0;
"9" = 0;
};
};
width = 574;
},
{
associatedMasterId = "BF6BA5B2-0556-42F4-A103-614BEBF16A1A";
layerId = "09E2CD4A-1A0D-4F92-B478-829F2C89EA22";
name = "13 Jun 23 12.09 PM";
shapes = (
{
closed = 1;
nodes = (
(318,-10,o),
(386,47,o),
(386,107,c),
(381,107,l),
(379,71,o),
(381,36,o),
(385,0,c),
(463,0,l),
(458,42,o),
(458,85,o),
(458,127,cs),
(458,740,l),
(365,740,l),
(365,438,l),
(340,474,o),
(297,500,o),
(233,500,cs),
(115,500,o),
(50,411,o),
(50,246,cs),
(50,80,o),
(115,-10,o),
(233,-10,cs)
);
},
{
closed = 1;
nodes = (
(185,34,o),
(145,102,o),
(145,246,cs),
(145,389,o),
(185,456,o),
(264,456,cs),
(317,456,o),
(365,405,o),
(365,351,cs),
(365,140,ls),
(365,86,o),
(317,34,o),
(264,34,cs)
);
}
);
userData = {
com.hugojourdan.ColorFlow = {
"0" = 0;
"1" = 0;
"10" = 0;
"11" = 0;
"2" = 0;
"3" = 0;
"4" = 0;
"5" = 0;
"6" = 0;
"7" = 0;
"8" = 0;
"9" = 0;
};
};
width = 540;
},
{
background = {
shapes = (
{
pos = (540,0);
ref = n;
scale = (-1,1);
}
);
};
layerId = m004;
shapes = (
{
closed = 1;
nodes = (
(349,-10,o),
(407,35,o),
(427,120,c),
(414,120,l),
(413,100,o),
(413,100,o),
(413,0,c),
(454,0,l),
(454,37,o),
(454,74,o),
(454,111,cs),
(454,700,l),
(409,700,l),
(409,365,l),
(425,374,l),
(398,450,o),
(342,490,o),
(257,490,cs),
(129,490,o),
(57,400,o),
(57,240,cs),
(57,80,o),
(129,-10,o),
(257,-10,cs)
);
},
{
closed = 1;
nodes = (
(160,32,o),
(105,106,o),
(105,240,cs),
(105,374,o),
(160,448,o),
(260,448,cs),
(357,448,o),
(409,375,o),
(409,240,cs),
(409,240,ls),
(409,105,o),
(357,32,o),
(260,32,cs)
);
}
);
userData = {
com.hugojourdan.ColorFlow = {
"0" = 0;
"1" = 0;
"10" = 0;
"11" = 0;
"2" = 0;
"3" = 0;
"4" = 0;
"5" = 0;
"6" = 0;
"7" = 0;
"8" = 0;
"9" = 0;
};
};
width = 542;
},
{
background = {
shapes = (
{
pos = (558,0);
ref = n;
scale = (-1,1);
}
);
};
layerId = m005;
shapes = (
{
closed = 1;
nodes = (
(334,-10,o),
(399,35,o),
(423,111,c),
(405,105,l),
(405,68,o),
(405,37,o),
(405,0,c),
(488,0,l),
(488,37,o),
(488,68,o),
(488,105,cs),
(488,700,l),
(395,700,l),
(395,385,l),
(419,379,l),
(396,456,o),
(333,500,o),
(248,500,cs),
(125,500,o),
(48,401,o),
(48,245,cs),
(48,88,o),
(125,-10,o),
(248,-10,cs)
);
},
{
closed = 1;
nodes = (
(191,67,o),
(144,133,o),
(144,245,cs),
(144,357,o),
(191,423,o),
(270,423,cs),
(350,423,o),
(396,358,o),
(396,245,cs),
(396,245,ls),
(396,130,o),
(351,67,o),
(270,67,cs)
);
}
);
userData = {
com.hugojourdan.ColorFlow = {
"0" = 0;
"1" = 0;
"10" = 0;
"11" = 0;
"2" = 0;
"3" = 0;
"4" = 0;
"5" = 0;
"6" = 0;
"7" = 0;
"8" = 0;
"9" = 0;
};
};
width = 566;
},
{
layerId = m006;
shapes = (
{
closed = 1;
nodes = (
(306,-10,o),
(358,26,o),
(381,97,c),
(364,112,l),
(364,75,o),
(364,36,o),
(364,0,c),
(514,0,l),
(514,36,o),
(514,76,o),
(514,112,cs),
(514,700,l),
(345,700,l),
(345,388,l),
(381,403,l),
(358,474,o),
(306,510,o),
(226,510,cs),
(97,510,o),
(27,419,o),
(27,250,cs),
(27,81,o),
(97,-10,o),
(226,-10,cs)
);
},
{
closed = 1;
nodes = (
(223,117,o),
(201,157,o),
(201,248,cs),
(201,338,o),
(223,378,o),
(273,378,cs),
(323,378,o),
(345,338,o),
(345,248,cs),
(345,248,ls),
(345,158,o),
(323,117,o),
(273,117,cs)
);
}
);
userData = {
com.hugojourdan.ColorFlow = {
"0" = 0;
"1" = 0;
"10" = 0;
"11" = 0;
"2" = 0;
"3" = 0;
"4" = 0;
"5" = 0;
"6" = 0;
"7" = 0;
"8" = 0;
"9" = 0;
};
};
width = 563;
}
);
metricLeft = "=o";
metricRight = "=|n*1.02";
note = d;
unicode = 100;
},
{
glyphname = e;
layers = (
{
anchors = (
{
name = top;
pos = (270,480);
}
);
background = {
shapes = (
{
ref = o;
}
);
};
layerId = m01;
shapes = (
{
closed = 1;
nodes = (
(328,-10,o),
(387,18,o),
(435,75,c),
(391,108,l),
(361,48,o),
(316,18,o),
(259,18,cs),
(163,18,o),
(103,105,o),
(105,243,cs),
(105,249,ls),
(105,383,o),
(166,462,o),
(268,462,cs),
(349,462,o),
(402,409,o),
(402,327,cs),
(402,305,o),
(399,280,o),
(391,249,c),
(434,279,l),
(89,258,l),
(89,233,l),
(438,240,l),
(443,267,o),
(446,294,o),
(446,318,cs),
(446,425,o),
(379,490,o),
(268,490,cs),
(132,490,o),
(57,401,o),
(57,240,cs),
(57,83,o),
(132,-10,o),
(258,-10,cs)
);
}
);
userData = {
com.hugojourdan.ColorFlow = {
"0" = 0;
"1" = 0;
"10" = 0;
"11" = 0;
"2" = 0;
"3" = 0;
"4" = 0;
"5" = 0;
"6" = 0;
"7" = 0;
"8" = 0;
"9" = 0;
};
};
width = 503;
},
{
anchors = (
{
name = top;
pos = (277,490);
}
);
background = {
shapes = (
{
pos = (-2,0);
ref = o;
}
);
};
guides = (
{
angle = 145.4516;
pos = (426,109);
}
);
layerId = "BF6BA5B2-0556-42F4-A103-614BEBF16A1A";
shapes = (
{
closed = 1;
nodes = (
(362,-10,o),
(422,22,o),
(456,88,c),
(395,130,l),
(376,69,o),
(333,34,o),
(278,34,cs),
(197,34,o),
(142,121,o),
(142,247,cs),
(142,252,ls),
(142,381,o),
(193,458,o),
(278,458,cs),
(348,458,o),
(387,408,o),
(387,319,cs),
(387,282,o),
(386,269,o),
(378,243,c),
(423,281,l),
(100,259,l),
(100,227,l),
(457,234,l),
(464,257,o),
(466,278,o),
(466,302,cs),
(466,430,o),
(398,500,o),
(276,500,cs),
(135,500,o),
(48,400,o),
(48,240,cs),
(48,77,o),
(127,-10,o),
(272,-10,cs)
);
}
);
userData = {
com.hugojourdan.ColorFlow = {
"0" = 0;
"1" = 0;
"10" = 0;
"11" = 0;
"2" = 0;
"3" = 0;
"4" = 0;
"5" = 0;
"6" = 0;
"7" = 0;
"8" = 0;
"9" = 0;
};
};
width = 514;
},
{
anchors = (
{
name = top;
pos = (272,500);
}
);
associatedMasterId = "FF73925E-1E34-445B-881D-5A7CAAA8E8BE";
layerId = "7BB96231-CDA0-4CDC-B115-3163B4645357";
name = "12 Jun 23 1.21 PM";
shapes = (
{
closed = 1;
nodes = (
(184,219,l),
(466,225,l),
(472,252,o),
(477,283,o),
(477,316,cs),
(477,410,o),
(437,510,o),
(271,510,cs),
(125,510,o),
(34,410,o),
(34,250,cs),
(34,81,o),
(116,-10,o),
(268,-10,cs),
(359,-10,o),
(431,24,o),
(487,93,c),
(406,146,l),
(390,97,o),
(346,64,o),
(298,64,cs),
(237,64,o),
(203,118,o),
(200,224,cs),
(200,259,ls),
(196,362,o),
(224,436,o),
(273,436,cs),
(311,436,o),
(330,401,o),
(330,331,cs),
(330,309,o),
(328,292,o),
(325,281,c),
(184,263,l)
);
}
);
userData = {
com.hugojourdan.ColorFlow = {
"0" = 0;
"1" = 0;
"10" = 0;
"11" = 0;
"2" = 0;
"3" = 0;
"4" = 0;
"5" = 0;
"6" = 0;
"7" = 0;
"8" = 0;
"9" = 0;
};
};
visible = 1;
width = 517;
},
{
anchors = (
{
name = top;
pos = (270,500);
}
);
background = {
shapes = (
{
pos = (-5,0);
ref = o;
}
);
};
guides = (
{
angle = 146.8024;
pos = (445,120);
}
);
layerId = "FF73925E-1E34-445B-881D-5A7CAAA8E8BE";
name = Bold;
shapes = (
{
closed = 1;
nodes = (
(369,-10,o),
(434,22,o),
(490,93,c),
(400,152,l),
(381,100,o),
(343,64,o),
(296,64,cs),
(232,64,o),
(199,123,o),
(199,238,cs),
(199,246,ls),
(199,360,o),
(231,436,o),
(279,436,cs),
(317,436,o),
(332,406,o),
(332,331,cs),
(332,302,o),
(329,279,o),
(321,248,c),
(368,287,l),
(153,259,l),
(153,218,l),
(479,225,l),
(487,265,o),
(490,294,o),
(490,316,cs),
(490,440,o),
(412,510,o),
(275,510,cs),
(121,510,o),
(27,411,o),
(27,250,cs),
(27,86,o),
(120,-10,o),
(279,-10,cs)
);
}
);
userData = {
com.hugojourdan.ColorFlow = {
"0" = 0;
"1" = 0;
"10" = 0;
"11" = 0;
"2" = 0;
"3" = 0;
"4" = 0;
"5" = 0;
"6" = 0;
"7" = 0;
"8" = 0;
"9" = 0;
};
};
width = 517;
},
{
anchors = (
{
name = top;
pos = (258,480);
}
);
background = {
shapes = (
{
ref = o;
}
);
};
layerId = m004;
shapes = (
{
closed = 1;
nodes = (
(332,-10,o),
(385,17,o),
(435,79,c),
(397,108,l),
(360,58,o),
(310,32,o),
(259,32,cs),
(166,32,o),
(105,110,o),
(105,227,cs),
(105,253,ls),
(105,375,o),
(162,448,o),
(256,448,cs),
(345,448,o),
(398,391,o),
(398,296,cs),
(398,286,o),
(398,263,o),
(398,254,c),
(423,276,l),
(93,276,l),
(93,231,l),
(444,231,l),
(446,254,o),
(446,269,o),
(446,286,cs),
(446,413,o),
(379,490,o),
(260,490,cs),
(130,490,o),
(57,401,o),
(57,240,cs),
(57,80,o),
(130,-10,o),
(257,-10,cs)
);
}
);
userData = {
com.hugojourdan.ColorFlow = {
"0" = 0;
"1" = 0;
"10" = 0;
"11" = 0;
"2" = 0;
"3" = 0;
"4" = 0;
"5" = 0;
"6" = 0;
"7" = 0;
"8" = 0;
"9" = 0;
};
};
width = 503;
},
{
anchors = (
{
name = top;
pos = (264,488);
}
);
layerId = m005;
shapes = (
{
closed = 1;
nodes = (
(347,-10,o),
(405,19,o),
(453,82,c),
(390,128,l),
(361,87,o),
(318,65,o),
(268,65,cs),
(189,65,o),
(142,126,o),
(142,229,cs),
(142,248,ls),
(142,364,o),
(184,425,o),
(263,425,cs),
(332,425,o),
(376,376,o),
(376,298,cs),
(376,284,o),
(376,266,o),
(376,256,c),
(409,283,l),
(111,283,l),
(111,217,l),
(463,217,l),
(465,234,o),
(466,250,o),
(466,269,cs),
(466,416,o),
(394,498,o),
(266,498,cs),
(128,498,o),
(48,405,o),
(48,242,cs),
(48,83,o),
(129,-10,o),
(267,-10,cs)
);
}
);
userData = {
com.hugojourdan.ColorFlow = {
"0" = 0;
"1" = 0;
"10" = 0;
"11" = 0;
"2" = 0;
"3" = 0;
"4" = 0;
"5" = 0;
"6" = 0;
"7" = 0;
"8" = 0;
"9" = 0;
};
};
width = 514;
},
{
anchors = (
{
name = top;
pos = (265,500);
}
);
layerId = m006;
shapes = (
{
closed = 1;
nodes = (
(371,-10,o),
(427,17,o),
(485,93,c),
(376,170,l),
(343,129,o),
(315,113,o),
(278,113,cs),
(223,113,o),
(192,158,o),
(192,238,cs),
(192,247,ls),
(192,340,o),
(219,392,o),
(267,392,cs),
(310,392,o),
(333,357,o),
(333,292,cs),
(333,281,o),
(333,270,o),
(333,259,c),
(378,302,l),
(131,302,l),
(131,209,l),
(484,209,l),
(488,237,o),
(490,254,o),
(490,272,cs),
(490,427,o),
(413,510,o),
(267,510,cs),
(116,510,o),
(27,411,o),
(27,244,cs),
(27,88,o),
(123,-10,o),
(275,-10,cs)
);
}
);
userData = {
com.hugojourdan.ColorFlow = {
"0" = 0;
"1" = 0;
"10" = 0;
"11" = 0;
"2" = 0;
"3" = 0;
"4" = 0;
"5" = 0;
"6" = 0;
"7" = 0;
"8" = 0;
"9" = 0;
};
};
width = 517;
}
);
metricLeft = "=o";
metricRight = "=|";
note = e;
unicode = 101;
},
{
glyphname = f;
layers = (
{
layerId = m01;
shapes = (
{
closed = 1;
nodes = (
(146,0,l),
(146,452,l),
(289,452,l),
(289,480,l),
(16,472,l),
(16,452,l),
(101,452,l),
(101,0,l)
);
},
{
closed = 1;
nodes = (
(143,469,l),
(137,523,o),
(136,539,o),
(136,557,cs),
(136,638,o),
(168,682,o),
(228,682,cs),
(277,682,o),
(317,653,o),
(344,597,c),
(383,634,l),
(340,684,o),
(287,710,o),
(228,710,cs),
(149,710,o),
(101,652,o),
(101,558,cs),
(101,469,l)
);
}
);
userData = {
com.hugojourdan.ColorFlow = {
"0" = 0;
"1" = 0;
"10" = 0;
"11" = 0;
"2" = 0;
"3" = 0;
"4" = 0;
"5" = 0;
"6" = 0;
"7" = 0;
"8" = 0;
"9" = 0;
};
};
width = 294;
},
{
layerId = "FF73925E-1E34-445B-881D-5A7CAAA8E8BE";
shapes = (
{
closed = 1;
nodes = (
(245,0,l),
(245,437,l),
(346,437,l),
(346,500,l),
(3,486,l),
(3,437,l),
(76,437,l),
(76,0,l)
);
},
{
closed = 1;
nodes = (
(245,464,l),
(205,504,o),
(187,541,o),
(187,590,cs),
(187,642,o),
(206,664,o),
(251,664,cs),
(284,664,o),
(317,639,o),
(350,590,c),
(412,650,l),
(366,701,o),
(306,730,o),
(246,730,cs),
(143,730,o),
(76,661,o),
(76,554,cs),
(76,464,l)
);
}
);
userData = {
com.hugojourdan.ColorFlow = {
"0" = 0;
"1" = 0;
"10" = 0;
"11" = 0;
"2" = 0;
"3" = 0;
"4" = 0;
"5" = 0;
"6" = 0;
"7" = 0;
"8" = 0;
"9" = 0;
};
};
width = 354;
},
{
background = {
shapes = (
{
closed = 0;
nodes = (
(174,576,ls),
(174,634,o),
(202,677,o),
(240,677,cs),
(276,677,o),
(310,652,o),
(336,607,c),
(386,666,l),
(346,701,o),
(297,720,o),
(244,720,cs),
(153,720,o),
(93,653,o),
(93,553,cs)
);
}
);
};
layerId = "BF6BA5B2-0556-42F4-A103-614BEBF16A1A";
shapes = (
{
closed = 1;
nodes = (
(184,0,l),
(184,445,l),
(311,445,l),
(311,490,l),
(11,480,l),
(11,445,l),
(91,445,l),
(91,0,l)
);
},
{
closed = 1;
nodes = (
(184,477,l),
(165,506,o),
(156,536,o),
(156,567,cs),
(156,631,o),
(191,677,o),
(240,677,cs),
(276,677,o),
(309,653,o),
(336,607,c),
(386,666,l),
(342,704,o),
(300,720,o),
(245,720,cs),
(151,720,o),
(92,653,o),
(92,545,cs),
(92,475,l)
);
}
);
userData = {
com.hugojourdan.ColorFlow = {
"0" = 0;
"1" = 0;
"10" = 0;
"11" = 0;
"2" = 0;
"3" = 0;
"4" = 0;
"5" = 0;
"6" = 0;
"7" = 0;
"8" = 0;
"9" = 0;
};
};
width = 317;
},
{
associatedMasterId = "FF73925E-1E34-445B-881D-5A7CAAA8E8BE";
layerId = "97D26A38-0955-4BE2-A563-75E9F64BB563";
name = "13 Jun 23 5.05 PM";
shapes = (
{
closed = 1;
nodes = (
(245,0,l),
(245,437,l),
(346,437,l),
(346,500,l),
(3,486,l),
(3,437,l),
(76,437,l),
(76,0,l)
);
},
{
closed = 1;
nodes = (
(245,464,l),
(183,505,o),
(158,541,o),
(158,588,cs),
(158,641,o),
(190,674,o),
(243,674,cs),
(284,674,o),
(330,649,o),
(360,610,c),
(412,680,l),
(374,718,o),
(317,740,o),
(255,740,cs),
(142,740,o),
(76,672,o),
(76,555,cs),
(76,464,l)
);
}
);
userData = {
com.hugojourdan.ColorFlow = {
"0" = 0;
"1" = 0;
"10" = 0;
"11" = 0;
"2" = 0;
"3" = 0;
"4" = 0;
"5" = 0;
"6" = 0;
"7" = 0;
"8" = 0;
"9" = 0;
};
};
width = 354;
},
{
associatedMasterId = "BF6BA5B2-0556-42F4-A103-614BEBF16A1A";
background = {
shapes = (
{
closed = 0;
nodes = (
(174,576,ls),
(174,634,o),
(202,677,o),
(240,677,cs),
(276,677,o),
(310,652,o),
(336,607,c),
(386,666,l),
(346,701,o),
(297,720,o),
(244,720,cs),
(153,720,o),
(93,653,o),
(93,553,cs)
);
}
);
};
layerId = "86D99777-783F-467F-9C7F-8AA797AB2347";
name = "13 Jun 23 5.11 PM";
shapes = (
{
closed = 1;
nodes = (
(184,0,l),
(184,445,l),
(311,445,l),
(311,490,l),
(11,480,l),
(11,445,l),
(91,445,l),
(91,0,l)
);
},
{
closed = 1;
nodes = (
(184,477,l),
(166,508,o),
(156,538,o),
(156,567,cs),
(156,631,o),
(193,676,o),
(245,676,cs),
(288,676,o),
(328,647,o),
(354,598,c),
(385,669,l),
(350,702,o),
(303,720,o),
(252,720,cs),
(153,720,o),
(92,655,o),
(92,549,cs),
(92,475,l)
);
}
);
userData = {
com.hugojourdan.ColorFlow = {
"0" = 0;
"1" = 0;
"10" = 0;
"11" = 0;
"2" = 0;
"3" = 0;
"4" = 0;
"5" = 0;
"6" = 0;
"7" = 0;
"8" = 0;
"9" = 0;
};
};
width = 317;
},
{
layerId = m004;
shapes = (
{
closed = 1;
nodes = (
(146,0,l),
(146,437,l),
(289,437,l),
(289,480,l),
(16,480,l),
(16,437,l),
(101,437,l),
(101,0,l)
);
},
{
closed = 1;
nodes = (
(146,469,l),
(146,518,o),
(146,536,o),
(146,557,cs),
(146,627,o),
(169,666,o),
(232,666,cs),
(278,666,o),
(317,644,o),
(350,603,c),
(383,634,l),
(340,684,o),
(287,710,o),
(228,710,cs),
(149,710,o),
(101,652,o),
(101,558,cs),
(101,469,l)
);
}
);
userData = {
com.hugojourdan.ColorFlow = {
"0" = 0;
"1" = 0;
"10" = 0;
"11" = 0;
"2" = 0;
"3" = 0;
"4" = 0;
"5" = 0;
"6" = 0;
"7" = 0;
"8" = 0;
"9" = 0;
};
};
width = 294;
},
{
layerId = m005;
shapes = (
{
closed = 1;
nodes = (
(184,0,l),
(184,415,l),
(311,415,l),
(311,488,l),
(11,488,l),
(11,415,l),
(91,415,l),
(91,0,l)
);
},
{
closed = 1;
nodes = (
(184,471,l),
(184,511,o),
(184,536,o),
(184,556,cs),
(184,610,o),
(205,642,o),
(253,642,cs),
(288,642,o),
(320,625,o),
(350,594,c),
(394,650,l),
(354,695,o),
(297,720,o),
(236,720,cs),
(146,720,o),
(91,660,o),
(91,559,cs),
(91,471,l)
);
}
);
userData = {
com.hugojourdan.ColorFlow = {
"0" = 0;
"1" = 0;
"10" = 0;
"11" = 0;
"2" = 0;
"3" = 0;
"4" = 0;
"5" = 0;
"6" = 0;
"7" = 0;
"8" = 0;
"9" = 0;
};
};
width = 317;
},
{
layerId = m006;
shapes = (
{
closed = 1;
nodes = (
(245,0,l),
(245,383,l),
(346,383,l),
(346,500,l),
(3,500,l),
(3,383,l),
(76,383,l),
(76,0,l)
);
},
{
closed = 1;
nodes = (
(245,474,l),
(245,495,o),
(245,531,o),
(245,548,cs),
(245,578,o),
(261,597,o),
(286,597,cs),
(303,597,o),
(325,589,o),
(349,573,c),
(412,670,l),
(375,707,o),
(312,730,o),
(248,730,cs),
(141,730,o),
(76,668,o),
(76,555,cs),
(76,474,l)
);
}
);
userData = {
com.hugojourdan.ColorFlow = {
"0" = 0;
"1" = 0;
"10" = 0;
"11" = 0;
"2" = 0;
"3" = 0;
"4" = 0;
"5" = 0;
"6" = 0;
"7" = 0;
"8" = 0;
"9" = 0;
};
};
width = 354;
}
);
note = f;
unicode = 102;
},
{
glyphname = g;
layers = (
{
layerId = "FF73925E-1E34-445B-881D-5A7CAAA8E8BE";
shapes = (
{
closed = 1;
nodes = (
(394,-185,o),
(474,-130,o),
(474,-20,cs),
(474,81,o),
(407,131,o),
(272,131,cs),
(207,131,ls),
(147,131,o),
(122,138,o),
(122,155,cs),
(122,169,o),
(143,182,o),
(189,196,c),
(137,214,l),
(66,189,o),
(34,156,o),
(34,109,cs),
(34,43,o),
(96,0,o),
(190,0,cs),
(294,0,ls),
(359,0,o),
(389,-16,o),
(389,-50,cs),
(389,-96,o),
(341,-119,o),
(247,-119,cs),
(155,-119,o),
(114,-97,o),
(114,-48,cs),
(114,-17,o),
(130,-3,o),
(185,13,c),
(128,30,l),
(55,5,o),
(22,-28,o),
(22,-76,cs),
(22,-147,o),
(95,-185,o),
(231,-185,cs)
);
},
{
closed = 1;
nodes = (
(374,184,o),
(448,243,o),
(448,347,cs),
(448,451,o),
(374,510,o),
(242,510,cs),
(110,510,o),
(36,451,o),
(36,347,cs),
(36,243,o),
(110,184,o),
(242,184,cs)
);
},
{
closed = 1;
nodes = (
(206,254,o),
(187,286,o),
(187,348,cs),
(187,410,o),
(205,440,o),
(242,440,cs),
(279,440,o),
(297,410,o),
(297,348,cs),
(297,286,o),
(278,254,o),
(242,254,cs)
);
},
{
closed = 1;
nodes = (
(416,431,o),
(439,445,o),
(465,445,cs),
(478,445,o),
(490,441,o),
(496,434,c),
(527,511,l),
(510,524,o),
(489,530,o),
(470,530,cs),
(422,530,o),
(392,492,o),
(384,428,c),
(408,411,l)
);
}
);
userData = {
com.hugojourdan.ColorFlow = {
"0" = 0;
"1" = 0;
"10" = 0;
"11" = 0;
"2" = 0;
"3" = 0;
"4" = 0;
"5" = 0;
"6" = 0;
"7" = 0;
"8" = 0;
"9" = 0;
};
};
width = 502;
},
{
layerId = "BF6BA5B2-0556-42F4-A103-614BEBF16A1A";
shapes = (
{
closed = 1;
nodes = (
(371,-185,o),
(454,-130,o),
(454,-34,cs),
(454,52,o),
(395,95,o),
(277,95,cs),
(188,95,ls),
(148,95,o),
(122,114,o),
(122,143,cs),
(122,169,o),
(147,193,o),
(187,207,c),
(160,223,l),
(87,200,o),
(53,165,o),
(53,113,cs),
(53,53,o),
(106,17,o),
(195,17,cs),
(298,17,ls),
(365,17,o),
(393,-3,o),
(393,-52,cs),
(393,-116,o),
(341,-149,o),
(240,-149,cs),
(146,-149,o),
(100,-120,o),
(100,-62,cs),
(100,-24,o),
(120,4,o),
(158,22,c),
(132,37,l),
(70,12,o),
(39,-25,o),
(39,-76,cs),
(39,-148,o),
(103,-185,o),
(226,-185,cs)
);
},
{
closed = 1;
nodes = (
(353,192,o),
(426,254,o),
(426,347,cs),
(426,440,o),
(353,500,o),
(241,500,cs),
(129,500,o),
(58,441,o),
(58,348,cs),
(58,254,o),
(131,192,o),
(243,192,cs)
);
},
{
closed = 1;
nodes = (
(183,228,o),
(146,273,o),
(146,347,cs),
(146,420,o),
(182,464,o),
(243,464,cs),
(303,464,o),
(338,421,o),
(338,347,cs),
(338,272,o),
(303,228,o),
(243,228,cs)
);
},
{
closed = 1;
nodes = (
(419,450,o),
(430,462,o),
(453,462,cs),
(464,462,o),
(475,458,o),
(486,450,c),
(500,511,l),
(487,517,o),
(474,520,o),
(461,520,cs),
(417,520,o),
(390,487,o),
(389,428,c),
(408,412,l)
);
}
);
userData = {
com.hugojourdan.ColorFlow = {
"0" = 0;
"1" = 0;
"10" = 0;
"11" = 0;
"2" = 0;
"3" = 0;
"4" = 0;
"5" = 0;
"6" = 0;
"7" = 0;
"8" = 0;
"9" = 0;
};
};
width = 494;
},
{
layerId = m004;
shapes = (
{
closed = 1;
nodes = (
(366,-185,o),
(438,-131,o),
(438,-33,cs),
(438,46,o),
(389,83,o),
(288,83,cs),
(219,83,ls),
(144,83,o),
(103,101,o),
(103,136,cs),
(103,165,o),
(131,186,o),
(186,199,c),
(158,217,l),
(94,199,o),
(62,169,o),
(62,124,cs),
(62,66,o),
(110,35,o),
(198,35,cs),
(294,35,ls),
(363,35,o),
(393,13,o),
(393,-39,cs),
(393,-108,o),
(341,-142,o),
(242,-142,cs),
(144,-142,o),
(90,-109,o),
(90,-50,cs),
(90,-8,o),
(118,20,o),
(176,42,c),
(149,60,l),
(80,32,o),
(47,-7,o),
(47,-63,cs),
(47,-142,o),
(113,-185,o),
(233,-185,cs)
);
},
{
closed = 1;
nodes = (
(344,180,o),
(409,240,o),
(409,335,cs),
(409,430,o),
(344,490,o),
(240,490,cs),
(135,490,o),
(69,430,o),
(69,335,cs),
(69,240,o),
(135,180,o),
(240,180,cs)
);
},
{
closed = 1;
nodes = (
(165,222,o),
(117,263,o),
(117,335,cs),
(117,407,o),
(165,448,o),
(240,448,cs),
(314,448,o),
(361,408,o),
(361,335,cs),
(361,262,o),
(314,222,o),
(240,222,cs)
);
},
{
closed = 1;
nodes = (
(393,440,o),
(419,463,o),
(447,463,cs),
(455,463,o),
(462,461,o),
(468,457,c),
(480,502,l),
(468,508,o),
(458,510,o),
(445,510,cs),
(407,510,o),
(376,475,o),
(368,423,c),
(387,409,l)
);
}
);
userData = {
com.hugojourdan.ColorFlow = {
"0" = 0;
"1" = 0;
"10" = 0;
"11" = 0;
"2" = 0;
"3" = 0;
"4" = 0;
"5" = 0;
"6" = 0;
"7" = 0;
"8" = 0;
"9" = 0;
};
};
width = 482;
},
{
layerId = m005;
shapes = (
{
closed = 1;
nodes = (
(378,-185,o),
(454,-133,o),
(454,-35,cs),
(454,50,o),
(396,95,o),
(285,95,cs),
(199,95,ls),
(150,95,o),
(118,110,o),
(118,138,cs),
(118,161,o),
(140,179,o),
(174,190,c),
(130,211,l),
(77,189,o),
(53,159,o),
(53,117,cs),
(53,51,o),
(107,17,o),
(213,17,cs),
(284,17,ls),
(342,17,o),
(366,2,o),
(366,-35,cs),
(366,-87,o),
(323,-113,o),
(240,-113,cs),
(158,-113,o),
(114,-88,o),
(114,-43,cs),
(114,-14,o),
(135,7,o),
(177,22,c),
(132,44,l),
(68,17,o),
(39,-18,o),
(39,-68,cs),
(39,-145,o),
(106,-185,o),
(233,-185,cs)
);
},
{
closed = 1;
nodes = (
(354,178,o),
(426,241,o),
(426,339,cs),
(426,437,o),
(354,500,o),
(242,500,cs),
(130,500,o),
(58,437,o),
(58,339,cs),
(58,241,o),
(130,178,o),
(242,178,cs)
);
},
{
closed = 1;
nodes = (
(182,247,o),
(146,282,o),
(146,339,cs),
(146,396,o),
(182,431,o),
(242,431,cs),
(302,431,o),
(338,396,o),
(338,339,cs),
(338,282,o),
(302,247,o),
(242,247,cs)
);
},
{
closed = 1;
nodes = (
(404,434,o),
(429,451,o),
(456,451,cs),
(466,451,o),
(475,449,o),
(481,445,c),
(500,507,l),
(488,516,o),
(474,520,o),
(456,520,cs),
(414,520,o),
(383,485,o),
(375,427,c),
(397,412,l)
);
}
);
userData = {
com.hugojourdan.ColorFlow = {
"0" = 0;
"1" = 0;
"10" = 0;
"11" = 0;
"2" = 0;
"3" = 0;
"4" = 0;
"5" = 0;
"6" = 0;
"7" = 0;
"8" = 0;
"9" = 0;
};
};
width = 494;
},
{
layerId = m006;
shapes = (
{
closed = 1;
nodes = (
(392,-184,o),
(474,-129,o),
(474,-24,cs),
(474,69,o),
(406,117,o),
(274,117,cs),
(217,117,ls),
(181,117,o),
(162,127,o),
(162,147,cs),
(162,165,o),
(174,176,o),
(202,184,c),
(130,212,l),
(64,187,o),
(34,155,o),
(34,109,cs),
(34,42,o),
(98,3,o),
(210,3,cs),
(264,3,ls),
(302,3,o),
(320,-8,o),
(320,-30,cs),
(320,-56,o),
(290,-70,o),
(232,-70,cs),
(180,-70,o),
(154,-58,o),
(154,-33,cs),
(154,-14,o),
(166,-3,o),
(195,5,c),
(120,33,l),
(52,8,o),
(22,-24,o),
(22,-72,cs),
(22,-146,o),
(94,-184,o),
(233,-184,cs)
);
},
{
closed = 1;
nodes = (
(374,172,o),
(448,233,o),
(448,341,cs),
(448,449,o),
(374,510,o),
(242,510,cs),
(110,510,o),
(36,449,o),
(36,341,cs),
(36,233,o),
(110,172,o),
(242,172,cs)
);
},
{
closed = 1;
nodes = (
(207,281,o),
(187,303,o),
(187,342,cs),
(187,379,o),
(207,401,o),
(242,401,cs),
(277,401,o),
(297,379,o),
(297,342,cs),
(297,303,o),
(277,281,o),
(242,281,cs)
);
},
{
closed = 1;
nodes = (
(417,423,o),
(442,428,o),
(464,428,cs),
(478,428,o),
(490,425,o),
(496,420,c),
(527,511,l),
(508,524,o),
(488,530,o),
(468,530,cs),
(418,530,o),
(383,492,o),
(374,428,c),
(408,411,l)
);
}
);
userData = {
com.hugojourdan.ColorFlow = {
"0" = 0;
"1" = 0;
"10" = 0;
"11" = 0;
"2" = 0;
"3" = 0;
"4" = 0;
"5" = 0;
"6" = 0;
"7" = 0;
"8" = 0;
"9" = 0;
};
};
width = 502;
},
{
associatedMasterId = m004;
layerId = "93EBF1DB-4AA5-425A-A4E3-0632347A067B";
name = "18 Jun 23 6.17 PM";
shapes = (
{
closed = 1;
nodes = (
(372,-204,o),
(446,-148,o),
(446,-47,cs),
(446,34,o),
(400,74,o),
(307,74,cs),
(194,74,ls),
(141,74,o),
(113,92,o),
(113,127,cs),
(113,159,o),
(140,180,o),
(181,180,cs),
(248,180,l),
(248,211,l),
(181,211,ls),
(112,211,o),
(70,175,o),
(70,115,cs),
(70,61,o),
(106,26,o),
(163,26,cs),
(302,26,ls),
(371,26,o),
(401,2,o),
(401,-53,cs),
(401,-124,o),
(350,-159,o),
(248,-159,cs),
(149,-159,o),
(94,-125,o),
(94,-64,cs),
(94,-23,o),
(119,7,o),
(170,29,c),
(144,46,l),
(84,18,o),
(55,-22,o),
(55,-77,cs),
(55,-159,o),
(119,-204,o),
(238,-204,cs)
);
},
{
closed = 1;
nodes = (
(352,180,o),
(417,240,o),
(417,335,cs),
(417,430,o),
(352,490,o),
(248,490,cs),
(143,490,o),
(77,430,o),
(77,335,cs),
(77,240,o),
(143,180,o),
(248,180,cs)
);
},
{
closed = 1;
nodes = (
(173,225,o),
(125,268,o),
(125,335,cs),
(125,402,o),
(173,445,o),
(248,445,cs),
(322,445,o),
(369,402,o),
(369,335,cs),
(369,268,o),
(322,225,o),
(248,225,cs)
);
},
{
closed = 1;
nodes = (
(401,420,o),
(427,443,o),
(455,443,cs),
(463,443,o),
(470,441,o),
(476,437,c),
(488,482,l),
(474,488,o),
(464,490,o),
(453,490,cs),
(417,490,o),
(388,455,o),
(380,403,c),
(395,389,l)
);
}
);
userData = {
com.hugojourdan.ColorFlow = {
"0" = 0;
"1" = 0;
"10" = 0;
"11" = 0;
"2" = 0;
"3" = 0;
"4" = 0;
"5" = 0;
"6" = 0;
"7" = 0;
"8" = 0;
"9" = 0;
};
};
width = 490;
},
{
associatedMasterId = m005;
layerId = "C3CEE5F6-F423-4A3A-BFFB-475205DE08E3";
name = "18 Jun 23 6.18 PM";
shapes = (
{
closed = 1;
nodes = (
(386,-204,o),
(462,-150,o),
(462,-48,cs),
(462,40,o),
(406,88,o),
(303,88,cs),
(201,88,ls),
(160,88,o),
(137,104,o),
(137,133,cs),
(137,159,o),
(160,177,o),
(193,177,cs),
(251,177,l),
(251,211,l),
(181,211,ls),
(108,211,o),
(61,171,o),
(61,108,cs),
(61,50,o),
(105,10,o),
(170,10,cs),
(292,10,ls),
(349,10,o),
(374,-8,o),
(374,-49,cs),
(374,-102,o),
(331,-129,o),
(247,-129,cs),
(166,-129,o),
(122,-103,o),
(122,-56,cs),
(122,-24,o),
(143,-1,o),
(185,15,c),
(140,37,l),
(76,10,o),
(47,-28,o),
(47,-81,cs),
(47,-162,o),
(114,-204,o),
(241,-204,cs)
);
},
{
closed = 1;
nodes = (
(366,177,o),
(434,237,o),
(434,337,cs),
(434,438,o),
(365,498,o),
(251,498,cs),
(136,498,o),
(66,437,o),
(66,337,cs),
(66,237,o),
(135,177,o),
(251,177,cs)
);
},
{
closed = 1;
nodes = (
(191,247,o),
(154,282,o),
(154,338,cs),
(154,393,o),
(191,428,o),
(251,428,cs),
(310,428,o),
(346,393,o),
(346,338,cs),
(346,282,o),
(310,247,o),
(251,247,cs)
);
},
{
closed = 1;
nodes = (
(412,412,o),
(437,429,o),
(464,429,cs),
(474,429,o),
(483,427,o),
(489,423,c),
(508,485,l),
(495,494,o),
(480,498,o),
(464,498,cs),
(424,498,o),
(395,463,o),
(387,405,c),
(405,390,l)
);
}
);
userData = {
com.hugojourdan.ColorFlow = {
"0" = 0;
"1" = 0;
"10" = 0;
"11" = 0;
"2" = 0;
"3" = 0;
"4" = 0;
"5" = 0;
"6" = 0;
"7" = 0;
"8" = 0;
"9" = 0;
};
};
width = 500;
},
{
associatedMasterId = m006;
layerId = "6DEB0C6F-1016-44AF-BD93-6A9AC0742A20";
name = "18 Jun 23 6.18 PM";
shapes = (
{
closed = 1;
nodes = (
(407,-204,o),
(487,-152,o),
(487,-49,cs),
(487,54,o),
(408,111,o),
(297,111,cs),
(213,111,ls),
(191,111,o),
(175,124,o),
(175,142,cs),
(175,160,o),
(191,172,o),
(213,172,cs),
(255,172,l),
(255,211,l),
(181,211,ls),
(100,211,o),
(47,161,o),
(47,98,cs),
(47,31,o),
(107,-16,o),
(182,-16,cs),
(277,-16,ls),
(308,-16,o),
(332,-20,o),
(332,-43,cs),
(332,-68,o),
(302,-81,o),
(245,-81,cs),
(191,-81,o),
(167,-69,o),
(167,-44,cs),
(167,-26,o),
(180,-14,o),
(208,-6,c),
(133,22,l),
(64,-3,o),
(35,-37,o),
(35,-87,cs),
(35,-163,o),
(104,-204,o),
(247,-204,cs)
);
},
{
closed = 1;
nodes = (
(387,172,o),
(461,233,o),
(461,341,cs),
(461,449,o),
(387,510,o),
(255,510,cs),
(123,510,o),
(49,449,o),
(49,341,cs),
(49,233,o),
(123,172,o),
(255,172,cs)
);
},
{
closed = 1;
nodes = (
(220,281,o),
(200,303,o),
(200,342,cs),
(200,379,o),
(220,401,o),
(255,401,cs),
(290,401,o),
(310,379,o),
(310,342,cs),
(310,303,o),
(290,281,o),
(255,281,cs)
);
},
{
closed = 1;
nodes = (
(430,403,o),
(455,408,o),
(477,408,cs),
(491,408,o),
(503,405,o),
(509,400,c),
(540,491,l),
(521,504,o),
(501,510,o),
(481,510,cs),
(436,510,o),
(405,472,o),
(397,408,c),
(421,391,l)
);
}
);
userData = {
com.hugojourdan.ColorFlow = {
"0" = 0;
"1" = 0;
"10" = 0;
"11" = 0;
"2" = 0;
"3" = 0;
"4" = 0;
"5" = 0;
"6" = 0;
"7" = 0;
"8" = 0;
"9" = 0;
};
};
width = 515;
},
{
associatedMasterId = m01;
layerId = "A25D84DA-5813-4A07-8133-A84BD100B453";
name = "18 Jun 23 6.18 PM";
shapes = (
{
closed = 1;
nodes = (
(372,-185,o),
(446,-130,o),
(446,-31,cs),
(446,47,o),
(400,86,o),
(307,86,cs),
(194,86,ls),
(141,86,o),
(113,103,o),
(113,136,cs),
(113,166,o),
(140,186,o),
(181,186,cs),
(248,186,l),
(248,208,l),
(181,208,ls),
(112,208,o),
(70,175,o),
(70,120,cs),
(70,70,o),
(106,38,o),
(163,38,cs),
(299,38,ls),
(373,38,o),
(404,13,o),
(404,-45,cs),
(404,-121,o),
(350,-159,o),
(242,-159,cs),
(139,-159,o),
(84,-123,o),
(84,-56,cs),
(84,-15,o),
(110,18,o),
(162,41,c),
(144,49,l),
(84,23,o),
(55,-15,o),
(55,-65,cs),
(55,-143,o),
(119,-185,o),
(237,-185,cs)
);
},
{
closed = 1;
nodes = (
(352,186,o),
(417,245,o),
(417,338,cs),
(417,431,o),
(352,490,o),
(248,490,cs),
(143,490,o),
(77,431,o),
(77,338,cs),
(77,245,o),
(143,186,o),
(248,186,cs)
);
},
{
closed = 1;
nodes = (
(172,212,o),
(125,261,o),
(125,338,cs),
(125,415,o),
(172,464,o),
(248,464,cs),
(322,464,o),
(369,415,o),
(369,338,cs),
(369,261,o),
(322,212,o),
(248,212,cs)
);
},
{
closed = 1;
nodes = (
(401,442,o),
(426,468,o),
(452,468,cs),
(459,468,o),
(466,466,o),
(477,461,c),
(488,502,l),
(477,508,o),
(466,510,o),
(456,510,cs),
(416,510,o),
(388,477,o),
(380,423,c),
(395,409,l)
);
}
);
userData = {
com.hugojourdan.ColorFlow = {
"0" = 0;
"1" = 0;
"10" = 0;
"11" = 0;
"2" = 0;
"3" = 0;
"4" = 0;
"5" = 0;
"6" = 0;
"7" = 0;
"8" = 0;
"9" = 0;
};
};
width = 490;
},
{
associatedMasterId = "BF6BA5B2-0556-42F4-A103-614BEBF16A1A";
layerId = "11FD3800-E515-4D2D-81E3-B38A78A1B879";
name = "18 Jun 23 6.18 PM";
shapes = (
{
closed = 1;
nodes = (
(383,-185,o),
(462,-131,o),
(462,-31,cs),
(462,59,o),
(401,100,o),
(265,100,cs),
(193,100,ls),
(156,100,o),
(130,119,o),
(130,146,cs),
(130,173,o),
(156,192,o),
(193,192,cs),
(251,192,l),
(251,215,l),
(192,215,ls),
(106,215,o),
(61,182,o),
(61,120,cs),
(61,52,o),
(114,15,o),
(209,15,cs),
(306,15,ls),
(373,15,o),
(401,-5,o),
(401,-53,cs),
(401,-116,o),
(349,-148,o),
(243,-148,cs),
(141,-148,o),
(88,-118,o),
(88,-62,cs),
(88,-22,o),
(114,6,o),
(164,20,c),
(138,35,l),
(77,10,o),
(47,-26,o),
(47,-76,cs),
(47,-148,o),
(111,-185,o),
(235,-185,cs)
);
},
{
closed = 1;
nodes = (
(361,192,o),
(434,254,o),
(434,347,cs),
(434,440,o),
(361,500,o),
(249,500,cs),
(137,500,o),
(66,441,o),
(66,348,cs),
(66,254,o),
(139,192,o),
(251,192,cs)
);
},
{
closed = 1;
nodes = (
(191,228,o),
(154,273,o),
(154,347,cs),
(154,420,o),
(190,464,o),
(251,464,cs),
(311,464,o),
(346,421,o),
(346,347,cs),
(346,272,o),
(311,228,o),
(251,228,cs)
);
},
{
closed = 1;
nodes = (
(422,450,o),
(432,462,o),
(453,462,cs),
(464,462,o),
(475,458,o),
(486,450,c),
(500,511,l),
(487,517,o),
(474,520,o),
(461,520,cs),
(419,520,o),
(394,487,o),
(393,428,c),
(412,412,l)
);
}
);
userData = {
com.hugojourdan.ColorFlow = {
"0" = 0;
"1" = 0;
"10" = 0;
"11" = 0;
"2" = 0;
"3" = 0;
"4" = 0;
"5" = 0;
"6" = 0;
"7" = 0;
"8" = 0;
"9" = 0;
};
};
width = 499;
},
{
associatedMasterId = "FF73925E-1E34-445B-881D-5A7CAAA8E8BE";
layerId = "5804F070-0F47-4DA4-BC1A-DADF32208D95";
name = "18 Jun 23 6.18 PM";
shapes = (
{
closed = 1;
nodes = (
(401,-185,o),
(487,-131,o),
(487,-27,cs),
(487,80,o),
(397,130,o),
(297,130,cs),
(193,130,ls),
(165,130,o),
(145,142,o),
(145,158,cs),
(145,174,o),
(165,184,o),
(193,184,cs),
(255,184,l),
(255,223,l),
(181,223,ls),
(100,223,o),
(47,178,o),
(47,108,cs),
(47,35,o),
(103,-17,o),
(182,-17,cs),
(317,-17,ls),
(380,-17,o),
(402,-29,o),
(402,-60,cs),
(402,-107,o),
(353,-129,o),
(248,-129,cs),
(146,-129,o),
(93,-108,o),
(93,-67,cs),
(93,-40,o),
(116,-19,o),
(162,-7,c),
(133,21,l),
(68,-2,o),
(35,-38,o),
(35,-84,cs),
(35,-151,o),
(103,-185,o),
(235,-185,cs)
);
},
{
closed = 1;
nodes = (
(387,184,o),
(461,243,o),
(461,347,cs),
(461,451,o),
(387,510,o),
(255,510,cs),
(123,510,o),
(49,451,o),
(49,347,cs),
(49,243,o),
(123,184,o),
(255,184,cs)
);
},
{
closed = 1;
nodes = (
(220,258,o),
(200,290,o),
(200,348,cs),
(200,404,o),
(220,436,o),
(255,436,cs),
(290,436,o),
(310,404,o),
(310,348,cs),
(310,290,o),
(290,258,o),
(255,258,cs)
);
},
{
closed = 1;
nodes = (
(429,441,o),
(452,455,o),
(478,455,cs),
(491,455,o),
(503,451,o),
(509,444,c),
(540,521,l),
(523,534,o),
(502,540,o),
(483,540,cs),
(435,540,o),
(405,502,o),
(397,438,c),
(421,421,l)
);
}
);
userData = {
com.hugojourdan.ColorFlow = {
"0" = 0;
"1" = 0;
"10" = 0;
"11" = 0;
"2" = 0;
"3" = 0;
"4" = 0;
"5" = 0;
"6" = 0;
"7" = 0;
"8" = 0;
"9" = 0;
};
};
width = 515;
},
{
associatedMasterId = m01;
layerId = "E5CC4AAE-887B-4D4E-A4A8-5F3359F683DA";
name = "18 Jun 23 6.35 PM";
shapes = (
{
closed = 1;
nodes = (
(372,-185,o),
(446,-130,o),
(446,-31,cs),
(446,47,o),
(400,86,o),
(307,86,cs),
(180,86,ls),
(138,86,o),
(112,110,o),
(112,144,cs),
(112,172,o),
(129,190,o),
(170,205,c),
(152,214,l),
(97,195,o),
(70,166,o),
(70,125,cs),
(70,71,o),
(113,38,o),
(182,38,cs),
(299,38,ls),
(373,38,o),
(404,13,o),
(404,-45,cs),
(404,-121,o),
(349,-159,o),
(239,-159,cs),
(137,-159,o),
(84,-122,o),
(84,-58,cs),
(84,-14,o),
(110,17,o),
(162,40,c),
(144,49,l),
(85,23,o),
(55,-14,o),
(55,-66,cs),
(55,-142,o),
(118,-185,o),
(237,-185,cs)
);
},
{
closed = 1;
nodes = (
(352,186,o),
(417,245,o),
(417,338,cs),
(417,431,o),
(352,490,o),
(248,490,cs),
(143,490,o),
(77,431,o),
(77,338,cs),
(77,245,o),
(143,186,o),
(248,186,cs)
);
},
{
closed = 1;
nodes = (
(172,212,o),
(125,261,o),
(125,338,cs),
(125,415,o),
(172,464,o),
(248,464,cs),
(322,464,o),
(369,415,o),
(369,338,cs),
(369,261,o),
(322,212,o),
(248,212,cs)
);
},
{
closed = 1;
nodes = (
(401,442,o),
(426,468,o),
(452,468,cs),
(459,468,o),
(466,466,o),
(477,461,c),
(488,502,l),
(477,508,o),
(466,510,o),
(456,510,cs),
(416,510,o),
(388,477,o),
(380,423,c),
(395,409,l)
);
}
);
userData = {
com.hugojourdan.ColorFlow = {
"0" = 0;
"1" = 0;
"10" = 0;
"11" = 0;
"2" = 0;
"3" = 0;
"4" = 0;
"5" = 0;
"6" = 0;
"7" = 0;
"8" = 0;
"9" = 0;
};
};
width = 490;
},
{
layerId = m01;
name = "Moderat ExtraLight";
shapes = (
{
closed = 1;
nodes = (
(364,-185,o),
(438,-130,o),
(438,-31,cs),
(438,45,o),
(392,83,o),
(299,83,cs),
(172,83,ls),
(131,83,o),
(104,107,o),
(104,144,cs),
(104,172,o),
(121,190,o),
(162,205,c),
(144,214,l),
(89,195,o),
(62,166,o),
(62,125,cs),
(62,69,o),
(105,35,o),
(174,35,cs),
(291,35,ls),
(362,35,o),
(392,11,o),
(392,-44,cs),
(392,-120,o),
(338,-159,o),
(237,-159,cs),
(142,-159,o),
(93,-125,o),
(93,-57,cs),
(93,-14,o),
(113,17,o),
(154,40,c),
(136,49,l),
(76,23,o),
(47,-15,o),
(47,-66,cs),
(47,-143,o),
(111,-185,o),
(229,-185,cs)
);
},
{
closed = 1;
nodes = (
(344,186,o),
(409,245,o),
(409,338,cs),
(409,431,o),
(344,490,o),
(240,490,cs),
(135,490,o),
(69,431,o),
(69,338,cs),
(69,245,o),
(135,186,o),
(240,186,cs)
);
},
{
closed = 1;
nodes = (
(164,212,o),
(117,261,o),
(117,338,cs),
(117,415,o),
(164,464,o),
(240,464,cs),
(314,464,o),
(361,415,o),
(361,338,cs),
(361,261,o),
(314,212,o),
(240,212,cs)
);
},
{
closed = 1;
nodes = (
(393,442,o),
(418,468,o),
(444,468,cs),
(451,468,o),
(458,466,o),
(469,461,c),
(480,502,l),
(469,508,o),
(458,510,o),
(448,510,cs),
(408,510,o),
(380,477,o),
(372,423,c),
(387,409,l)
);
}
);
userData = {
com.hugojourdan.ColorFlow = {
"0" = 0;
"1" = 0;
"10" = 0;
"11" = 0;
"2" = 0;
"3" = 0;
"4" = 0;
"5" = 0;
"6" = 0;
"7" = 0;
"8" = 0;
"9" = 0;
};
};
width = 482;
}
);
metricLeft = "=s*1.06";
note = g;
unicode = 103;
},
{
glyphname = h;
layers = (
{
layerId = "FF73925E-1E34-445B-881D-5A7CAAA8E8BE";
shapes = (
{
closed = 1;
nodes = (
(217,0,l),
(217,356,ls),
(217,407,o),
(253,436,o),
(286,436,cs),
(320,436,o),
(337,407,o),
(337,349,cs),
(337,0,l),
(506,0,l),
(506,330,ls),
(506,450,o),
(438,510,o),
(344,510,cs),
(271,510,o),
(219,475,o),
(189,404,c),
(217,390,l),
(217,700,l),
(48,700,l),
(48,0,l)
);
}
);
userData = {
com.hugojourdan.ColorFlow = {
"0" = 0;
"1" = 0;
"10" = 0;
"11" = 0;
"2" = 0;
"3" = 0;
"4" = 0;
"5" = 0;
"6" = 0;
"7" = 0;
"8" = 0;
"9" = 0;
};
};
width = 549;
},
{
layerId = "BF6BA5B2-0556-42F4-A103-614BEBF16A1A";
shapes = (
{
closed = 1;
nodes = (
(169,0,l),
(169,353,ls),
(169,420,o),
(231,455,o),
(283,455,cs),
(340,455,o),
(368,412,o),
(368,326,cs),
(368,0,l),
(460,0,l),
(460,320,ls),
(460,440,o),
(409,500,o),
(305,500,cs),
(226,500,o),
(171,463,o),
(142,389,c),
(169,374,l),
(169,700,l),
(76,700,l),
(76,0,l)
);
}
);
userData = {
com.hugojourdan.ColorFlow = {
"0" = 0;
"1" = 0;
"10" = 0;
"11" = 0;
"2" = 0;
"3" = 0;
"4" = 0;
"5" = 0;
"6" = 0;
"7" = 0;
"8" = 0;
"9" = 0;
};
};
width = 531;
},
{
layerId = m004;
shapes = (
{
closed = 1;
nodes = (
(131,0,l),
(131,281,ls),
(131,376,o),
(191,445,o),
(277,445,cs),
(342,445,o),
(379,406,o),
(379,305,cs),
(379,0,l),
(424,0,l),
(424,309,ls),
(424,430,o),
(376,489,o),
(279,489,cs),
(199,489,o),
(141,449,o),
(113,373,c),
(131,359,l),
(131,700,l),
(86,700,l),
(86,0,l)
);
}
);
userData = {
com.hugojourdan.ColorFlow = {
"0" = 0;
"1" = 0;
"10" = 0;
"11" = 0;
"2" = 0;
"3" = 0;
"4" = 0;
"5" = 0;
"6" = 0;
"7" = 0;
"8" = 0;
"9" = 0;
};
};
width = 505;
},
{
layerId = m005;
shapes = (
{
closed = 1;
nodes = (
(169,0,l),
(169,291,ls),
(169,369,o),
(220,422,o),
(285,422,cs),
(338,422,o),
(368,387,o),
(368,303,cs),
(368,0,l),
(461,0,l),
(461,317,ls),
(461,438,o),
(403,497,o),
(305,497,cs),
(226,497,o),
(169,459,o),
(140,385,c),
(169,371,l),
(169,700,l),
(76,700,l),
(76,0,l)
);
}
);
userData = {
com.hugojourdan.ColorFlow = {
"0" = 0;
"1" = 0;
"10" = 0;
"11" = 0;
"2" = 0;
"3" = 0;
"4" = 0;
"5" = 0;
"6" = 0;
"7" = 0;
"8" = 0;
"9" = 0;
};
};
width = 532;
},
{
layerId = m006;
shapes = (
{
closed = 1;
nodes = (
(217,0,l),
(217,306,ls),
(217,357,o),
(253,386,o),
(286,386,cs),
(320,386,o),
(337,357,o),
(337,299,cs),
(337,0,l),
(506,0,l),
(506,330,ls),
(506,450,o),
(434,510,o),
(334,510,cs),
(256,510,o),
(201,475,o),
(169,404,c),
(217,390,l),
(217,700,l),
(48,700,l),
(48,0,l)
);
}
);
userData = {
com.hugojourdan.ColorFlow = {
"0" = 0;
"1" = 0;
"10" = 0;
"11" = 0;
"2" = 0;
"3" = 0;
"4" = 0;
"5" = 0;
"6" = 0;
"7" = 0;
"8" = 0;
"9" = 0;
};
};
width = 549;
},
{
associatedMasterId = m01;
layerId = "4A91CF86-C814-46C8-AE06-119107D25A1E";
name = "15 Jun 23 2.40 PM";
shapes = (
{
closed = 1;
nodes = (
(131,0,l),
(131,327,ls),
(131,400,o),
(198,460,o),
(280,460,cs),
(354,460,o),
(391,408,o),
(391,305,cs),
(391,0,l),
(436,0,l),
(436,310,ls),
(436,429,o),
(385,490,o),
(284,490,cs),
(199,490,o),
(138,446,o),
(115,369,c),
(131,369,l),
(131,700,l),
(86,700,l),
(86,0,l)
);
}
);
userData = {
com.hugojourdan.ColorFlow = {
"0" = 0;
"1" = 0;
"10" = 0;
"11" = 0;
"2" = 0;
"3" = 0;
"4" = 0;
"5" = 0;
"6" = 0;
"7" = 0;
"8" = 0;
"9" = 0;
};
};
width = 517;
},
{
layerId = m01;
name = "Moderat ExtraLight";
shapes = (
{
closed = 1;
nodes = (
(131,0,l),
(131,338,ls),
(131,402,o),
(198,459,o),
(274,459,cs),
(344,459,o),
(379,408,o),
(379,305,cs),
(379,0,l),
(424,0,l),
(424,309,ls),
(424,430,o),
(376,489,o),
(279,489,cs),
(199,489,o),
(141,449,o),
(113,373,c),
(131,359,l),
(131,700,l),
(86,700,l),
(86,0,l)
);
}
);
userData = {
com.hugojourdan.ColorFlow = {
"0" = 0;
"1" = 0;
"10" = 0;
"11" = 0;
"2" = 0;
"3" = 0;
"4" = 0;
"5" = 0;
"6" = 0;
"7" = 0;
"8" = 0;
"9" = 0;
};
};
width = 505;
}
);
metricLeft = "=l";
metricRight = "=n";
note = h;
unicode = 104;
},
{
glyphname = idotless;
layers = (
{
anchors = (
{
name = title;
pos = (109,470);
},
{
name = top;
pos = (109,480);
}
);
layerId = m01;
shapes = (
{
closed = 1;
nodes = (
(131,0,l),
(131,480,l),
(86,480,l),
(86,0,l)
);
}
);
userData = {
com.hugojourdan.ColorFlow = {
"0" = 0;
"1" = 0;
"10" = 0;
"11" = 0;
"2" = 0;
"3" = 0;
"4" = 0;
"5" = 0;
"6" = 0;
"7" = 0;
"8" = 0;
"9" = 0;
};
};
width = 217;
},
{
anchors = (
{
name = title;
pos = (123,480);
},
{
name = top;
pos = (123,490);
}
);
layerId = "BF6BA5B2-0556-42F4-A103-614BEBF16A1A";
shapes = (
{
closed = 1;
nodes = (
(169,0,l),
(169,490,l),
(76,490,l),
(76,0,l)
);
}
);
userData = {
com.hugojourdan.ColorFlow = {
"0" = 0;
"1" = 0;
"10" = 0;
"11" = 0;
"2" = 0;
"3" = 0;
"4" = 0;
"5" = 0;
"6" = 0;
"7" = 0;
"8" = 0;
"9" = 0;
};
};
width = 245;
},
{
anchors = (
{
name = title;
pos = (133,490);
},
{
name = top;
pos = (133,500);
}
);
layerId = "FF73925E-1E34-445B-881D-5A7CAAA8E8BE";
shapes = (
{
closed = 1;
nodes = (
(217,0,l),
(217,500,l),
(48,500,l),
(48,0,l)
);
}
);
userData = {
com.hugojourdan.ColorFlow = {
"0" = 0;
"1" = 0;
"10" = 0;
"11" = 0;
"2" = 0;
"3" = 0;
"4" = 0;
"5" = 0;
"6" = 0;
"7" = 0;
"8" = 0;
"9" = 0;
};
};
width = 265;
},
{
anchors = (
{
name = title;
pos = (109,470);
},
{
name = top;
pos = (109,480);
}
);
layerId = m004;
metricLeft = "=n";
shapes = (
{
closed = 1;
nodes = (
(131,0,l),
(131,480,l),
(86,480,l),
(86,0,l)
);
}
);
userData = {
com.hugojourdan.ColorFlow = {
"0" = 0;
"1" = 0;
"10" = 0;
"11" = 0;
"2" = 0;
"3" = 0;
"4" = 0;
"5" = 0;
"6" = 0;
"7" = 0;
"8" = 0;
"9" = 0;
};
};
width = 217;
},
{
anchors = (
{
name = title;
pos = (123,480);
},
{
name = top;
pos = (123,490);
}
);
layerId = m005;
metricLeft = "=n";
shapes = (
{
closed = 1;
nodes = (
(169,0,l),
(169,490,l),
(76,490,l),
(76,0,l)
);
}
);
userData = {
com.hugojourdan.ColorFlow = {
"0" = 0;
"1" = 0;
"10" = 0;
"11" = 0;
"2" = 0;
"3" = 0;
"4" = 0;
"5" = 0;
"6" = 0;
"7" = 0;
"8" = 0;
"9" = 0;
};
};
width = 245;
},
{
anchors = (
{
name = title;
pos = (133,490);
},
{
name = top;
pos = (133,500);
}
);
layerId = m006;
metricLeft = "=n";
shapes = (
{
closed = 1;
nodes = (
(217,0,l),
(217,500,l),
(48,500,l),
(48,0,l)
);
}
);
userData = {
com.hugojourdan.ColorFlow = {
"0" = 0;
"1" = 0;
"10" = 0;
"11" = 0;
"2" = 0;
"3" = 0;
"4" = 0;
"5" = 0;
"6" = 0;
"7" = 0;
"8" = 0;
"9" = 0;
};
};
width = 265;
}
);
metricLeft = "=n+10";
metricRight = "=|";
unicode = 305;
},
{
glyphname = jdotless;
layers = (
{
anchors = (
{
name = title;
pos = (112,470);
},
{
name = top;
pos = (112,480);
}
);
layerId = m01;
shapes = (
{
closed = 1;
nodes = (
(97,-185,o),
(134,-159,o),
(134,-82,cs),
(134,480,l),
(89,480,l),
(89,-92,ls),
(89,-135,o),
(66,-154,o),
(38,-154,cs),
(18,-154,o),
(-4,-145,o),
(-22,-125,c),
(-38,-170,l),
(-9,-179,o),
(20,-185,o),
(45,-185,cs)
);
}
);
userData = {
com.hugojourdan.ColorFlow = {
"0" = 0;
"1" = 0;
"10" = 0;
"11" = 0;
"2" = 0;
"3" = 0;
"4" = 0;
"5" = 0;
"6" = 0;
"7" = 0;
"8" = 0;
"9" = 0;
};
};
width = 220;
},
{
anchors = (
{
name = title;
pos = (125,480);
},
{
name = top;
pos = (125,490);
}
);
layerId = "BF6BA5B2-0556-42F4-A103-614BEBF16A1A";
shapes = (
{
closed = 1;
nodes = (
(137,-185,o),
(171,-148,o),
(171,-61,cs),
(171,490,l),
(79,490,l),
(79,-70,ls),
(79,-114,o),
(67,-133,o),
(38,-133,cs),
(21,-133,o),
(3,-125,o),
(-18,-100,c),
(-39,-167,l),
(-8,-179,o),
(24,-185,o),
(57,-185,cs)
);
}
);
userData = {
com.hugojourdan.ColorFlow = {
"0" = 0;
"1" = 0;
"10" = 0;
"11" = 0;
"2" = 0;
"3" = 0;
"4" = 0;
"5" = 0;
"6" = 0;
"7" = 0;
"8" = 0;
"9" = 0;
};
};
width = 247;
},
{
anchors = (
{
name = title;
pos = (147,490);
},
{
name = top;
pos = (147,500);
}
);
layerId = "FF73925E-1E34-445B-881D-5A7CAAA8E8BE";
shapes = (
{
closed = 1;
nodes = (
(164,-185,o),
(231,-124,o),
(231,-27,cs),
(231,500,l),
(62,500,l),
(62,-37,ls),
(62,-86,o),
(48,-111,o),
(21,-111,cs),
(-2,-111,o),
(-30,-89,o),
(-53,-55,c),
(-105,-125,l),
(-68,-162,o),
(-5,-185,o),
(58,-185,cs)
);
}
);
userData = {
com.hugojourdan.ColorFlow = {
"0" = 0;
"1" = 0;
"10" = 0;
"11" = 0;
"2" = 0;
"3" = 0;
"4" = 0;
"5" = 0;
"6" = 0;
"7" = 0;
"8" = 0;
"9" = 0;
};
};
width = 279;
},
{
anchors = (
{
name = title;
pos = (112,470);
},
{
name = top;
pos = (112,480);
}
);
layerId = m004;
shapes = (
{
closed = 1;
nodes = (
(97,-185,o),
(134,-159,o),
(134,-82,cs),
(134,480,l),
(89,480,l),
(89,-81,ls),
(89,-121,o),
(66,-139,o),
(38,-139,cs),
(18,-139,o),
(-5,-135,o),
(-25,-125,c),
(-38,-170,l),
(-9,-179,o),
(20,-185,o),
(45,-185,cs)
);
}
);
userData = {
com.hugojourdan.ColorFlow = {
"0" = 0;
"1" = 0;
"10" = 0;
"11" = 0;
"2" = 0;
"3" = 0;
"4" = 0;
"5" = 0;
"6" = 0;
"7" = 0;
"8" = 0;
"9" = 0;
};
};
width = 220;
},
{
anchors = (
{
name = title;
pos = (126,480);
},
{
name = top;
pos = (126,490);
}
);
layerId = m005;
shapes = (
{
closed = 1;
nodes = (
(123,-185,o),
(172,-145,o),
(172,-61,cs),
(172,490,l),
(79,490,l),
(79,-52,ls),
(79,-88,o),
(59,-105,o),
(31,-105,cs),
(12,-105,o),
(-11,-99,o),
(-31,-88,c),
(-64,-153,l),
(-32,-172,o),
(10,-185,o),
(50,-185,cs)
);
}
);
userData = {
com.hugojourdan.ColorFlow = {
"0" = 0;
"1" = 0;
"10" = 0;
"11" = 0;
"2" = 0;
"3" = 0;
"4" = 0;
"5" = 0;
"6" = 0;
"7" = 0;
"8" = 0;
"9" = 0;
};
};
width = 248;
},
{
anchors = (
{
name = title;
pos = (147,490);
},
{
name = top;
pos = (147,500);
}
);
layerId = m006;
shapes = (
{
closed = 1;
nodes = (
(164,-185,o),
(231,-124,o),
(231,-27,cs),
(231,500,l),
(62,500,l),
(62,-7,ls),
(62,-37,o),
(48,-52,o),
(21,-52,cs),
(3,-52,o),
(-19,-44,o),
(-40,-29,c),
(-105,-125,l),
(-68,-162,o),
(-5,-185,o),
(58,-185,cs)
);
}
);
userData = {
com.hugojourdan.ColorFlow = {
"0" = 0;
"1" = 0;
"10" = 0;
"11" = 0;
"2" = 0;
"3" = 0;
"4" = 0;
"5" = 0;
"6" = 0;
"7" = 0;
"8" = 0;
"9" = 0;
};
};
width = 279;
}
);
metricRight = "=idotless";
unicode = 567;
},
{
glyphname = k;
layers = (
{
layerId = m01;
shapes = (
{
closed = 1;
nodes = (
(432,0,l),
(198,299,l),
(149,289,l),
(370,0,l)
);
},
{
closed = 1;
nodes = (
(131,0,l),
(131,700,l),
(86,700,l),
(86,0,l)
);
},
{
closed = 1;
nodes = (
(186,269,l),
(394,480,l),
(354,480,l),
(179,302,l),
(115,294,l),
(115,269,l)
);
}
);
userData = {
com.hugojourdan.ColorFlow = {
"0" = 0;
"1" = 0;
"10" = 0;
"11" = 0;
"2" = 0;
"3" = 0;
"4" = 0;
"5" = 0;
"6" = 0;
"7" = 0;
"8" = 0;
"9" = 0;
};
};
width = 461;
},
{
layerId = "FF73925E-1E34-445B-881D-5A7CAAA8E8BE";
shapes = (
{
closed = 1;
nodes = (
(542,0,l),
(365,344,l),
(227,293,l),
(362,0,l)
);
},
{
closed = 1;
nodes = (
(217,0,l),
(217,700,l),
(48,700,l),
(48,0,l)
);
},
{
closed = 1;
nodes = (
(308,250,l),
(502,500,l),
(401,500,l),
(275,333,l),
(191,318,l),
(191,250,l)
);
}
);
userData = {
com.hugojourdan.ColorFlow = {
"0" = 0;
"1" = 0;
"10" = 0;
"11" = 0;
"2" = 0;
"3" = 0;
"4" = 0;
"5" = 0;
"6" = 0;
"7" = 0;
"8" = 0;
"9" = 0;
};
};
width = 559;
},
{
layerId = "BF6BA5B2-0556-42F4-A103-614BEBF16A1A";
shapes = (
{
closed = 1;
nodes = (
(479,0,l),
(268,314,l),
(193,278,l),
(375,0,l)
);
},
{
closed = 1;
nodes = (
(169,0,l),
(169,700,l),
(76,700,l),
(76,0,l)
);
},
{
closed = 1;
nodes = (
(235,259,l),
(443,490,l),
(380,490,l),
(220,312,l),
(142,299,l),
(154,259,l)
);
}
);
userData = {
com.hugojourdan.ColorFlow = {
"0" = 0;
"1" = 0;
"10" = 0;
"11" = 0;
"2" = 0;
"3" = 0;
"4" = 0;
"5" = 0;
"6" = 0;
"7" = 0;
"8" = 0;
"9" = 0;
};
};
width = 505;
},
{
layerId = m004;
shapes = (
{
closed = 1;
nodes = (
(432,0,l),
(205,299,l),
(154,299,l),
(379,0,l)
);
},
{
closed = 1;
nodes = (
(131,0,l),
(131,700,l),
(86,700,l),
(86,0,l)
);
},
{
closed = 1;
nodes = (
(93,189,l),
(395,484,l),
(339,484,l),
(91,236,l),
(87,236,l),
(87,189,l)
);
}
);
userData = {
com.hugojourdan.ColorFlow = {
"0" = 0;
"1" = 0;
"10" = 0;
"11" = 0;
"2" = 0;
"3" = 0;
"4" = 0;
"5" = 0;
"6" = 0;
"7" = 0;
"8" = 0;
"9" = 0;
};
};
width = 461;
},
{
layerId = m005;
shapes = (
{
closed = 1;
nodes = (
(479,0,l),
(260,297,l),
(164,297,l),
(377,0,l)
);
},
{
closed = 1;
nodes = (
(169,0,l),
(169,700,l),
(76,700,l),
(76,0,l)
);
},
{
closed = 1;
nodes = (
(166,199,l),
(449,490,l),
(354,490,l),
(133,262,l),
(116,249,l),
(116,153,l)
);
}
);
userData = {
com.hugojourdan.ColorFlow = {
"0" = 0;
"1" = 0;
"10" = 0;
"11" = 0;
"2" = 0;
"3" = 0;
"4" = 0;
"5" = 0;
"6" = 0;
"7" = 0;
"8" = 0;
"9" = 0;
};
};
width = 505;
},
{
layerId = m006;
shapes = (
{
closed = 1;
nodes = (
(542,0,l),
(353,313,l),
(180,313,l),
(355,0,l)
);
},
{
closed = 1;
nodes = (
(217,0,l),
(217,700,l),
(48,700,l),
(48,0,l)
);
},
{
closed = 1;
nodes = (
(270,216,l),
(522,500,l),
(365,500,l),
(187,302,l),
(149,269,l),
(149,97,l)
);
}
);
userData = {
com.hugojourdan.ColorFlow = {
"0" = 0;
"1" = 0;
"10" = 0;
"11" = 0;
"2" = 0;
"3" = 0;
"4" = 0;
"5" = 0;
"6" = 0;
"7" = 0;
"8" = 0;
"9" = 0;
};
};
width = 559;
}
);
metricLeft = l;
metricRight = "=w";
note = k;
unicode = 107;
},
{
glyphname = l;
layers = (
{
layerId = m01;
shapes = (
{
closed = 1;
nodes = (
(131,0,l),
(131,700,l),
(86,700,l),
(86,0,l)
);
}
);
userData = {
com.hugojourdan.ColorFlow = {
"0" = 0;
"1" = 0;
"10" = 0;
"11" = 0;
"2" = 0;
"3" = 0;
"4" = 0;
"5" = 0;
"6" = 0;
"7" = 0;
"8" = 0;
"9" = 0;
};
};
width = 217;
},
{
layerId = "FF73925E-1E34-445B-881D-5A7CAAA8E8BE";
shapes = (
{
closed = 1;
nodes = (
(217,0,l),
(217,700,l),
(48,700,l),
(48,0,l)
);
}
);
userData = {
com.hugojourdan.ColorFlow = {
"0" = 0;
"1" = 0;
"10" = 0;
"11" = 0;
"2" = 0;
"3" = 0;
"4" = 0;
"5" = 0;
"6" = 0;
"7" = 0;
"8" = 0;
"9" = 0;
};
};
width = 265;
},
{
layerId = "BF6BA5B2-0556-42F4-A103-614BEBF16A1A";
shapes = (
{
closed = 1;
nodes = (
(169,0,l),
(169,700,l),
(76,700,l),
(76,0,l)
);
}
);
userData = {
com.hugojourdan.ColorFlow = {
"0" = 0;
"1" = 0;
"10" = 0;
"11" = 0;
"2" = 0;
"3" = 0;
"4" = 0;
"5" = 0;
"6" = 0;
"7" = 0;
"8" = 0;
"9" = 0;
};
};
width = 245;
},
{
layerId = m004;
metricLeft = "=n";
shapes = (
{
closed = 1;
nodes = (
(131,0,l),
(131,700,l),
(86,700,l),
(86,0,l)
);
}
);
userData = {
com.hugojourdan.ColorFlow = {
"0" = 0;
"1" = 0;
"10" = 0;
"11" = 0;
"2" = 0;
"3" = 0;
"4" = 0;
"5" = 0;
"6" = 0;
"7" = 0;
"8" = 0;
"9" = 0;
};
};
width = 217;
},
{
layerId = m005;
metricLeft = "=n";
shapes = (
{
closed = 1;
nodes = (
(169,0,l),
(169,700,l),
(76,700,l),
(76,0,l)
);
}
);
userData = {
com.hugojourdan.ColorFlow = {
"0" = 0;
"1" = 0;
"10" = 0;
"11" = 0;
"2" = 0;
"3" = 0;
"4" = 0;
"5" = 0;
"6" = 0;
"7" = 0;
"8" = 0;
"9" = 0;
};
};
width = 245;
},
{
layerId = m006;
metricLeft = "=n";
shapes = (
{
closed = 1;
nodes = (
(217,0,l),
(217,700,l),
(48,700,l),
(48,0,l)
);
}
);
userData = {
com.hugojourdan.ColorFlow = {
"0" = 0;
"1" = 0;
"10" = 0;
"11" = 0;
"2" = 0;
"3" = 0;
"4" = 0;
"5" = 0;
"6" = 0;
"7" = 0;
"8" = 0;
"9" = 0;
};
};
width = 265;
}
);
metricLeft = "=n+10";
metricRight = "=|";
note = l;
unicode = 108;
},
{
glyphname = m;
layers = (
{
background = {
shapes = (
{
closed = 1;
nodes = (
(131,0,l),
(131,308,ls),
(131,392,o),
(195,460,o),
(274,460,cs),
(341,460,o),
(379,412,o),
(379,325,cs),
(379,0,l),
(424,0,l),
(424,330,ls),
(424,432,o),
(371,490,o),
(278,490,cs),
(198,490,o),
(137,440,o),
(115,359,c),
(124,360,l),
(124,429,o),
(123,445,o),
(114,480,c),
(76,480,l),
(85,445,o),
(86,429,o),
(86,360,cs),
(86,0,l)
);
}
);
};
layerId = m01;
shapes = (
{
closed = 1;
nodes = (
(131,0,l),
(131,338,ls),
(131,402,o),
(198,460,o),
(274,460,cs),
(344,460,o),
(379,408,o),
(379,305,cs),
(379,0,l),
(424,0,l),
(424,338,ls),
(424,402,o),
(491,460,o),
(567,460,cs),
(637,460,o),
(672,408,o),
(672,305,cs),
(672,0,l),
(717,0,l),
(717,309,ls),
(717,429,o),
(669,490,o),
(574,490,cs),
(497,490,o),
(439,453,o),
(415,389,c),
(396,456,o),
(352,490,o),
(281,490,cs),
(195,490,o),
(132,442,o),
(113,365,c),
(123,365,l),
(124,402,o),
(121,441,o),
(114,480,c),
(76,480,l),
(82,443,o),
(86,406,o),
(86,369,cs),
(86,0,l)
);
}
);
userData = {
com.hugojourdan.ColorFlow = {
"0" = 0;
"1" = 0;
"10" = 0;
"11" = 0;
"2" = 0;
"3" = 0;
"4" = 0;
"5" = 0;
"6" = 0;
"7" = 0;
"8" = 0;
"9" = 0;
};
};
width = 798;
},
{
layerId = "FF73925E-1E34-445B-881D-5A7CAAA8E8BE";
shapes = (
{
closed = 1;
nodes = (
(216,0,l),
(216,356,ls),
(216,410,o),
(254,436,o),
(286,436,cs),
(320,436,o),
(337,407,o),
(337,349,cs),
(337,0,l),
(506,0,l),
(506,356,ls),
(506,410,o),
(544,436,o),
(576,436,cs),
(610,436,o),
(627,407,o),
(627,349,cs),
(627,0,l),
(796,0,l),
(796,330,ls),
(796,451,o),
(730,510,o),
(623,510,cs),
(562,510,o),
(513,487,o),
(478,442,c),
(450,487,o),
(402,510,o),
(333,510,cs),
(263,510,o),
(210,482,o),
(177,423,c),
(194,423,l),
(195,451,o),
(192,477,o),
(187,500,c),
(38,500,l),
(45,465,o),
(48,428,o),
(48,388,cs),
(48,0,l)
);
}
);
userData = {
com.hugojourdan.ColorFlow = {
"0" = 0;
"1" = 0;
"10" = 0;
"11" = 0;
"2" = 0;
"3" = 0;
"4" = 0;
"5" = 0;
"6" = 0;
"7" = 0;
"8" = 0;
"9" = 0;
};
};
width = 839;
},
{
layerId = "BF6BA5B2-0556-42F4-A103-614BEBF16A1A";
shapes = (
{
closed = 1;
nodes = (
(163,0,l),
(163,353,ls),
(163,422,o),
(226,455,o),
(278,455,cs),
(334,455,o),
(362,412,o),
(362,326,cs),
(362,0,l),
(455,0,l),
(455,353,l),
(452,422,o),
(517,455,o),
(569,455,cs),
(625,455,o),
(653,412,o),
(653,326,cs),
(653,0,l),
(746,0,l),
(746,320,ls),
(746,440,o),
(694,500,o),
(591,500,cs),
(523,500,o),
(472,472,o),
(439,416,c),
(416,472,o),
(370,500,o),
(300,500,cs),
(213,500,o),
(155,454,o),
(125,363,c),
(151,363,l),
(150,406,o),
(148,448,o),
(144,490,c),
(66,490,l),
(70,448,o),
(71,406,o),
(71,363,cs),
(71,0,l)
);
}
);
userData = {
com.hugojourdan.ColorFlow = {
"0" = 0;
"1" = 0;
"10" = 0;
"11" = 0;
"2" = 0;
"3" = 0;
"4" = 0;
"5" = 0;
"6" = 0;
"7" = 0;
"8" = 0;
"9" = 0;
};
};
width = 817;
},
{
layerId = m004;
shapes = (
{
closed = 1;
nodes = (
(131,0,l),
(131,283,ls),
(131,386,o),
(196,445,o),
(278,445,cs),
(344,445,o),
(379,406,o),
(379,305,cs),
(379,0,l),
(424,0,l),
(424,283,ls),
(424,386,o),
(488,445,o),
(570,445,cs),
(636,445,o),
(672,406,o),
(672,305,cs),
(672,0,l),
(717,0,l),
(717,309,ls),
(717,429,o),
(669,490,o),
(574,490,cs),
(497,490,o),
(439,453,o),
(415,389,c),
(396,456,o),
(352,490,o),
(281,490,cs),
(195,490,o),
(132,442,o),
(113,365,c),
(125,365,l),
(125,402,o),
(125,441,o),
(125,480,c),
(86,480,l),
(86,443,o),
(86,406,o),
(86,369,cs),
(86,0,l)
);
}
);
userData = {
com.hugojourdan.ColorFlow = {
"0" = 0;
"1" = 0;
"10" = 0;
"11" = 0;
"2" = 0;
"3" = 0;
"4" = 0;
"5" = 0;
"6" = 0;
"7" = 0;
"8" = 0;
"9" = 0;
};
};
width = 798;
},
{
layerId = m005;
shapes = (
{
closed = 1;
nodes = (
(169,0,l),
(169,292,ls),
(169,376,o),
(223,422,o),
(286,422,cs),
(340,422,o),
(368,387,o),
(368,303,cs),
(368,0,l),
(461,0,l),
(461,292,ls),
(461,376,o),
(515,422,o),
(577,422,cs),
(631,422,o),
(659,387,o),
(659,303,cs),
(659,0,l),
(752,0,l),
(752,317,ls),
(752,438,o),
(697,498,o),
(598,498,cs),
(527,498,o),
(473,466,o),
(444,410,c),
(422,468,o),
(376,498,o),
(306,498,cs),
(226,498,o),
(167,457,o),
(143,387,c),
(157,387,l),
(157,421,o),
(157,455,o),
(157,488,c),
(76,488,l),
(76,452,o),
(76,415,o),
(76,376,cs),
(76,0,l)
);
}
);
userData = {
com.hugojourdan.ColorFlow = {
"0" = 0;
"1" = 0;
"10" = 0;
"11" = 0;
"2" = 0;
"3" = 0;
"4" = 0;
"5" = 0;
"6" = 0;
"7" = 0;
"8" = 0;
"9" = 0;
};
};
width = 823;
},
{
layerId = m006;
shapes = (
{
closed = 1;
nodes = (
(216,0,l),
(216,306,ls),
(216,360,o),
(254,386,o),
(286,386,cs),
(320,386,o),
(337,357,o),
(337,299,cs),
(337,0,l),
(506,0,l),
(506,306,ls),
(506,360,o),
(544,386,o),
(576,386,cs),
(610,386,o),
(627,357,o),
(627,299,cs),
(627,0,l),
(796,0,l),
(796,330,ls),
(796,451,o),
(730,510,o),
(623,510,cs),
(562,510,o),
(513,487,o),
(478,442,c),
(450,487,o),
(402,510,o),
(333,510,cs),
(263,510,o),
(210,482,o),
(177,423,c),
(195,423,l),
(195,451,o),
(195,477,o),
(195,500,c),
(48,500,l),
(48,465,o),
(48,428,o),
(48,388,cs),
(48,0,l)
);
}
);
userData = {
com.hugojourdan.ColorFlow = {
"0" = 0;
"1" = 0;
"10" = 0;
"11" = 0;
"2" = 0;
"3" = 0;
"4" = 0;
"5" = 0;
"6" = 0;
"7" = 0;
"8" = 0;
"9" = 0;
};
};
width = 839;
}
);
metricLeft = "=n";
metricRight = "=n";
note = m;
unicode = 109;
},
{
glyphname = n;
layers = (
{
anchors = (
{
name = top;
pos = (278,480);
}
);
background = {
shapes = (
{
closed = 1;
nodes = (
(131,0,l),
(131,308,ls),
(131,392,o),
(195,460,o),
(274,460,cs),
(341,460,o),
(379,412,o),
(379,325,cs),
(379,0,l),
(424,0,l),
(424,332,ls),
(424,433,o),
(371,490,o),
(278,490,cs),
(198,490,o),
(137,440,o),
(115,359,c),
(124,369,l),
(124,419,o),
(121,455,o),
(114,480,c),
(76,480,l),
(83,455,o),
(86,419,o),
(86,369,cs),
(86,0,l)
);
}
);
};
layerId = m01;
metricRight = "=|+5";
shapes = (
{
closed = 1;
nodes = (
(131,0,l),
(131,308,ls),
(131,392,o),
(195,460,o),
(274,460,cs),
(341,460,o),
(379,412,o),
(379,325,cs),
(379,0,l),
(424,0,l),
(424,330,ls),
(424,432,o),
(371,490,o),
(278,490,cs),
(198,490,o),
(137,440,o),
(115,359,c),
(124,360,l),
(124,429,o),
(123,445,o),
(114,480,c),
(76,480,l),
(85,445,o),
(86,429,o),
(86,360,cs),
(86,0,l)
);
}
);
userData = {
com.hugojourdan.ColorFlow = {
"0" = 0;
"1" = 0;
"10" = 0;
"11" = 0;
"2" = 0;
"3" = 0;
"4" = 0;
"5" = 0;
"6" = 0;
"7" = 0;
"8" = 0;
"9" = 0;
};
};
width = 505;
},
{
anchors = (
{
name = top;
pos = (310,500);
}
);
layerId = "FF73925E-1E34-445B-881D-5A7CAAA8E8BE";
metricRight = "=|+5";
shapes = (
{
closed = 1;
nodes = (
(217,0,l),
(217,356,ls),
(217,401,o),
(248,436,o),
(286,436,cs),
(320,436,o),
(337,407,o),
(337,349,cs),
(337,0,l),
(506,0,l),
(506,330,ls),
(506,445,o),
(446,510,o),
(340,510,cs),
(265,510,o),
(210,478,o),
(177,415,c),
(194,415,l),
(195,449,o),
(193,473,o),
(187,500,c),
(38,500,l),
(45,469,o),
(48,433,o),
(48,388,cs),
(48,0,l)
);
}
);
userData = {
com.hugojourdan.ColorFlow = {
"0" = 0;
"1" = 0;
"10" = 0;
"11" = 0;
"2" = 0;
"3" = 0;
"4" = 0;
"5" = 0;
"6" = 0;
"7" = 0;
"8" = 0;
"9" = 0;
};
};
width = 549;
},
{
anchors = (
{
name = top;
pos = (297,490);
}
);
layerId = "BF6BA5B2-0556-42F4-A103-614BEBF16A1A";
metricRight = "=|+5";
shapes = (
{
closed = 1;
nodes = (
(169,0,l),
(169,344,ls),
(169,406,o),
(220,455,o),
(284,455,cs),
(344,455,o),
(373,411,o),
(373,318,cs),
(373,0,l),
(466,0,l),
(466,324,ls),
(466,442,o),
(416,500,o),
(312,500,cs),
(220,500,o),
(160,455,o),
(130,364,c),
(154,365,l),
(154,410,o),
(152,447,o),
(144,490,c),
(66,490,l),
(74,447,o),
(76,410,o),
(76,365,cs),
(76,0,l)
);
}
);
userData = {
com.hugojourdan.ColorFlow = {
"0" = 0;
"1" = 0;
"10" = 0;
"11" = 0;
"2" = 0;
"3" = 0;
"4" = 0;
"5" = 0;
"6" = 0;
"7" = 0;
"8" = 0;
"9" = 0;
};
};
width = 537;
},
{
anchors = (
{
name = top;
pos = (290,480);
}
);
associatedMasterId = m01;
layerId = "55553BCB-C4F8-4996-A293-81924295F9D9";
name = "13 Jun 23 2.30 AM";
shapes = (
{
closed = 1;
nodes = (
(143,0,l),
(143,327,ls),
(143,402,o),
(210,460,o),
(286,460,cs),
(356,460,o),
(391,408,o),
(391,305,cs),
(391,0,l),
(436,0,l),
(436,309,ls),
(436,429,o),
(388,490,o),
(293,490,cs),
(208,490,o),
(147,445,o),
(127,369,c),
(136,369,l),
(136,407,o),
(133,444,o),
(126,480,c),
(88,480,l),
(95,444,o),
(98,407,o),
(98,369,cs),
(98,0,l)
);
}
);
userData = {
com.hugojourdan.ColorFlow = {
"0" = 0;
"1" = 0;
"10" = 0;
"11" = 0;
"2" = 0;
"3" = 0;
"4" = 0;
"5" = 0;
"6" = 0;
"7" = 0;
"8" = 0;
"9" = 0;
};
};
width = 519;
},
{
anchors = (
{
name = top;
pos = (304,490);
}
);
associatedMasterId = "BF6BA5B2-0556-42F4-A103-614BEBF16A1A";
layerId = "65CF0C8A-6E4E-4F41-A50E-84721B4522B7";
name = "13 Jun 23 12.52 PM";
shapes = (
{
closed = 1;
nodes = (
(178,0,l),
(178,344,ls),
(178,406,o),
(229,455,o),
(292,455,cs),
(351,455,o),
(378,411,o),
(378,318,cs),
(378,0,l),
(471,0,l),
(471,324,ls),
(471,443,o),
(421,500,o),
(315,500,cs),
(228,500,o),
(169,455,o),
(139,364,c),
(163,364,l),
(164,431,o),
(162,463,o),
(153,490,c),
(75,490,l),
(83,447,o),
(85,409,o),
(85,364,cs),
(85,0,l)
);
}
);
userData = {
com.hugojourdan.ColorFlow = {
"0" = 0;
"1" = 0;
"10" = 0;
"11" = 0;
"2" = 0;
"3" = 0;
"4" = 0;
"5" = 0;
"6" = 0;
"7" = 0;
"8" = 0;
"9" = 0;
};
};
width = 541;
},
{
anchors = (
{
name = top;
pos = (278,480);
}
);
layerId = m004;
metricRight = "=|-5";
shapes = (
{
closed = 1;
nodes = (
(131,0,l),
(131,273,ls),
(131,380,o),
(189,450,o),
(277,450,cs),
(347,450,o),
(379,406,o),
(379,305,cs),
(379,0,l),
(424,0,l),
(424,309,ls),
(424,429,o),
(376,490,o),
(280,490,cs),
(200,490,o),
(142,448,o),
(115,369,c),
(124,370,l),
(124,407,o),
(124,443,o),
(124,480,c),
(86,480,l),
(86,443,o),
(86,407,o),
(86,370,cs),
(86,0,l)
);
}
);
userData = {
com.hugojourdan.ColorFlow = {
"0" = 0;
"1" = 0;
"10" = 0;
"11" = 0;
"2" = 0;
"3" = 0;
"4" = 0;
"5" = 0;
"6" = 0;
"7" = 0;
"8" = 0;
"9" = 0;
};
};
width = 505;
},
{
anchors = (
{
name = top;
pos = (298,488);
}
);
layerId = m005;
metricRight = "=|-5";
shapes = (
{
closed = 1;
nodes = (
(169,0,l),
(169,284,ls),
(169,367,o),
(218,424,o),
(289,424,cs),
(347,424,o),
(373,385,o),
(373,300,cs),
(373,0,l),
(466,0,l),
(466,312,ls),
(466,436,o),
(413,500,o),
(310,500,cs),
(228,500,o),
(169,461,o),
(144,391,c),
(154,365,l),
(154,410,o),
(154,445,o),
(154,490,c),
(76,490,l),
(76,445,o),
(76,410,o),
(76,365,cs),
(76,0,l)
);
}
);
userData = {
com.hugojourdan.ColorFlow = {
"0" = 0;
"1" = 0;
"10" = 0;
"11" = 0;
"2" = 0;
"3" = 0;
"4" = 0;
"5" = 0;
"6" = 0;
"7" = 0;
"8" = 0;
"9" = 0;
};
};
width = 537;
},
{
anchors = (
{
name = top;
pos = (310,500);
}
);
layerId = m006;
metricRight = "=|-5";
shapes = (
{
closed = 1;
nodes = (
(217,0,l),
(217,301,ls),
(217,349,o),
(247,386,o),
(286,386,cs),
(320,386,o),
(337,356,o),
(337,293,cs),
(337,0,l),
(506,0,l),
(506,330,ls),
(506,445,o),
(445,510,o),
(336,510,cs),
(265,510,o),
(212,482,o),
(177,425,c),
(198,425,l),
(198,450,o),
(198,475,o),
(198,500,c),
(48,500,l),
(48,466,o),
(48,432,o),
(48,398,cs),
(48,0,l)
);
}
);
userData = {
com.hugojourdan.ColorFlow = {
"0" = 0;
"1" = 0;
"10" = 0;
"11" = 0;
"2" = 0;
"3" = 0;
"4" = 0;
"5" = 0;
"6" = 0;
"7" = 0;
"8" = 0;
"9" = 0;
};
};
width = 549;
}
);
metricRight = "=|+5";
note = n;
unicode = 110;
},
{
glyphname = eng;
layers = (
{
layerId = m01;
shapes = (
{
ref = n;
},
{
closed = 1;
nodes = (
(387,-185,o),
(424,-159,o),
(424,-82,cs),
(424,48,l),
(379,48,l),
(379,-92,ls),
(379,-135,o),
(356,-154,o),
(328,-154,cs),
(308,-154,o),
(286,-145,o),
(268,-125,c),
(252,-170,l),
(281,-179,o),
(310,-185,o),
(335,-185,cs)
);
}
);
userData = {
com.hugojourdan.ColorFlow = {
"0" = 0;
"1" = 0;
"10" = 0;
"11" = 0;
"2" = 0;
"3" = 0;
"4" = 0;
"5" = 0;
"6" = 0;
"7" = 0;
"8" = 0;
"9" = 0;
};
};
width = 528;
},
{
layerId = "FF73925E-1E34-445B-881D-5A7CAAA8E8BE";
shapes = (
{
ref = n;
},
{
closed = 1;
nodes = (
(439,-185,o),
(506,-124,o),
(506,-27,cs),
(506,55,l),
(337,55,l),
(337,-37,ls),
(337,-86,o),
(323,-111,o),
(296,-111,cs),
(273,-111,o),
(245,-89,o),
(222,-55,c),
(170,-125,l),
(207,-162,o),
(270,-185,o),
(333,-185,cs)
);
}
);
userData = {
com.hugojourdan.ColorFlow = {
"0" = 0;
"1" = 0;
"10" = 0;
"11" = 0;
"2" = 0;
"3" = 0;
"4" = 0;
"5" = 0;
"6" = 0;
"7" = 0;
"8" = 0;
"9" = 0;
};
};
width = 583;
},
{
layerId = "BF6BA5B2-0556-42F4-A103-614BEBF16A1A";
shapes = (
{
ref = n;
},
{
closed = 1;
nodes = (
(431,-185,o),
(465,-148,o),
(465,-61,cs),
(465,44,l),
(373,44,l),
(373,-70,ls),
(373,-114,o),
(361,-133,o),
(332,-133,cs),
(315,-133,o),
(297,-125,o),
(276,-100,c),
(255,-167,l),
(286,-179,o),
(318,-185,o),
(351,-185,cs)
);
}
);
userData = {
com.hugojourdan.ColorFlow = {
"0" = 0;
"1" = 0;
"10" = 0;
"11" = 0;
"2" = 0;
"3" = 0;
"4" = 0;
"5" = 0;
"6" = 0;
"7" = 0;
"8" = 0;
"9" = 0;
};
};
width = 549;
},
{
layerId = m004;
shapes = (
{
ref = n;
},
{
closed = 1;
nodes = (
(387,-185,o),
(424,-159,o),
(424,-82,cs),
(424,29,l),
(379,29,l),
(379,-81,ls),
(379,-121,o),
(356,-139,o),
(328,-139,cs),
(308,-139,o),
(285,-135,o),
(265,-125,c),
(252,-170,l),
(281,-179,o),
(310,-185,o),
(335,-185,cs)
);
}
);
userData = {
com.hugojourdan.ColorFlow = {
"0" = 0;
"1" = 0;
"10" = 0;
"11" = 0;
"2" = 0;
"3" = 0;
"4" = 0;
"5" = 0;
"6" = 0;
"7" = 0;
"8" = 0;
"9" = 0;
};
};
width = 528;
},
{
layerId = m005;
shapes = (
{
alignment = -1;
ref = n;
},
{
closed = 1;
nodes = (
(417,-185,o),
(466,-145,o),
(466,-61,cs),
(466,39,l),
(373,39,l),
(373,-52,ls),
(373,-88,o),
(353,-105,o),
(326,-105,cs),
(306,-105,o),
(284,-100,o),
(263,-88,c),
(230,-153,l),
(262,-172,o),
(305,-185,o),
(344,-185,cs)
);
}
);
userData = {
com.hugojourdan.ColorFlow = {
"0" = 0;
"1" = 0;
"10" = 0;
"11" = 0;
"2" = 0;
"3" = 0;
"4" = 0;
"5" = 0;
"6" = 0;
"7" = 0;
"8" = 0;
"9" = 0;
};
};
width = 549;
},
{
layerId = m006;
shapes = (
{
ref = n;
},
{
closed = 1;
nodes = (
(439,-185,o),
(506,-124,o),
(506,-27,cs),
(506,56,l),
(337,56,l),
(337,-7,ls),
(337,-37,o),
(323,-52,o),
(296,-52,cs),
(278,-52,o),
(256,-44,o),
(235,-29,c),
(170,-125,l),
(207,-162,o),
(270,-185,o),
(333,-185,cs)
);
}
);
userData = {
com.hugojourdan.ColorFlow = {
"0" = 0;
"1" = 0;
"10" = 0;
"11" = 0;
"2" = 0;
"3" = 0;
"4" = 0;
"5" = 0;
"6" = 0;
"7" = 0;
"8" = 0;
"9" = 0;
};
};
width = 583;
}
);
note = eng;
unicode = 331;
},
{
glyphname = o;
layers = (
{
anchors = (
{
name = center;
pos = (258,240);
},
{
name = top;
pos = (258,480);
}
);
layerId = m01;
shapes = (
{
closed = 1;
nodes = (
(387,-10,o),
(459,80,o),
(459,240,cs),
(459,400,o),
(387,490,o),
(258,490,cs),
(129,490,o),
(57,400,o),
(57,240,cs),
(57,80,o),
(129,-10,o),
(258,-10,cs)
);
},
{
closed = 1;
nodes = (
(160,18,o),
(105,98,o),
(105,240,cs),
(105,382,o),
(160,462,o),
(258,462,cs),
(356,462,o),
(411,382,o),
(411,240,cs),
(411,98,o),
(356,18,o),
(258,18,cs)
);
}
);
userData = {
com.hugojourdan.ColorFlow = {
"0" = 0;
"1" = 0;
"10" = 0;
"11" = 0;
"2" = 0;
"3" = 0;
"4" = 0;
"5" = 0;
"6" = 0;
"7" = 0;
"8" = 0;
"9" = 0;
};
};
width = 516;
},
{
anchors = (
{
name = center;
pos = (276,250);
},
{
name = top;
pos = (276,500);
}
);
layerId = "FF73925E-1E34-445B-881D-5A7CAAA8E8BE";
metricLeft = "=n*0.7";
shapes = (
{
closed = 1;
nodes = (
(435,-10,o),
(525,84,o),
(525,250,cs),
(525,416,o),
(435,510,o),
(276,510,cs),
(117,510,o),
(27,416,o),
(27,250,cs),
(27,84,o),
(117,-10,o),
(276,-10,cs)
);
},
{
closed = 1;
nodes = (
(227,64,o),
(201,129,o),
(201,250,cs),
(201,371,o),
(227,436,o),
(276,436,cs),
(325,436,o),
(351,371,o),
(351,250,cs),
(351,129,o),
(325,64,o),
(276,64,cs)
);
}
);
userData = {
com.hugojourdan.ColorFlow = {
"0" = 0;
"1" = 0;
"10" = 0;
"11" = 0;
"2" = 0;
"3" = 0;
"4" = 0;
"5" = 0;
"6" = 0;
"7" = 0;
"8" = 0;
"9" = 0;
};
};
width = 552;
},
{
anchors = (
{
name = center;
pos = (272,245);
},
{
name = top;
pos = (272,490);
}
);
layerId = "BF6BA5B2-0556-42F4-A103-614BEBF16A1A";
metricLeft = "=n*0.72";
shapes = (
{
closed = 1;
nodes = (
(414,-10,o),
(496,83,o),
(496,245,cs),
(496,407,o),
(414,500,o),
(272,500,cs),
(130,500,o),
(48,407,o),
(48,245,cs),
(48,83,o),
(130,-10,o),
(272,-10,cs)
);
},
{
closed = 1;
nodes = (
(190,32,o),
(144,108,o),
(144,245,cs),
(144,381,o),
(190,458,o),
(272,458,cs),
(354,458,o),
(400,381,o),
(400,245,cs),
(400,108,o),
(354,32,o),
(272,32,cs)
);
}
);
userData = {
com.hugojourdan.ColorFlow = {
"0" = 0;
"1" = 0;
"10" = 0;
"11" = 0;
"2" = 0;
"3" = 0;
"4" = 0;
"5" = 0;
"6" = 0;
"7" = 0;
"8" = 0;
"9" = 0;
};
};
width = 544;
},
{
anchors = (
{
name = center;
pos = (258,240);
},
{
name = top;
pos = (258,480);
}
);
layerId = m004;
metricLeft = "=n*0.66";
shapes = (
{
closed = 1;
nodes = (
(387,-10,o),
(459,80,o),
(459,240,cs),
(459,400,o),
(387,490,o),
(258,490,cs),
(129,490,o),
(57,400,o),
(57,240,cs),
(57,80,o),
(129,-10,o),
(258,-10,cs)
);
},
{
closed = 1;
nodes = (
(160,30,o),
(105,106,o),
(105,240,cs),
(105,374,o),
(160,450,o),
(258,450,cs),
(356,450,o),
(411,374,o),
(411,240,cs),
(411,106,o),
(356,30,o),
(258,30,cs)
);
}
);
userData = {
com.hugojourdan.ColorFlow = {
"0" = 0;
"1" = 0;
"10" = 0;
"11" = 0;
"2" = 0;
"3" = 0;
"4" = 0;
"5" = 0;
"6" = 0;
"7" = 0;
"8" = 0;
"9" = 0;
};
};
width = 516;
},
{
anchors = (
{
name = center;
pos = (272,244);
},
{
name = top;
pos = (272,488);
}
);
layerId = m005;
metricLeft = "=n*0.63";
shapes = (
{
closed = 1;
nodes = (
(414,-10,o),
(496,83,o),
(496,245,cs),
(496,407,o),
(414,500,o),
(272,500,cs),
(130,500,o),
(48,407,o),
(48,245,cs),
(48,83,o),
(130,-10,o),
(272,-10,cs)
);
},
{
closed = 1;
nodes = (
(190,67,o),
(144,131,o),
(144,245,cs),
(144,359,o),
(190,423,o),
(272,423,cs),
(353,423,o),
(400,358,o),
(400,245,cs),
(400,132,o),
(353,67,o),
(272,67,cs)
);
}
);
userData = {
com.hugojourdan.ColorFlow = {
"0" = 0;
"1" = 0;
"10" = 0;
"11" = 0;
"2" = 0;
"3" = 0;
"4" = 0;
"5" = 0;
"6" = 0;
"7" = 0;
"8" = 0;
"9" = 0;
};
};
width = 544;
},
{
anchors = (
{
name = center;
pos = (276,250);
},
{
name = top;
pos = (276,500);
}
);
layerId = m006;
metricLeft = "=n*0.56";
shapes = (
{
closed = 1;
nodes = (
(435,-10,o),
(525,84,o),
(525,250,cs),
(525,416,o),
(435,510,o),
(276,510,cs),
(117,510,o),
(27,416,o),
(27,250,cs),
(27,84,o),
(117,-10,o),
(276,-10,cs)
);
},
{
closed = 1;
nodes = (
(227,120,o),
(201,166,o),
(201,250,cs),
(201,334,o),
(227,380,o),
(276,380,cs),
(325,380,o),
(351,334,o),
(351,250,cs),
(351,166,o),
(325,120,o),
(276,120,cs)
);
}
);
userData = {
com.hugojourdan.ColorFlow = {
"0" = 0;
"1" = 0;
"10" = 0;
"11" = 0;
"2" = 0;
"3" = 0;
"4" = 0;
"5" = 0;
"6" = 0;
"7" = 0;
"8" = 0;
"9" = 0;
};
};
width = 552;
}
);
metricLeft = "=n*0.75";
metricRight = "=|";
note = o;
unicode = 111;
},
